<?xml version="1.0" encoding="UTF-8" standalone="no"?>
<!-- Created with Inkscape (http://www.inkscape.org/) -->

<svg
   version="1.1"
   id="svg1"
   width="5334.6665"
   height="5334.6665"
   viewBox="0 0 5334.6665 5334.6665"
   sodipodi:docname="gerorgia.eps"
   xmlns:inkscape="http://www.inkscape.org/namespaces/inkscape"
   xmlns:sodipodi="http://sodipodi.sourceforge.net/DTD/sodipodi-0.dtd"
   xmlns="http://www.w3.org/2000/svg"
   xmlns:svg="http://www.w3.org/2000/svg">
  <defs
     id="defs1" />
  <sodipodi:namedview
     id="namedview1"
     pagecolor="#ffffff"
     bordercolor="#000000"
     borderopacity="0.25"
     inkscape:showpageshadow="2"
     inkscape:pageopacity="0.0"
     inkscape:pagecheckerboard="0"
     inkscape:deskcolor="#d1d1d1">
    <inkscape:page
       x="0"
       y="0"
       inkscape:label="1"
       id="page1"
       width="5334.6665"
       height="5334.6665"
       margin="0"
       bleed="0" />
  </sodipodi:namedview>
  <g
     id="g1"
     inkscape:groupmode="layer"
     inkscape:label="1">
    <g
       id="group-R5">

      <path
         id="path3"
         d="m 11979.9,29560.7 c 26.9,-8.4 54.6,-12.8 82.7,-14.5 113.2,-6.9 235,26.1 349.9,32.4 51,5.6 102,4.2 152.8,-2.3 78.7,-10 154.5,-31.7 230.5,-53.3 92.2,-26.3 190.8,-54.8 287.8,-48.1 l 1.1,0.1 h 1.1 c 137.2,6 269.9,33.6 408.4,26.5 l 3.5,-0.2 3.5,-0.4 c 31.6,-4.1 62.7,-11 93.3,-19.8 56,-16.1 109.3,-38.7 162.7,-61.9 78.5,-34 164.1,-73.3 251,-76.5 l 2.5,-0.1 2.4,-0.3 c 48.5,-4.4 95.1,2 141.6,16.2 82.8,25.4 161.7,74 236.1,117.7 128.5,75.6 253.4,144.3 406.2,149.2 353.7,17.9 697.7,109.9 1047.8,1.3 l 7.5,-2.3 6.9,-3.5 c 34.3,-17.5 67.6,-37 100,-57.8 90.8,-58.5 173.6,-127.6 256,-197.1 134.8,-113.8 273.4,-233.9 443.7,-290 4.1,1.1 8.3,2.5 12.3,4.1 35.5,13.6 72.5,44.8 102.3,68.2 73.5,57.3 145.3,103.8 240.4,104.1 297.2,78.5 640.5,115.1 876.9,-126.5 l 0.6,-0.6 0.6,-0.6 c 152.8,-162.1 379.8,-231.7 584.9,-301.5 l 71.7,-24.4 -11.2,-74.9 c -12.8,-85 -32.3,-171.2 -38.9,-257.3 110.4,-100.9 241.1,-178.6 348.3,-286 170.2,-151.3 335.5,-373.8 560.4,-440.9 441.4,-131.7 886,-251.9 1329.4,-376.6 l 0.8,-0.2 0.9,-0.3 c 145.8,-44.2 285.6,-108.2 415.8,-187.2 l 1.2,-0.7 1.2,-0.8 c 20.4,-13.3 39.8,-28.2 58.2,-44.2 43.5,-37.8 80.6,-81.3 117.1,-125.6 47.4,-57.2 100,-125.2 167.1,-161.1 217.8,-69.5 437,-95.8 638.6,-214.5 l 31.1,-18.4 10,-34.7 c 19.1,-66.2 39.1,-132.1 59,-198 l 12.2,-40.5 -23.2,-35.4 c -102.3,-156.2 -247.3,-254.8 -386.4,-371.6 -4.2,-40.8 -8.3,-81.6 -12.4,-122.3 23.8,-35.7 54.1,-63.6 92.6,-85.3 123.3,-69.7 322.5,-68.3 463.6,-93.9 29,-4.2 57.1,-12.2 84.3,-23.3 50.1,-20.6 94.1,-50.4 138,-81.6 42.6,-30.5 95.7,-72.6 150.8,-83.1 5.5,4.9 10.9,10 16.2,15.3 27.9,28 52.3,60.2 76.3,91.6 52.2,68.8 102.1,133.9 175,182.5 52.9,35.2 110.5,59.6 172,75.5 95.2,24.6 192.8,27.3 290.5,30.1 118.5,3.5 248.5,5.9 352,71.5 27.5,19.8 51.7,43.4 73.7,69.2 44.9,53 80.8,115.2 116.8,174.4 40.8,67.2 82.7,133 136.6,190.6 l 27.1,29 39.7,-0.2 c 151.2,-1 330.9,-27.1 474.1,29.2 l 1.5,0.5 1.5,0.6 c 29.6,10.4 58.5,22.7 86.9,36.1 137.8,64.8 261.4,149.8 407.3,198.9 l 2.9,1 2.9,0.7 c 116.2,30.7 237.4,42.8 357.3,36.4 270.4,-14.2 534.7,-121.7 720.5,-321.7 47,-43 85.1,-93 116.4,-148.4 45.1,-79.6 73.6,-165.6 101.4,-252.2 80.7,259 156.6,515.4 326.5,739.4 l 31,40.9 51,-5.6 c 85.8,-9.2 166.4,-34.8 243.6,-72.8 111.6,-54.9 208.8,-131.7 306.9,-206.9 86.5,-66.4 177.4,-134.9 278.9,-176.9 5.2,-0.7 10.5,-1 15.7,-1 44.8,0 98.2,21.3 139.6,37.2 132,50.4 253.7,88.1 380.4,-1.1 243.2,-148.1 365.5,-388.4 552.3,-589.5 27.8,-27.8 52.2,-58.5 73.9,-91.3 30.7,-46.1 55.7,-95.4 79.8,-145.2 33.6,-69.5 68.1,-148.1 119.5,-207.3 38.2,-17.9 77.8,-26.3 120.5,-26.6 96.3,-0.9 202.7,38.5 293.4,68.5 126,41.5 252.4,78.3 386.2,58.7 409.4,-41.4 873.2,-109.6 1109.7,-491.2 l 20.1,-32.5 -9.2,-37.1 c -128.2,-517.1 -362.7,-996.3 -537.8,-1497.2 6.6,-25.7 13.3,-51.4 20.1,-77 226.5,-126.9 454.2,-250.8 657.1,-414.5 l 1.6,-1.3 1.5,-1.4 c 29.1,-25.6 61.9,-45.6 96.9,-62.1 115.3,-54.2 246.5,-73.7 364.9,-127 l 17.7,-8 12.9,-14.6 c 17.9,-20.1 33.7,-41.9 47.8,-64.8 32.4,-52.6 54.6,-109.4 76.4,-166.9 26.5,-70.1 55.3,-153.7 112.9,-205 l 1.3,-1.1 1.3,-1.3 c 0.5,-0.4 1.3,-1.2 2,-1.7 20.2,-1.5 110.9,52.7 130.3,61.5 l 49.7,22.3 43,-33.3 c 79.7,-61.6 174.9,-82.5 274.2,-73.5 l 64,5.8 26.7,-58.5 c 11.8,-26 20,-53.2 29,-80.4 5.7,-17.2 15.5,-59.6 38.2,-61.9 l 2.8,-0.3 2.8,-0.5 c 34.7,-5.8 69.7,-6.7 104.7,-4.6 135,8.4 266.3,56.1 403.6,65.5 l 16.5,1.1 15.7,-4.7 c 50.6,-15.1 96.5,-39.4 138.7,-71.1 66.2,-49.8 117.3,-113.2 169.4,-176.8 38.9,-47.6 81,-99.5 131.4,-135.9 15.3,-6.3 31.2,-11.3 47.3,-15.4 46.8,-11.8 96.3,-16.3 144.2,-21.6 66,-7.3 130.5,-15.9 193.5,-38.1 l 6,-2.1 5.6,-2.9 c 99.2,-51.6 141.3,-132.8 210.5,-212.9 l 37.9,-43.7 -23.7,-52.7 c -137.2,-305.4 -287.9,-610.2 -540.4,-838.2 -42.6,-38.5 -92.2,-64.2 -148.1,-76.8 -86.3,-19.3 -173.7,-5 -258.8,12.4 -37.1,7.5 -76.7,16.8 -115.6,22.3 -128.4,-215.8 -75.4,-507.1 -28.3,-743.8 7.2,-5.8 14.4,-11.5 21.6,-17.2 21.4,28.8 42.8,57.5 64.2,86.2 l 67.9,91.1 73.7,-86.3 c 144.1,-168.5 190.9,-378.5 219.6,-592.3 23.9,-178.7 230.2,-277.9 374.4,-349.9 32.2,-13.3 62.5,-30.1 91.5,-49.4 42.5,-28.4 81.1,-61.4 119.6,-94.9 56,-48.5 117.1,-103.8 189.4,-125.9 l 6.5,-2 6,-2.9 c 69.6,-33.2 142.9,-59.8 214.2,-88.9 173.2,-70.5 333.8,-154.5 421.6,-322.7 36.4,-13.1 70.6,-31.3 102.4,-54.2 89.5,-64.6 150.4,-158.9 204.3,-253.3 35.7,-62.6 69.8,-129.9 111.6,-188.5 l 68.6,-96 -110.4,-41.6 c -13.9,-5.2 -24.1,-12.5 -32.3,-25 -23.8,-36.4 -28.5,-115.6 -34.1,-159.1 l -4.4,-33.5 -25.1,-22.5 c -40.2,-35.8 -68.2,-78.2 -88.4,-127.9 -32.9,-80.5 -43.5,-174.2 -54.8,-260 -16.6,-125.4 -35,-249 -99.2,-360.3 -24.2,-44.5 -59.7,-78.5 -107,-97.5 -63.1,-25.3 -127.7,-17.2 -192.9,-9.1 -24.8,3 -72.5,9.9 -96.2,1.1 -7.5,-2.7 -12.3,-7.3 -16.7,-13.7 -39,-69.2 -64.8,-146.5 -101.7,-217.4 l -9.3,-17.8 -15.9,-12.2 c -50.3,-38.5 -109.1,-58.5 -172.4,-46.6 -121.9,22.9 -180.7,135.5 -256.2,217.6 l -5.6,6.1 -4.4,7 c -13.6,21.6 -30.9,38.3 -52.1,52.4 -40.8,27.3 -93.7,43.9 -140.2,58.9 -50.4,16.3 -100.6,32.3 -148.1,56.1 l -0.8,0.4 -0.6,0.4 c -240.2,125.9 -379.6,339.7 -567.7,522.4 -116.7,62.9 -289.3,25 -417.1,4.2 -215.5,-124.2 -422.1,-267.1 -684.3,-175 -525.9,160.2 -1109.9,329.1 -1412.9,830.9 l -31.5,52.2 36.4,48.8 c 41.5,55.8 90.8,102.3 145.5,141.6 -404.5,116.5 -824.8,208.4 -1126.2,522.8 -20.9,-5.7 -41.7,-11.7 -62.6,-17.3 -116.9,-30.9 -230.4,-45.1 -339.1,18.9 -48.1,23 -95,48.5 -143.1,71.4 -94.5,45 -202.4,88.5 -299.3,26.1 -464.1,-352.1 -887.2,-755.2 -1358.1,-1099 l -17.8,-12.9 -21.6,-3.4 c -193.4,-30.3 -368.3,23.4 -557.6,46.1 l -7.7,1 -7.4,2.1 c -3.3,1 -6.4,1.8 -9.3,2.4 27.7,-23.1 59.5,-43.1 89.2,-62.1 44.8,-28.8 89.2,-57.5 128.6,-93.7 l 67.1,-61.6 -61.9,-66.8 c -40.6,-43.7 -89.5,-74.6 -146.2,-92.8 -119.7,-38.6 -231.4,-13 -351.9,-15.1 l -3.9,-0.1 -4,0.3 c -57.4,3.9 -115.4,2.1 -172.9,0.8 -130.9,-2.9 -257,-2.9 -380.4,46.2 -27.1,7.3 -52.9,17.7 -79.1,27.6 -17,6.4 -57.5,23.8 -76.3,13 -82.5,-61.2 -142.4,-175.8 -206.4,-256.4 l -42,-52.8 -62.6,25 c -81,32.4 -131.8,86.7 -175.8,150.1 -60.5,-64.2 -127.9,-111.7 -221.5,-110.6 -53.2,-6.6 -105.6,-2 -157.4,12.3 -78.7,21.8 -147.6,63.2 -216.9,105.2 -38.7,23.5 -79.4,48.5 -121.7,66.8 -2.2,-0.8 -4.5,-1.7 -6.7,-2.6 -26,-10.9 -52.3,-30.6 -75.3,-46.9 -46.1,-32.3 -90.5,-60.6 -146,-73.5 l -9.4,-2.2 -9.6,-0.2 c -27.6,-0.5 -55.2,2.8 -82.1,9.3 -81,19.7 -148.9,66.9 -215.2,115.3 -49.7,36.3 -118.1,93.1 -185.4,98 -5.5,-14.4 -10.4,-28.9 -15.5,-42.8 -34.6,-96.3 -75.4,-179.8 -173.6,-221.6 -39.6,-25.5 -83.2,-40.4 -130.3,-45.3 -63.3,-6.5 -123.6,5.5 -185,18.4 -52.7,11.1 -124.6,29.7 -174.7,0.5 l -2.1,-1.2 -2.1,-1.1 c -233.7,-119.9 -490.4,-127.2 -747.3,-123.8 -38.3,-0.6 -73.4,-10.2 -107.8,-26.7 -57.9,-27.8 -111,-73.2 -160.2,-114.1 -87,-72.3 -172,-140.7 -284.2,-168.5 l -10.1,-2.5 -10.5,-0.1 c -50.6,-0.7 -101.2,1.2 -151.6,5.1 -252.8,19.4 -502.7,89.7 -755.7,93.8 -24.4,-1.5 -48.5,-5.5 -72.3,-11 -48.2,-11 -95.2,-27.8 -141.8,-44.2 -98.6,-34.6 -192.5,-66.1 -298.5,-65.5 l -122.9,0.8 37,117.2 c 16.6,52.7 32.7,105.6 48.8,158.5 -80.8,143.8 -229.1,264.3 -399.4,261.6 -27.6,-2 -55,-6 -82.1,-11.3 -147.9,-29.2 -283.8,-91 -436.5,-106.4 l -43.9,-4.4 -30.6,31.8 c -22.7,23.6 -42.4,49.7 -59.8,77.5 -29.8,47.9 -51.4,99.2 -73.1,151 -21.8,51.7 -45.3,109.5 -81.9,154 -105.2,17.9 -211.7,25.2 -316.5,48.2 l -247.6,54.4 225.9,115 c 90.3,46 186.1,94.5 267.3,158.7 -31.4,12.4 -62.1,27 -92.3,43.4 -112.9,61.3 -210.5,144.1 -309.1,225.4 -74.3,61.3 -150.8,123.3 -235.3,170.2 -44.6,24.9 -83.6,56.9 -118.1,94.5 -50.6,55.2 -88.4,118.9 -125.1,183.6 -55.1,97.4 -111.5,211.7 -225,249.9 -98.3,28.3 -156,91.9 -203.4,167.8 -24.6,-28.6 -49.1,-57.4 -73.5,-86.2 l -49.1,-58.1 -65.8,38.3 c -113.3,66 -212.8,149.2 -314.6,231.2 l -88.6,71.3 89.3,70.5 c 90.4,71.4 152.4,164 186.3,270.3 -286.3,37.9 -588.9,89.8 -869.7,23.1 -32.5,-11.7 -57.8,-29.4 -77.5,-58.4 -36.7,-54.2 -50.6,-143.8 -63.6,-207.4 -22.8,-111.5 -51.6,-217.9 -136.6,-298.7 -33.8,-37 -62.4,-83.4 -90.3,-124.9 -48.9,-72.7 -102,-145.2 -179.3,-190.2 -57.3,-33.3 -120.7,-46.5 -186.7,-40.8 l -7.7,0.7 -7.4,1.9 c -130.2,34 -254.6,86.2 -378.1,138.9 -230.3,98.4 -472.4,206.9 -729.2,164.9 l -34.1,-5.6 -29.1,18.5 c -25.2,16 -46.8,35.3 -69,54.9 -11.5,10.2 -34.8,31.9 -52.7,38.1 -42.2,-4.3 -84.6,-5.9 -127.1,-6.5 -143.5,-2.1 -301.9,10.6 -430.4,-66.1 l -37.6,-22.4 -41,15.5 c -102.7,38.9 -205.8,76.7 -307.9,117.3 -41.3,-12.4 -78,-32.7 -112.6,-60.1 -65.8,-51.9 -120.1,-124.7 -172.3,-189.8 -76.4,-95.1 -153.8,-183.2 -264.3,-239.4 l -19.4,-9.9 h -21.8 c -28.7,0 -56.6,6 -83,17.3 -42.3,18 -74.8,46.7 -107.6,77.9 -15,14.4 -32.6,32.3 -50.1,43.4 l -13.2,8.4 -9.7,12.3 c -3.4,4.3 -7.3,8 -11.6,11.4 -22,17.3 -57.7,27.4 -84.4,34.5 -76,20.3 -156.8,34 -213.5,94.4 -18.3,19.4 -31.3,40.9 -40,63.7 -49.1,-12.7 -99.9,-18.1 -152.5,-16.2 -230.2,8.3 -417,143.5 -625.2,219.2 l -104,37.8 57.5,94.5 c 58.5,96.3 109.9,197.1 163.2,296.3 137.4,255.8 285.5,496 550.9,630.3 7.8,19.2 16.1,38.2 24.9,57 29.9,63.4 65.1,124 101,184.2 68.1,114.1 144.1,233.2 173.7,364.5 4.9,27.3 12.6,53.8 22.4,79.7 13.4,35.5 30.3,69.3 47.8,103 20.4,39.7 44,82.8 55.2,126.6 18.7,357.5 -6.6,716.9 -71,1069 -111.9,231.1 -242.1,454.4 -395.6,660.5 l -9.6,12.9 -4.6,15.4 c -7.8,26.4 -14.4,53.2 -19.8,80.2 -18.7,93.5 -23.9,188.2 -30.3,283 -5.8,85.8 -12.6,173.4 -34.8,256.8 -68.9,258.5 -142.9,515.7 -219.5,772.1 l -0.5,1.4 -0.3,1.5 c -3.8,14.2 -9.7,27.6 -17,40.3 -16,28.3 -38.4,54.4 -59.5,78.9 -67.2,77.7 -127,147.2 -137.6,253.7 -80.1,478.2 -149.9,958.1 -232.1,1435.9 -53.9,247.9 -166.9,515.3 -393.5,651.3 l -1.1,0.6 -1,0.7 c -23.2,14.8 -48.1,26.2 -74,35.2 -54.3,18.9 -113,28.5 -169.5,38.4 -58.5,10.3 -116.7,21 -173.3,39.5 l -5.1,1.7 -4.8,2.2 c -56.2,26.1 -107.3,60.2 -158.4,94.9 -69.6,47.4 -146.7,102.8 -232.5,114 -76.4,-6.4 -163,-56.9 -234,-83.4 l -67.2,-25.1 -39.89,59.6 c -114.11,170.3 -244.61,321.6 -289.69,528.4 l -0.17,0.8 -0.14,0.8 c -48.2,241.8 -192.53,459.8 -310.47,676 -17.11,-6.1 -33.83,-13.1 -48.78,-19.2 -109.81,-44.9 -212.98,-78.9 -323.14,-10.2 l -9.67,6 -7.88,8.3 c -139.84,146.1 -240.51,318.4 -358.67,480.6 -333.31,175.2 -734.05,221.4 -1100.92,142.6 l -12.61,-2.7 -12.88,0.9 c -40.29,2.9 -78.71,13.5 -115.17,30.7 -69.67,33 -123.03,85.6 -177.76,138.3 -40.72,39.2 -92.19,89.9 -149.18,103.2 -42.48,10 -84.14,23.1 -125.07,38.1 -148.47,54.6 -298.25,144.2 -454.08,179.2 -37.63,-44.9 -75.3,-89.8 -113.3,-134.3 l -98.47,-115.4 -55.03,141.3 c -64.58,166 -152.06,321 -273.34,452.2 l -31.72,34.3 9.55,45.8 c 41.87,200.7 -64.1,397.8 -190.52,546.6 -14.5,11.1 -30.11,20.6 -46.37,29 -41.33,21.3 -87.19,35.7 -131.44,49.6 -107.13,33.7 -206.35,65.3 -288.27,146.5 l -0.86,0.9 -0.83,0.9 c -27.6,28.8 -59.7,51 -95.45,68.6 -74.8,36.9 -163.62,54.4 -244.62,72.9 -87.14,19.9 -173.39,41.9 -253.35,83 l -70.31,36.2 26.3,74.6 c 117.28,332.5 230.08,667.5 381.14,986.7 l 5.59,11.9 8.75,9.8 c 196.53,219.8 522.13,238.1 796.86,229.8 l 10.84,-0.3 10.46,-2.9 c 416.04,-114.2 801.5,-316.1 1216.44,-430.5 40.46,-11.2 79.76,-11.5 120.76,-3.1 72.74,14.9 145.81,55.7 211.05,90.2 126.95,67.2 249.37,126.2 397.4,106.5 l 10.86,-1.5 10.22,-4 c 34.11,-13.3 66.86,-29.8 98.42,-48.4 54.66,-32.2 105,-70.4 155.25,-108.9 70.35,-54 145.16,-113.2 229.86,-142.8 l 1.36,-0.5 1.36,-0.5 c 174.64,-67.4 351.86,-101.3 510.17,-208.7 227.99,-154.5 421.82,-352.7 648.52,-507.6 29.91,-12.8 61.08,-19.9 93.59,-22.7 79.14,-6.7 165.18,10.9 242.97,24.8 115.3,20.6 228.75,37.5 344.43,9.4 50.1,-11.1 97.7,-29.4 143.3,-52.7 65.8,-33.6 125.2,-76.4 185.5,-118.7 51.2,-36 104.8,-73.1 162.7,-98.5 172.7,40.4 341.7,80.8 512.6,-0.9 l 28.6,-13.6 13.8,-28.5 c 38.9,-80 70.9,-184 128.7,-252.8 11.1,-7.9 22.9,-15 35,-21.3 41.7,-21.9 88.4,-36.7 133,-51.4 82,-27.2 159.5,-54.7 228,-109.3 43,-34.3 80.4,-73.9 117.8,-114.1 50.4,-53.9 106.9,-117.3 177.8,-144.3"
         style="fill:#b3b3b3;fill-opacity:1;fill-rule:evenodd;stroke:#000000;stroke-width:600"
         transform="matrix(0.13333333,0,0,-0.13333333,0,5334.6667)" />
      <path
         id="path4"
         d="m 5069.88,31528 c 174.21,194.9 480.82,207.1 726.53,199.7 414.62,-113.9 802.26,-314.6 1216.37,-430.6 275.35,-74.1 470.75,227.2 741.35,191.2 180.03,-70.4 303.43,-237.2 486.65,-301.3 164.69,-63.5 342.63,-100.1 491.94,-199.1 228.76,-157.3 425.22,-356.4 655.06,-512.1 225.05,-103.8 471.81,59.9 704.82,2.7 193.3,-42.4 322.5,-208.7 504.6,-276.4 157.8,36.5 325.7,86.3 480.8,12.1 46.1,-94.8 76.8,-200.1 148.3,-280.1 118.6,-90.5 283.4,-92.7 401.4,-185.9 109.6,-88.4 185.4,-222.4 322.5,-273.2 153.6,-49.3 314,5.3 469.7,13.2 230.9,26.5 439.5,-119.7 669.9,-103.8 133.5,5.9 265.8,33.4 399.8,26.5 180.6,-23.3 331,-152 515.2,-158.9 301.9,-27.5 501.5,273.8 796,282.8 337.2,17 685.7,108 1017.2,5.3 299.7,-153 501.5,-458.6 834.6,-557.1 140.3,13.8 218.7,185.9 372.2,178.5 265.8,71.5 587.8,119.1 801.2,-99 166.3,-176.4 399.3,-249.4 621.7,-325.2 -15.4,-102.2 -39.2,-203.8 -41.8,-307.6 117,-116 262.6,-198.1 378.6,-315.1 188,-166.3 346.3,-386.6 596.8,-461.8 441.6,-131.3 886.5,-252 1330.7,-377 138.3,-41.8 271.1,-102.7 395.1,-177.9 139.2,-90.6 207,-263.7 356.9,-338.9 209.7,-67.8 434.2,-94.8 627.5,-208.7 19.1,-66.2 39.2,-132.4 59.3,-199.1 -101.7,-155.1 -259,-256.3 -397.2,-376 -6.3,-62.4 -12.7,-125.4 -19,-188.5 127.6,-233.5 409.8,-206.5 634.9,-247.8 157.3,-21.7 253.7,-194.3 416.2,-191.7 116,83.2 170.5,227.7 289.1,307.1 244.7,162.6 567.7,18.6 815,177.4 157.8,111.8 213.4,309.3 342.6,447.5 168.9,-1.1 346.3,-28.1 507.9,35.5 172.6,60.9 319.8,176.3 493,234.6 344.7,91 745,4.7 990.7,-262.2 174.8,-157.2 183.3,-407.7 288.1,-606.3 116.5,322.5 179.5,674.1 392.4,954.8 327.8,-35.5 522.1,-338.4 814.4,-454.4 171.6,-33.3 343.7,167.4 510.5,47.2 228.2,-137.7 358.5,-385 536.9,-576.7 129.8,-128.7 160,-324.6 282.8,-454.4 278,-147.2 556.6,127.7 844.6,84.2 377.6,-38.1 825.6,-96.9 1043.8,-449 -129.2,-521.1 -369.7,-1008.3 -544.4,-1515 9,-35.5 27.5,-106.5 37.1,-141.4 232.4,-130.8 469.1,-256.3 677.8,-424.7 136.6,-120.7 324.6,-131.9 484.5,-203.9 113.8,-128.7 113.8,-327.8 244.7,-444.3 71.4,-68.8 164.1,11.7 232.4,42.4 98,-75.7 215,-103.3 337.9,-92.1 33.3,-73.1 38.6,-184.3 140.3,-194.9 179.5,-30.2 352.1,47.7 529.5,59.8 191.2,-57.2 264.8,-269.5 421,-376.5 125.5,-56.1 270.1,-35.5 399.3,-81 80.5,-41.8 126,-125 183.7,-191.7 -131.3,-292.3 -275.9,-590.4 -518.4,-808.1 -141.9,-129.7 -342,-19.6 -507.3,-14.3 -189.5,-255.2 -122.8,-599.9 -65.1,-889.1 39.7,-31.7 80,-63.5 120.7,-95.8 40.3,53.5 80,107 120.2,161 131.4,-153.6 171.1,-351.1 198.6,-545.5 28.1,-220.3 248.9,-331.5 426.8,-420.4 156.3,-63 247.3,-224 411.5,-274.3 218.7,-104.3 506.2,-157.8 610,-405.1 217.7,-50.9 291.8,-308.7 409.4,-473.4 -109.7,-41.3 -111.8,-159.4 -124.5,-257.4 -224.5,-200.7 -122.9,-533.2 -261,-771.5 -86.4,-161 -313.5,34.4 -411,-116 -40.8,-71.5 -66.7,-149.9 -104.8,-222.9 -134.5,-103.3 -228.3,75.2 -306.6,160.4 -82.6,131.3 -250,136.6 -376.5,200.2 -228.3,119.7 -373.4,341 -555,515.2 -149.3,89 -341,42.9 -502.5,18 -191.2,-109.1 -391.4,-258.9 -625.4,-175.8 -500.4,152.5 -1075.5,314.6 -1363.6,791.7 77.3,103.8 186.9,170.5 305,219.2 -457,152.5 -994.5,217.7 -1328.1,600.5 -126.5,-28.6 -266.3,-94.2 -389.2,-19.6 -165.2,78.4 -356.9,211.3 -537.5,91.6 -463.8,-351.6 -888.5,-756.2 -1359.3,-1099.8 -179,-28.1 -356.4,25.4 -532.7,46.6 -73.1,21.7 -127.6,-3.2 -164.7,-74.7 66.2,-106.4 195.9,-149.8 286,-232.5 -113.9,-122.8 -285.5,-76.2 -433.2,-78.9 -176.9,12.2 -362.8,-26.4 -531.2,42.9 -75.7,18.6 -159.3,79.5 -235.1,29.2 -96.9,-70.5 -152.5,-182.2 -226.1,-274.9 -97.9,39.2 -145.1,131.9 -197,215.6 -68.3,-68.9 -127.1,-174.3 -238.8,-169.5 -185.9,-27 -320.9,129.2 -483.5,188 -97.9,-12.2 -160.9,-107 -256.3,-129.2 -201.7,-3.7 -336.8,271.1 -542.7,216 -49.3,-93.2 -57.2,-225 -170,-267.9 -154.1,-107.5 -336.8,62.5 -493,-28.6 -218.7,-112.3 -465.5,-117 -705.9,-113.9 -239.9,-2.6 -358,-258.4 -574,-311.9 -305.6,-4.2 -603.2,94.8 -908.2,99.1 -176.9,-10.1 -330.4,-121.8 -509.9,-120.8 15.3,48.7 45,146.2 59.8,194.9 -92.1,190.1 -281.7,347.9 -500.9,343.1 -180.1,-12.2 -345.3,-100.1 -523.8,-118 -110.1,114.3 -119.7,291.2 -234,403.5 -113.9,21.7 -229.8,28 -343.2,52.9 146.7,74.7 297.1,152.5 400.4,285.4 -315.1,47.2 -503.6,324.1 -766.8,472.4 -224.5,122.8 -229.3,451.2 -485.6,535.4 -114.9,32.3 -162.6,142.4 -213.9,238.3 -53.5,-60.9 -106.5,-122.9 -158.9,-184.9 -109.1,63.6 -205.5,144.6 -303.4,223.5 133.4,105.4 214.4,251.5 241.4,418.9 -332,38.6 -676.2,112.8 -1006.6,32.8 -259.5,-88.4 -142.5,-425.7 -316.7,-587.8 -113.3,-122.3 -180.5,-346.8 -383.9,-329.4 -383.4,100.1 -730.2,373.4 -1144.9,305.6 -55,34.9 -97.9,100.1 -166.2,108 -206,-23.8 -418.9,26.5 -607.9,-86.3 -111.8,42.4 -223.5,83.1 -333.7,127.6 -282.8,-59.8 -355.3,-380.7 -596.8,-503.6 -82,0 -128.6,84.2 -192.2,124.5 -102.7,131.3 -385.5,40.2 -339.4,278 -285.4,-158.9 -564.5,62.5 -828.2,158.3 199.6,328.3 332,736.6 708.5,907.6 82.1,229.9 263.2,413.6 316.7,654 19.6,113.3 101.6,203.4 126.5,314 20.1,371.8 -6.3,745.1 -74.1,1110.5 -115.5,239.9 -250.5,472.3 -409.9,686.3 -59.3,199.1 -30.1,415.7 -84.2,617.4 -68.8,259.5 -143.5,517.9 -220.3,774.7 -37,140.9 -198.5,212.4 -211.8,361.7 -80.5,480.3 -150.4,961.7 -233,1441.4 -59.3,274.3 -185.3,561.3 -435.8,711.7 -130.8,83.7 -293.3,75.8 -437.4,122.9 -145.1,67.2 -260,200.7 -426.8,217.6 -96.4,-4.7 -180,-56.6 -268,-89.5 -105.32,157.3 -235.06,307.7 -276.37,497.3 -55.59,279 -223.47,513.6 -352.14,762.5 -124.45,-12.2 -248.89,-132.9 -371.2,-56.6 -140.88,147.2 -243.08,325.6 -363.27,488.2 -355.86,193.3 -786.37,245.7 -1180.89,161 -177.92,12.7 -257.87,228.7 -427.86,270 -221.36,50.4 -408.81,194.9 -635.45,227.7 -48.74,-58.2 -97.44,-116.5 -146.69,-174.2 -68.84,176.9 -162.05,341 -291.25,480.9 48.72,233.5 -67.76,458.5 -216.05,630.6 -136.62,111.8 -338.37,98 -465.46,224 -161.5,168.9 -418.86,140.3 -617.44,242.6 115.97,328.8 228.22,662.4 377.55,978"
         style="fill:#ffffff;fill-opacity:1;fill-rule:nonzero;stroke:none"
         transform="matrix(0.13333333,0,0,-0.13333333,0,5334.6667)" />
      <path
         id="path5"
         d="m 19046.8,27083.4 v -3773 h -6131.2 v -1886.5 h 6131.2 v -3701.6 c 52,-29.9 106.9,-54.7 166.3,-71.4 h 1720.2 v 3773 h 6131 v 1886.5 h -6131 v 3773 h -1886.5"
         style="fill:#ff0000;fill-opacity:1;fill-rule:evenodd;stroke:none"
         transform="matrix(0.13333333,0,0,-0.13333333,0,5334.6667)" />
      <path
         id="path6"
         d="m 15633.8,24307 c 105.3,13 212.6,19.8 321.4,19.8 108.9,0 216.2,-6.8 321.6,-19.8 -56.1,296.7 -85.8,602.8 -85.8,915.9 0,313 29.5,619.2 85.5,915.9 -105.2,-13 -212.5,-19.8 -321.3,-19.8 -108.8,0 -216,6.8 -321.3,19.8 56.1,-296.7 85.5,-602.9 85.5,-915.9 0,-313.1 -29.5,-619.2 -85.6,-915.9"
         style="fill:#ff0000;fill-opacity:1;fill-rule:evenodd;stroke:none"
         transform="matrix(0.13333333,0,0,-0.13333333,0,5334.6667)" />
      <path
         id="path7"
         d="m 15039.3,25544.2 c 13,-105.3 19.8,-212.5 19.8,-321.3 0,-108.8 -6.8,-216 -19.8,-321.3 296.8,56.1 602.9,85.5 915.9,85.5 313.1,0 619.2,-29.7 916,-85.8 -13.1,105.4 -19.9,212.7 -19.9,321.6 0,108.8 6.8,216.1 19.8,321.4 -296.7,-56.1 -602.8,-85.6 -915.9,-85.6 -313,0 -619.1,29.4 -915.9,85.5"
         style="fill:#ff0000;fill-opacity:1;fill-rule:evenodd;stroke:none"
         transform="matrix(0.13333333,0,0,-0.13333333,0,5334.6667)" />
      <path
         id="path8"
         d="m 23703.5,18595.6 c 105.3,13 212.5,19.8 321.3,19.8 108.8,0 216,-6.8 321.3,-19.8 -56.1,296.7 -85.5,602.8 -85.5,915.9 0,313 29.5,619.1 85.6,915.9 -105.3,-13 -212.6,-19.8 -321.4,-19.8 -108.9,0 -216.2,6.8 -321.6,19.8 56.1,-296.8 85.7,-602.9 85.7,-915.9 0,-313.1 -29.4,-619.2 -85.4,-915.9"
         style="fill:#ff0000;fill-opacity:1;fill-rule:evenodd;stroke:none"
         transform="matrix(0.13333333,0,0,-0.13333333,0,5334.6667)" />
      <path
         id="path9"
         d="m 23108.8,19833 c 13.1,-105.3 19.9,-212.6 19.9,-321.5 0,-108.9 -6.8,-216.1 -19.8,-321.4 296.7,56 602.8,85.6 915.9,85.6 313,0 619.1,-29.5 915.9,-85.5 -13.1,105.3 -19.8,212.5 -19.8,321.3 0,108.8 6.8,216 19.8,321.3 -296.8,-56.1 -602.9,-85.5 -915.9,-85.5 -313.1,0 -619.2,29.7 -916,85.7"
         style="fill:#ff0000;fill-opacity:1;fill-rule:evenodd;stroke:none"
         transform="matrix(0.13333333,0,0,-0.13333333,0,5334.6667)" />
      <path
         id="path10"
         d="m 23703.2,24307 c 105.4,13 212.7,19.8 321.6,19.8 108.8,0 216.1,-6.8 321.4,-19.8 -56.1,296.7 -85.6,602.8 -85.6,915.9 0,313 29.4,619.2 85.5,915.9 -75.3,-9.3 -151.5,-15.4 -228.5,-18.2 -65,-105.9 -124.5,-215.7 -227.8,-288.9 -41.9,-26.9 -86,-45.1 -131.5,-57.6 20.2,-180.9 30.6,-364.9 30.6,-551.2 0,-313.1 -29.6,-619.2 -85.7,-915.9"
         style="fill:#ff0000;fill-opacity:1;fill-rule:evenodd;stroke:none"
         transform="matrix(0.13333333,0,0,-0.13333333,0,5334.6667)" />
      <path
         id="path11"
         d="m 23108.9,25544.3 c 13,-105.3 19.8,-212.6 19.8,-321.4 0,-108.9 -6.8,-216.2 -19.9,-321.6 296.8,56.1 602.9,85.8 916,85.8 313,0 619.1,-29.4 915.9,-85.5 -13.1,105.3 -19.8,212.5 -19.8,321.3 0,108.8 6.8,216 19.8,321.3 -296.8,-56.1 -602.9,-85.5 -915.9,-85.5 -313.1,0 -619.2,29.5 -915.9,85.6"
         style="fill:#ff0000;fill-opacity:1;fill-rule:evenodd;stroke:none"
         transform="matrix(0.13333333,0,0,-0.13333333,0,5334.6667)" />
      <path
         id="path12"
         d="m 15633.9,18595.6 c 105.3,13 212.5,19.8 321.3,19.8 66.5,0 132.4,-2.5 197.6,-7.5 33.2,46.8 63.8,97.2 97.4,140.5 -38.9,248.7 -59.2,503.5 -59.2,763.1 0,313 29.7,619.1 85.8,915.9 -105.4,-13 -212.7,-19.8 -321.6,-19.8 -108.8,0 -216.1,6.8 -321.4,19.8 56.1,-296.8 85.6,-602.9 85.6,-915.9 0,-313.1 -29.4,-619.2 -85.5,-915.9"
         style="fill:#ff0000;fill-opacity:1;fill-rule:evenodd;stroke:none"
         transform="matrix(0.13333333,0,0,-0.13333333,0,5334.6667)" />
      <path
         id="path13"
         d="m 15039.3,19832.8 c 13,-105.3 19.8,-212.5 19.8,-321.3 0,-108.8 -6.8,-216 -19.8,-321.3 296.8,56 602.9,85.5 915.9,85.5 168.3,0 334.5,-8.6 498.4,-25.2 28.3,53 71.1,96 142.3,120.3 85.1,20.6 171.1,31 257.6,34.3 -1.5,35.3 -2.2,70.8 -2.2,106.4 0,108.9 6.8,216.2 19.9,321.5 -296.8,-56 -602.9,-85.7 -916,-85.7 -313,0 -619.1,29.4 -915.9,85.5"
         style="fill:#ff0000;fill-opacity:1;fill-rule:evenodd;stroke:none"
         transform="matrix(0.13333333,0,0,-0.13333333,0,5334.6667)" />
      <path
         id="path14"
         d="m 30394.9,23310.4 h -9461.6 v 3880.5 c -71.8,33.5 -145.8,62 -221.3,84.9 -444.2,125 -889.1,245.7 -1330.7,377 -130.9,39.3 -236.6,118.2 -334.5,208.4 v -4550.8 h -6791.9 c 4.9,-18.3 9.8,-36.6 14.6,-54.9 54.1,-201.7 24.9,-418.3 84.2,-617.4 159.4,-214 294.4,-446.4 409.9,-686.3 32.8,-177 56,-355.9 68.8,-535.5 h 6214.4 v -3694 c 73.8,-42.4 153.2,-74.4 242.9,-87.9 -66.1,-85.1 -151.5,-147.6 -242.9,-201.1 v -110.1 c 62,-8.2 124.1,-15.4 185.7,-27.1 114.3,-112.3 123.9,-289.2 234,-403.5 178.5,17.9 343.7,105.8 523.8,118 219.2,4.8 408.8,-153 500.9,-343.1 -14.8,-48.7 -44.5,-146.2 -59.8,-194.9 176.8,-1 328.4,107.3 501.9,120.2 v 4823.5 h 13025.8 c -18.4,17.3 -38.5,32.7 -61.5,44.6 -129.2,45.5 -273.8,24.9 -399.3,81 -156.2,107 -229.8,319.3 -421,376.5 -177.4,-12.2 -350,-90 -529.5,-59.8 -101.7,10.6 -107,121.8 -140.3,194.9 -122.9,-11.2 -239.9,16.4 -337.9,92.1 -68.3,-30.7 -161,-111.2 -232.4,-42.4 -130.9,116.5 -130.9,315.6 -244.7,444.3 -159.9,72 -347.9,83.2 -484.5,203.9 -208.7,168.4 -445.4,293.9 -677.8,424.7 -9,32.8 -25.8,97.2 -35.3,134.3"
         style="fill:#ff0000;fill-opacity:1;fill-rule:evenodd;stroke:none"
         transform="matrix(0.13333333,0,0,-0.13333333,0,5334.6667)" />
      
    </g>
  </g>
</svg>
