<?xml version="1.0" encoding="UTF-8" standalone="no"?>
<!-- Created with Inkscape (http://www.inkscape.org/) -->

<svg
   version="1.1"
   id="svg1"
   width="5333.3335"
   height="5333.3335"
   viewBox="0 0 5333.3335 5333.3335"
   xmlns="http://www.w3.org/2000/svg">
  <g
     id="g1"
     transform="matrix(0.13333333,0,0,-0.13333333,0,5333.3333)">
    <g
       id="group-R5"> 
      <path
         id="path3"
         d="m 6464.05,24292.2 c -5.76,6.5 -12.25,13.6 -19.72,22.3 -121.4,140.6 -141.04,298.9 -144.53,478.8 -1.37,71 3,139.9 8.93,210.6 1.13,13.4 3.5,33.8 4.53,52.4 -5.74,2.7 -11.29,5.2 -15.54,7.1 l -39.34,17.5 c -80.9,36.1 -125.36,120 -109.75,207.1 l 7.6,42.4 c 14.88,83.1 10.23,142.4 -17.14,221.5 -27.97,80.9 -63.84,157.6 -90.36,239.9 -42.46,131.6 -62.16,262.4 -63.39,400.7 -0.65,73.1 6.32,146 15.87,218.4 12.14,92 33.7,196.6 33.35,288.7 -0.21,53.8 -17.47,99.6 -36.13,149.3 -27.67,73.6 -52.04,141.9 -65.14,220.2 -6.34,37.9 -8.71,76.3 -7.2,114.7 8.56,218.3 139.16,397.1 237.11,583.3 100.55,191 150.22,362.4 129.62,580.8 -9.13,96.7 -24.3,211.7 -8.6,307.9 10.92,67 29.44,132.2 40.28,201.1 13.43,85.2 13.63,173.9 28.42,256.3 19.01,105.8 69.67,196.2 124.02,287.5 204.53,343.5 354.53,719.8 502.01,1090.4 196.65,494.2 283.74,999.3 310.24,1528.1 9.5,189.6 9.99,378.5 15.54,568.1 3.95,134.5 9.23,305.8 63.34,430 l 72.1,165.6 179.44,-19.9 c 82.57,-9.1 159.12,-36.9 229.52,-80.7 82.47,-51.2 134,-110.6 194.81,-169.6 40.17,153.3 196.74,270.1 312.23,367 l 83.83,70.4 108.37,-15.5 c 140.81,-20.1 252.33,-55.5 378.77,-119 86.22,-43.2 153.24,-77.8 247.8,-103.6 573.37,-156.4 1148.66,-308 1723.86,-457.5 386.2,-100.4 773,-199.9 1160.8,-294.2 139,-33.7 278.2,-67.1 417.9,-97.4 57.9,-12.6 138.9,-33.1 197.7,-37.6 124.4,-3.1 236.1,11.2 364.2,-3.2 227.2,-25.3 438.4,-96.2 662.2,-129.7 939,-140.6 1880.2,-265.3 2822,-385 496.3,-63 993.7,-61.7 1491.6,-98.5 804.1,-59.4 1615.4,-137.5 2422,-83.4 4.7,13.2 10.5,26.5 18.2,40 50.8,87.7 122.3,114.5 208.5,149.8 l 155.5,63.6 115.3,-122.1 c 123.9,-131 137.1,-230.2 195.8,-389.7 1.6,-4.4 3.3,-9 5,-13.8 30.5,-8.7 60.9,-17.6 92.8,-29.4 74.8,-27.7 110,-39 185.7,-26.7 109.2,17.8 192.2,18.3 301.6,-6.7 174.7,-39.9 361.3,-132.7 519,-215.9 38.6,-20.4 66.8,-40.1 96.6,-62.3 15,3.7 29.9,8.1 41.6,11.3 227.7,62.8 438.2,47.9 664.1,-15.5 33.2,-9.3 83.9,-31.2 115.7,-46.8 39.8,-19.5 75.5,-37.9 108.6,-65.8 l 179.9,-115.5 -107,-199.6 c -99.7,-185.8 -217.8,-227.3 -389.1,-322.3 -52.8,-29.3 -112.9,-72.2 -174.7,-123.4 l 95.6,19.9 36.8,-236.8 c 69.9,68.7 163,117.9 255.8,161.5 54.6,25.7 132.7,60.1 179,100.5 50.9,44.3 95.9,87.1 150.2,129.1 l 152.1,117.5 150.4,-119.8 c 51,-40.7 90.5,-81.6 118.5,-130.7 32.1,4.1 63.4,5.9 104.7,2.7 105.8,-8.1 191.8,-42.2 278.7,-101.4 40.7,-27.7 71.7,-58.5 119.5,-67.4 40,4 98.3,20.7 134.8,30.4 86.7,23.1 172.9,49.5 258.4,76.5 147.9,46.6 294.4,97.7 442.1,144.3 l 174.3,54.9 133.3,-197.1 c 7.6,-11.1 15.5,-24 23.6,-35.6 33.7,-12 74.3,-25.4 108.3,-29.3 43.8,-4.9 70,-1.4 117.1,-17.6 83.5,-28.8 128.7,-83.5 176.9,-152.2 52.7,-75 104.6,-149.7 159,-223.7 l 240,-326.4 c 9.2,-12.5 10.5,-28 3.5,-41.8 -7,-13.8 -20.3,-21.9 -35.7,-21.9 h -9.3 c 22.3,-17.7 42.4,-36.1 59.7,-55.2 158.4,-175.4 205.2,-487.9 169.7,-770.2 6,0.7 12.1,1.3 18.1,1.9 l 120.3,11.1 82,-88.7 c 215.3,-232.6 368.7,-791.1 329.9,-1104.1 -13.1,-105.9 -46.2,-191.5 -104.2,-280.3 -36.4,-55.8 -67.1,-90.9 -84.7,-156.9 -15.4,-58.1 -35.9,-113.6 -56.3,-168.9 89.3,-13.6 143.5,-37.1 208.2,-81.6 54.5,13 133.9,44 174.5,59.7 34.2,23 102.7,111.3 130,142.8 80.3,92.7 169.7,159.7 272.5,224.8 74,46.8 151,90.7 215.7,150.3 84.9,78.3 149,149.3 244,220.4 234.6,175.3 243.1,243.1 166,522.9 l -45.1,163.8 137.6,99.7 c 269.7,195.4 607.3,164.3 911.3,244.4 45,11.8 140.4,55.3 188.1,91.4 -4.3,12.3 -9.9,25.4 -13.3,34.4 -20,53.1 -36.6,104.2 -45.1,160.6 -27.8,185.3 41.7,349 151,495.2 39.8,53.2 72.7,114.3 104.5,172.7 132.6,243.3 259.4,449.1 541.5,537.2 l 4.2,1.3 1124.6,307.4 c 49.4,15 128.5,36.7 190.5,59.6 35,86.4 97.4,152.6 175.8,219.4 23.9,20.4 52,40 75.6,60.2 9.5,18.4 18.8,45.4 25.3,63 62.1,166.6 103.7,332 126.6,508.2 19.4,148.6 24.9,297.9 40.2,446.7 21.7,210.1 64.3,397.4 150.1,591.4 l 43.4,98.1 101.5,34.7 c 92.3,31.5 178.9,38.9 258.2,7.7 168.5,80.4 356.3,111.7 527.2,17.6 249.2,-137.1 318.1,-467.7 399.6,-717.3 28.3,-86.5 55.8,-173.2 83.6,-259.9 5.8,-18.3 12,-39.8 18.9,-59.9 50.6,-42.3 90.7,-84.2 136.3,-138.7 43.2,-51.7 56.9,-87 86.2,-141.3 31.6,-35.7 96.6,-57.1 138,-89.4 138.3,-107.7 157.6,-270.5 154.5,-433.8 l -2.4,-121.9 -98.7,-71.7 c -197.3,-143.1 -181.9,-98.1 -282.7,-321.6 l -6.4,-14.1 -328.9,-535.8 -555.9,-275.9 c -34.6,-56.7 -44.1,-225.6 -45.1,-276.2 -3.3,-158.7 20.6,-326.7 11.6,-481.1 -0.5,-7.5 -1.1,-16.5 -1.5,-25.4 7.8,-7.9 15.9,-15.7 22.7,-22.6 42.7,-42.9 81.2,-87.4 119.2,-134.4 9.7,-12.1 24.1,-31.8 36.3,-44.1 25.3,-6.7 76.1,-8 98,-8.6 l 149.9,-4.1 c 73.3,-2.1 134.9,-44.9 162.2,-113 27.3,-68.1 12.4,-141.6 -39.2,-193.7 l -105.5,-106.5 c -61.2,-61.8 -93.4,-128.5 -139.8,-200.1 -50.3,-77.8 -106.7,-141.5 -181,-197.5 l -292.2,-220 c -11.9,-8.9 -26.6,-10.6 -40.2,-4.6 -13.7,5.9 -22.3,17.9 -23.8,32.7 l -5.9,61.2 -93.7,-162.3 c -112.4,-194.4 -303.9,-332.9 -487.8,-454.6 -108.3,-71.8 -221.8,-118.6 -343,-163.2 -11.7,-4.3 -24.9,-9 -39,-14.1 73,-268.6 33.3,-518.5 -60.5,-778.2 -60,-166 -160.4,-364.7 -182.8,-537.9 -7.4,-57.1 -2.1,-104.7 3,-161.4 10,-112.1 5.5,-205.3 -22.4,-315.4 -29.2,-115 -81.7,-215.5 -113.7,-326.1 -37.2,-128.6 -56,-229.1 -110.4,-356.4 l -5.9,-13.8 -61.1,-104.9 c 47.5,-55.7 79.5,-125.5 113.3,-201.4 147.2,-330.3 476.6,-722.7 408.5,-1103.4 -16.5,-92.3 -52.2,-171.8 -115,-241.8 -41.8,-46.4 -96.7,-82.6 -134,-130.2 -47.4,-60.5 -105.7,-135.6 -140.7,-204.6 -24.9,-48.9 -27.4,-79.7 -71.6,-127.5 -52.7,-57 -104.2,-71.6 -173.4,-91.7 -67.7,-19.6 -134.1,-43.7 -199.7,-69.2 -47,-18.2 -81.2,-46.2 -113.6,-84.3 -64.3,-75.8 -115.7,-178.9 -169.9,-263.4 -90.5,-141.3 -193,-256.9 -341.4,-339.7 -6.8,-3.8 -13.3,-8.1 -19.5,-12.8 -88.3,-67.3 -171,-272.4 -216.8,-372.4 -113.5,-248.2 -232.1,-466.6 -438.1,-652.7 -45.9,-41.4 -85,-64.7 -131.5,-99.1 -14.5,-18.2 -31.9,-52.7 -42,-71.8 -39.2,-74.2 -81.3,-145.8 -126.6,-216.4 -27.3,-42.4 -56.4,-84.8 -81.6,-128.5 -86.7,-151.1 -111.4,-401.7 -131.1,-570.2 -40.8,-348.2 77.8,-637.8 248.4,-933 173.8,-300.6 402.7,-604.2 476,-948.7 26.8,-125.7 77.1,-238.3 136.3,-351.7 72.8,-139.4 151.5,-272.7 214.9,-417.3 83.3,-189.9 134,-381.2 152.7,-588 48,-529.7 59.6,-1429.9 -593.5,-1588.7 l -145.7,-35.5 c -71.3,-17.3 -141.9,7.9 -186.1,66.4 -44.3,58.5 -49.2,133.3 -13.1,197.2 l 54.5,96.4 -54.4,15.3 -35.4,136 c -19.5,74.9 -53.3,210.1 -93.8,274 -4.3,6.6 -10.2,16.1 -16.2,24 -61.1,19.3 -100.9,28.7 -164.1,66.9 -72.5,44 -129.4,98.4 -171.4,172.5 -28.5,50.4 -44.1,105.4 -77,153 -35.6,51.6 -75.3,99.9 -116.6,147.1 -103.9,118.7 -209,227.7 -302.9,355.8 -136,185.4 -235.8,385.6 -314.4,601.3 -30,82.2 -42.2,161.3 -32.7,248.5 7.1,66.1 25.2,122.7 25.2,190.5 0,34.8 -2.7,265.2 -29.1,292.5 -21.7,22.4 -71.4,52.3 -97.7,71.2 -85.9,61.4 -160.4,128.4 -230.7,207.4 -88.1,99.1 -175.3,230.3 -300.8,277.7 -175.9,-246.1 -385.4,-413.4 -739.7,-369.8 l -114.2,14 -62.1,96.8 c -31.7,49.3 -58,100 -79.8,154.3 -6.3,15.6 -12.4,34.6 -19.2,51.1 -28.6,17.4 -83.8,37.7 -108.7,47.1 -359.8,134.5 -623.9,66.3 -969.7,-68.9 -128.7,-50.3 -262.5,-60.1 -396.7,-68.1 -1.7,-100.9 -28.3,-200 -88.7,-313.5 -11.2,-21 -25.6,-46.6 -39.2,-72.4 24.1,-63.7 30.2,-133.5 28.3,-209.4 l -2.9,-111.9 -268,-220.2 -112.7,21.3 c -89.8,17.1 -169.9,39.5 -217.5,117.7 -3.2,2.1 -6.4,4.1 -9.5,6.1 -24.3,-14.1 -52.3,-33.5 -72,-45.1 -81.1,-47.4 -163.2,-82.2 -254.6,-104.9 -238.6,-59.4 -491.2,-56.6 -683.7,115.8 -62.1,55.6 -108.9,121.3 -148.7,194 -2.7,5 -5.4,10.1 -8,15.3 -92.6,4.4 -175.7,-12.6 -280.8,-12.6 -183.5,0 -353.3,25 -533.3,55.3 -93.2,15.8 -186.2,31.2 -280.4,39.8 -96.8,-4 -411.5,-135 -489.9,-189.4 -169.1,-117.4 -302.7,-292 -473.9,-415.5 -259.7,-187.2 -343.7,-247.7 -573.5,-254.3 -51.5,-132.4 -136.8,-243.4 -227,-353.2 -74.9,-91.1 -158.4,-186.2 -212.3,-291.4 -47.4,-92.4 -34.2,-273.4 -24.1,-373.7 14,-138.9 39.4,-276.7 52,-415.6 15,-165.5 9.7,-350.8 -136.4,-461.5 -140.3,-106.3 -308.5,-68.3 -452,5.8 -15.8,8.2 -32.4,14.6 -49.3,20 -96.1,30.8 -206.5,42.2 -306.5,69.6 -182.1,49.9 -336.9,133 -484,251.3 -66.5,53.5 -123.2,116.7 -170.6,187.5 -94.3,141.1 -144.1,299.4 -188.4,461.4 -33.4,121.9 -73,299.5 -147.9,402 l -2.3,3.2 -315,462.2 -6.6,12.7 c -56.3,107.7 -101,216.9 -136.7,332.9 -22.3,72.5 -39.8,147.6 -64.1,219.1 -50.6,149 -150.7,244.3 -270.2,343 -99.2,82.1 -291.6,99.9 -455.7,102.5 -86.1,-196.5 -217.9,-378.2 -405.8,-482 l -71.9,-39.7 -81.4,11.6 c -322.4,46.3 -755.9,448.7 -906.3,731 -10.6,19.9 -20.2,40.2 -29.1,60.9 -40.2,94.2 -61,191.4 -80,291.4 -13.4,70.3 -25.9,145 -50.5,212.3 -29.6,81.2 -75.2,136.4 -135.9,196.4 -102.3,101.1 -196.9,181.3 -281.3,301.7 -34.4,49.1 -67.8,125.6 -105.9,166 -14.2,15.1 -26.4,25.1 -42.2,38.1 -54.4,44.3 -94.2,93.6 -135.3,150.1 -21.7,29.8 -46.7,51.3 -79.4,68.2 -118,60.8 -374,69 -511.2,91 -13.5,2.2 -33.3,5.4 -53.9,7.9 -11.2,-20.6 -25.3,-40.9 -45.2,-63.3 -74.8,-84.1 -177.7,-122.5 -286.5,-139.1 -135.9,-20.7 -289.7,-11.7 -426,0.8 -246.7,22.5 -495.9,64.5 -739.4,109.4 -397.4,73.3 -687.3,202.6 -1027.9,408.8 l -4.3,2.6 -1212.58,804.2 -3.45,2.4 c -112.22,80.2 -229.62,167.3 -290.29,289.2 -153.66,35.6 -328.61,41.5 -480.49,53.2 -165.13,12.8 -330.1,30.5 -489.75,76.6 -123.05,35.6 -231.25,95.1 -298.7,208.3 -74.25,124.5 -64.44,258.7 -83.18,396.1 -16.78,123 -53.46,205.9 -132.9,300.2 -97.57,115.7 -202.42,209 -293.26,335 -39.45,54.6 -65.95,83.6 -121.21,119.8 -64.32,42.1 -117.38,80.2 -172.69,134.8 -79.08,78.2 -169.92,173.9 -261.61,237.1 -104.8,72.2 -253.21,131.9 -369.13,184.6 l -134.81,61.1 -8.53,147.8 c -5.22,90.5 0.39,177.6 8.42,267.6 4.69,52.4 11.44,110.6 7.48,163.1 -1.65,21.9 -5.44,42.7 -13.2,63.2 l -336.47,890.4 -1.75,5.3 c -48.12,147.5 -87.14,299.5 -14.25,446.7 14.42,29.1 31.07,52.3 46.8,75.9"
         style="fill:#e6e6e6;fill-opacity:1;fill-rule:evenodd;stroke:none" />
      <path
         id="path4"
         d="m 8370.46,32528.5 c -244.78,0 -267.08,11.5 -427.25,145.1 -109.73,91.5 -193.45,228.5 -350.53,245.9 -117.59,-269.9 89.48,-1323.9 -386.09,-2519 -158.09,-397.3 -311.19,-775.9 -519.15,-1125.2 -132.67,-222.8 -79.15,-191.3 -120.92,-456.6 -41.35,-262.5 -58.75,-140.9 -29.8,-447.8 62.37,-661.1 -415.95,-937.7 -361.79,-1261.4 24.83,-148.4 103.98,-241.9 104.62,-408.9 0.59,-154.7 -50.73,-336.2 -49.23,-506 3.99,-450.4 233.83,-534.7 167.06,-907.4 234.72,-104.5 141.93,-208.3 147.38,-489.2 7.3,-376.7 115.56,-272 194.94,-499.1 -72.93,-222.6 -177.74,-139.4 -75.29,-453.2 l 334.5,-885.2 c 66.79,-176.6 -0.31,-340.9 12.7,-566.4 402.98,-182.9 414.61,-186.7 701.71,-470.4 123.72,-122.3 184.68,-97.5 320.37,-285.6 191.62,-265.6 417.24,-357 470.22,-745.4 32.22,-236.2 -10.49,-339.2 207.14,-402.1 338.92,-97.9 734.69,-50.1 1054.24,-153 127.28,-68.8 -66.04,-54.3 280.71,-302 l 1204.8,-799 c 295.6,-179 550.3,-304.5 945.5,-377.4 1885,-347.7 869.8,193.7 1545.4,85.2 296.6,-47.6 579.9,-23.4 749.8,-256.9 85.6,-117.7 86.2,-88.6 157.6,-164.3 61.8,-65.5 85.2,-132 128.3,-193.5 150.5,-214.7 350.8,-291.4 446.8,-554.8 65.2,-178.8 61,-374.4 145.7,-533.3 96,-180.3 465.9,-566.5 724.8,-603.6 172,95 289.1,299.1 353.4,511.6 277.3,4.2 588.4,2.8 782.7,-157.7 452.1,-373.7 295.8,-517.9 532,-970.5 l 304.7,-447 c 207.8,-284.6 161.8,-762.7 462.5,-1004.5 343.8,-276.4 584.2,-203.3 798.8,-314.1 506.4,-261.6 7.6,705.3 229.9,1139 152.8,298 458.3,486 460.8,781.9 337.2,-16.8 333.9,-7.1 626.8,204.1 155.4,112 306.2,299 477.5,417.9 115,79.9 508.3,244.9 647.1,232.6 273.8,-24.3 491,-94.5 796.2,-94.5 196.9,0 240.2,38.8 440.1,-8.5 81.5,-133.4 140,-431.3 621.9,-311.3 299.6,74.6 306.4,278.6 569.3,83.1 77.5,-57.6 -19.2,-33.3 89.2,-53.9 l 92.9,76.4 c 7.1,276.9 -149.1,36 39.6,390.6 87.7,164.9 65.8,270.7 20,418.6 207,32 432.9,13.7 592.5,76.1 397.9,155.5 719.5,229.1 1144.7,70.1 304.1,-113.7 200.7,-151.2 328,-349.6 319.7,-39.2 463.2,185.4 590.1,389.2 311.7,12.6 466.9,-223.6 603.7,-377.4 290.4,-326.6 419.4,-144.1 419.4,-733.9 0,-175.7 -58.8,-214 -7.3,-355.2 218.7,-600.2 495,-744.5 705.3,-1048.7 86.5,-125.3 60.9,-186.8 173.9,-255.3 117.5,-71.2 158,-8.2 260.1,-169.2 54.9,-86.7 94,-228.4 124,-343.5 l 199.2,-56.2 c 2,-332 -1,-43.5 -114,-243.3 451.9,109.9 452.4,831.9 407.4,1328.6 -54.9,605.7 -398.3,853.1 -499.5,1328.1 -124.4,584.2 -828.8,1101 -728.2,1961.2 81.4,695.4 154.5,600.7 366.1,1001.1 98.3,186 105.1,129.2 225.9,238.3 400.6,361.7 412.8,898.9 719.1,1069.9 320.9,179.1 320.6,572 655.8,702 485,187.9 114.1,-52.6 481.2,415.6 92.7,118.4 175.5,123.3 200.7,264 47.6,266 -274.6,698.9 -391.2,960.6 -119.4,267.9 -94.3,93.7 -214.6,250.6 47.7,104.7 -5.4,-5.6 47.9,61.2 l 118.9,204.4 c 63.9,149.3 56.4,175.9 100.4,328.1 30.5,105.5 83.3,206.8 111.5,318.2 49,193.3 -9.9,263.7 13.9,448 51.5,398.1 388.3,760.3 243.4,1243 -41.9,139.5 -61.9,-19.1 -48.2,174.4 130.4,92.7 344.8,121 537.9,248.9 169.2,112 326.8,227.4 410.8,372.9 l -139.6,35.8 c 38.7,126.3 241.6,248.9 379.1,335 98,61.4 134.7,125.5 264.4,169.1 l 16.7,-173.8 c 143.7,108.2 147.6,226.3 294.1,374.3 -279.9,7.7 -238.2,75.8 -420.6,259.4 -87.8,88.4 -99.7,101.8 -92,234.8 10.9,187.8 -86.4,764.6 131.4,943.8 l 530.6,263.3 284,462.6 c 125.7,278.6 137.5,256.1 362.1,419.1 6.2,322.3 -104.1,197.2 -241.6,368.8 -33.2,41.4 -33.3,77.9 -80.1,133.9 -213.2,255 -95,-38 -283.7,539.5 -119.6,366.2 -185,749.9 -592.1,552.9 -234.9,-113.6 -102,44.5 -280.8,-16.6 -228.7,-517.1 -57,-850.5 -311.4,-1532.9 -59.3,-159 -69.7,-137.2 -171.6,-224 -274.4,-233.9 101.3,-156.2 -457.1,-328 l -1123.9,-307.2 c -293.3,-91.6 -358.6,-403.1 -522.8,-622.8 -269.6,-360.3 66.6,-450.4 -74.1,-672.5 -45.4,-71.7 -222.8,-168.3 -340.4,-199.2 -281.7,-74.2 -626.3,-58.4 -830,-205.9 104.6,-379.6 63.6,-545.6 -255.4,-784.2 -111.3,-83.3 -124,-111.4 -224.8,-204.4 -158,-145.6 -326.9,-191.3 -469,-355.3 -69.9,-80.7 -143,-178.8 -222,-209.1 -459.8,-176.3 -296.6,-24.6 -517.7,7.1 -72.5,10.4 -178.6,4 -268.1,22.2 9.6,159.3 86,287.8 129.4,451.2 52.7,198.2 159.6,219.3 182.6,404.3 34.7,279.5 -126.5,756.2 -266.6,907.6 -379.5,-35 -82.8,-324.8 -500.5,-299.7 -2.8,180.7 35.9,120.5 115.1,247 139,222 157.7,718.7 -6.7,900.7 -80.8,89.5 -328.5,182.9 -478,238.8 -80.9,30.2 -200,71.6 -148.4,169.7 49,93.1 240.2,56 352.7,56 -327.8,445.7 -91.7,208 -459.9,342.1 -72.6,26.4 -89.3,64.9 -130,123.2 l -31.6,46.7 c -178.1,-56.2 -804.5,-276.4 -926.6,-262.4 -200,22.9 -225,156.1 -399.3,169.4 -110.4,8.5 -131.1,-41 -218.3,6.6 -119.5,65.3 -11.5,72.6 -138.9,174.1 -167.6,-129.6 -114.5,-135.1 -374.8,-257.4 -339,-159.3 -176.3,-194.6 -266.5,-329.8 -117.1,103.8 -166.2,100.5 -367.9,102.3 29.5,163.2 57.8,85.8 35.1,232.2 -232.1,-48.2 -288.9,-175.6 -574.3,-176.6 115.8,269.4 476.7,642.1 737,786.6 142.8,79.2 226.7,102.1 292,223.9 -21.5,13.9 -0.8,9.5 -73.5,45.1 -4.4,2.2 -65.9,28.6 -73.9,30.9 -190.7,53.5 -354.1,64.5 -532.8,15.2 -226.9,-62.6 -168.1,-8.4 -317.6,70.5 -737.2,389 -557.3,80.8 -977.1,236.2 -203.5,75.3 -176.3,8.5 -242.6,188.4 -56.6,153.7 -58.2,215.4 -143.9,306 -146.8,-60.1 -53,-16.5 -138.4,-194.6 -873.8,-78.2 -1744,5.9 -2621.2,70.7 -519.9,38.4 -972.4,32.2 -1504.4,99.8 -948.7,120.5 -1889.7,245.3 -2827.4,385.7 -244.4,36.6 -418.1,102.3 -653.1,128.6 -125.5,14 -302.9,-0.6 -349.7,1.9 -268.4,14.4 -2979.41,738.9 -3552.04,895.1 -272.97,74.5 -308.23,175.2 -596.75,216.4 -421.02,-353.5 -147.55,-186.6 -143.25,-563.6"
         style="fill:#ffffff;fill-opacity:1;fill-rule:nonzero;stroke:none" />
      <path
         id="path5"
         d="m 7513.55,31720.5 h 7047.65 c -299.1,41.9 -597.6,84.9 -895.9,129.6 -244.4,36.6 -418.1,102.3 -653.1,128.6 -125.5,14 -302.9,-0.6 -349.7,1.9 -268.4,14.4 -2979.41,738.9 -3552.04,895.1 -272.97,74.5 -308.23,175.2 -596.75,216.4 -421.02,-353.5 -147.55,-186.6 -143.25,-563.6 -244.78,0 -267.08,11.5 -427.25,145.1 -109.73,91.5 -193.45,228.5 -350.53,245.9 -70.76,-162.4 -24.01,-608.8 -79.13,-1199 z m 24755.15,0 h 857.7 c -86.5,235.7 -202.6,393.4 -494.8,252 -234.9,-113.6 -102,44.5 -280.8,-16.6 -36.4,-82.4 -62.7,-160.2 -82.1,-235.4"
         style="fill:#bf1238;fill-opacity:1;fill-rule:nonzero;stroke:none" />
      <path
         id="path6"
         d="m 33576.6,30169 h -1742.3 c -208.6,-197.4 109.4,-134 -423.6,-298 l -1123.9,-307.2 c -293.3,-91.6 -358.6,-403.1 -522.8,-622.8 -102.4,-136.8 -117.4,-234.7 -104.3,-315.6 h 2850.2 c -6.6,229.9 6.9,495.5 142.5,607 l 530.6,263.3 284,462.6 c 46.7,103.5 77.6,165.4 109.6,210.7 z m -11025.9,0 h -15437 c -127.36,-313.2 -259.08,-612.9 -426.26,-893.7 -132.67,-222.8 -79.15,-191.3 -120.92,-456.6 -18.31,-116.2 -31.92,-157.2 -38.89,-193.3 H 26328.7 c -11.8,133.3 -48.2,253.7 -112.9,325.4 -80.8,89.5 -328.5,182.9 -478,238.8 -80.9,30.2 -200,71.6 -148.4,169.7 49,93.1 240.2,56 352.7,56 -327.8,445.7 -91.7,208 -459.9,342.1 -72.6,26.4 -89.3,64.9 -130,123.2 l -31.6,46.7 c -178.1,-56.2 -804.5,-276.4 -926.6,-262.4 -200,22.9 -225,156.1 -399.3,169.4 -110.4,8.5 -131.1,-41 -218.3,6.6 -119.5,65.3 -11.5,72.6 -138.9,174.1 -167.6,-129.6 -114.5,-135.1 -374.8,-257.4 -339,-159.3 -176.3,-194.6 -266.5,-329.8 -117.1,103.8 -166.2,100.5 -367.9,102.3 29.5,163.2 57.8,85.8 35.1,232.2 -232.1,-48.2 -288.9,-175.6 -574.3,-176.6 78,181.3 267,409.4 461.6,583.3"
         style="fill:#bf1238;fill-opacity:1;fill-rule:nonzero;stroke:none" />
      <path
         id="path7"
         d="m 32081,27094.9 h -3796.2 c -6.8,-5.2 -13.7,-10.5 -20.7,-15.7 -111.3,-83.3 -124,-111.4 -224.8,-204.4 -158,-145.6 -326.9,-191.3 -469,-355.3 -69.9,-80.7 -143,-178.8 -222,-209.1 -459.8,-176.3 -296.6,-24.6 -517.7,7.1 -72.5,10.4 -178.6,4 -268.1,22.2 9.6,159.3 86,287.8 129.4,451.2 41.4,155.4 116,201.9 157.4,304 H 6177.59 c 27.36,-140.1 101.34,-232.8 101.96,-394.3 0.59,-154.7 -50.73,-336.2 -49.23,-506 2.85,-321.7 120.89,-456.7 163.81,-643.3 H 31250.5 c 82.9,216.6 146.8,443.7 67.9,706.5 -41.9,139.5 -61.9,-19.1 -48.2,174.4 130.4,92.7 344.8,121 537.9,248.9 169.2,112 326.8,227.4 410.8,372.9 l -139.6,35.8 c 0.5,1.7 1.1,3.4 1.7,5.1"
         style="fill:#bf1238;fill-opacity:1;fill-rule:nonzero;stroke:none" />
      <path
         id="path8"
         d="M 30880.8,23999.8 H 6624.75 c 5.25,-37.8 17.67,-86.8 39.66,-154.1 l 334.5,-885.2 c 60.51,-160 11.12,-309.9 10.97,-504.3 H 31290.1 c 35.8,266.9 -278.3,690.5 -393.1,948.1 -119.4,267.9 -94.3,93.7 -214.6,250.6 47.7,104.7 -5.4,-5.6 47.9,61.2 l 118.9,204.4 c 13.3,31 23.4,56.6 31.6,79.3"
         style="fill:#bf1238;fill-opacity:1;fill-rule:nonzero;stroke:none" />
      <path
         id="path9"
         d="M 29771.7,20883.6 H 8505.12 c 29.93,-229.8 -8.87,-330.9 205.93,-393 338.92,-97.9 734.69,-50.1 1054.24,-153 127.28,-68.8 -66.04,-54.3 280.71,-302 l 1048.9,-695.6 h 17667.6 c 56.4,127.3 129.9,199.9 243,413.9 98.3,186 105.1,129.2 225.9,238.3 304.6,275.1 384.7,651.6 540.3,891.4"
         style="fill:#bf1238;fill-opacity:1;fill-rule:nonzero;stroke:none" />
      <path
         id="path10"
         d="m 28841.6,17809.5 h -13631 c 4.7,-11.2 9.3,-22.7 13.6,-34.6 65.2,-178.8 61,-374.4 145.7,-533.3 96,-180.3 465.9,-566.5 724.8,-603.6 172,95 289.1,299.1 353.4,511.6 277.3,4.2 588.4,2.8 782.7,-157.7 359.3,-297 334.4,-449 427.5,-726 h 2826.6 c 43.5,29.2 94.8,66.8 161.4,114.9 155.4,112 306.2,299 477.5,417.9 115,79.9 508.3,244.9 647.1,232.6 273.8,-24.3 491,-94.5 796.2,-94.5 196.9,0 240.2,38.8 440.1,-8.5 81.5,-133.4 140,-431.3 621.9,-311.3 299.6,74.6 306.4,278.6 569.3,83.1 77.5,-57.6 -19.2,-33.3 89.2,-53.9 l 92.9,76.4 c 7.1,276.9 -149.1,36 39.6,390.6 87.7,164.9 65.8,270.7 20,418.6 207,32 432.9,13.7 592.5,76.1 397.9,155.5 719.5,229.1 1144.7,70.1 304.1,-113.7 200.7,-151.2 328,-349.6 319.7,-39.2 463.2,185.4 590.1,389.2 311.7,12.6 466.9,-223.6 603.7,-377.4 290.4,-326.6 419.4,-144.1 419.4,-733.9 0,-169.4 -54.6,-211.1 -12.4,-340.4 h 1480.2 c -89.5,164.1 -175.8,324.4 -218.7,525.7 -71.5,335.6 -334.3,648.9 -526,1017.9"
         style="fill:#bf1238;fill-opacity:1;fill-rule:nonzero;stroke:none" />
      <path
         id="path11"
         d="m 29857,14693.3 h -563.7 c 33.5,-79.9 59.7,-176.2 81.2,-258.9 l 199.2,-56.2 c 2,-332 -1,-43.5 -114,-243.3 237.4,57.7 350.1,284.3 397.3,558.4 z m -10324.2,0 H 18416 c 31.6,-45.5 68.8,-87.1 114,-123.4 343.8,-276.4 584.2,-203.3 798.8,-314.1 292.7,-151.2 249.6,108 204,437.5"
         style="fill:#bf1238;fill-opacity:1;fill-rule:nonzero;stroke:none" />
      <path
         id="path12"
         d="m 17989.5,22462.8 v 8902.3 c -516.7,37.8 -967.4,32.1 -1496.8,99.3 -948.7,120.5 -1889.7,245.3 -2827.4,385.7 -244.4,36.6 -418.1,102.3 -653.1,128.6 -125.5,14 -302.9,-0.6 -349.7,1.9 -268.4,14.4 -2979.41,738.9 -3552.04,895.1 -272.97,74.5 -308.23,175.2 -596.75,216.4 -421.02,-353.5 -147.55,-186.6 -143.25,-563.6 -244.78,0 -267.08,11.5 -427.25,145.1 -109.73,91.5 -193.45,228.5 -350.53,245.9 -117.59,-269.9 89.48,-1323.9 -386.09,-2519 -158.09,-397.3 -311.19,-775.9 -519.15,-1125.2 -132.67,-222.8 -79.15,-191.3 -120.92,-456.6 -41.35,-262.5 -58.75,-140.9 -29.8,-447.8 62.37,-661.1 -415.95,-937.7 -361.79,-1261.4 24.83,-148.4 103.98,-241.9 104.62,-408.9 0.59,-154.7 -50.73,-336.2 -49.23,-506 3.99,-450.4 233.83,-534.7 167.06,-907.4 234.72,-104.5 141.93,-208.3 147.38,-489.2 7.3,-376.7 115.56,-272 194.94,-499.1 -72.93,-222.6 -177.74,-139.4 -75.29,-453.2 l 334.5,-885.2 c 59.82,-158.2 12.23,-306.5 11,-497.7 H 17989.5"
         style="fill:#002469;fill-opacity:1;fill-rule:nonzero;stroke:none" />
      <path
         id="path13"
         d="m 8130.43,32318.9 h 327.47 l -263.81,-197.8 102.32,-313.9 -262.65,193.3 -262.65,-193.3 103.46,313.9 -266.08,197.8 h 326.33 l 92.79,286.9 c 5.37,-4 10.61,-7.8 15.75,-11.4 l 87.07,-275.5"
         style="fill:#ffffff;fill-opacity:1;fill-rule:nonzero;stroke:none" />
      <path
         id="path14"
         d="m 10303.3,32318.9 h 327.5 l -263.8,-197.8 102.3,-313.9 -262.7,193.3 -262.64,-193.3 103.44,313.9 -266.01,197.8 h 326.31 l 86.4,267 27.1,-7.2 82.1,-259.8"
         style="fill:#ffffff;fill-opacity:1;fill-rule:nonzero;stroke:none" />
      <path
         id="path15"
         d="m 12582.2,31991.8 60.1,-184.6 -262.6,193.3 -262.7,-193.3 87.8,266.5 c 163.1,-38.3 294,-67.1 377.4,-81.9"
         style="fill:#ffffff;fill-opacity:1;fill-rule:nonzero;stroke:none" />
      <path
         id="path16"
         d="m 15735.6,31213.5 h 327.5 l -263.8,-197.8 102.3,-313.9 -262.7,193.3 -262.6,-193.3 103.5,313.9 -266.1,197.8 h 326.3 l 98.9,305.9 96.7,-305.9"
         style="fill:#ffffff;fill-opacity:1;fill-rule:nonzero;stroke:none" />
      <path
         id="path17"
         d="m 14649.2,30108.1 h 327.4 l -263.8,-197.8 102.4,-313.9 -262.7,193.4 -262.6,-193.4 103.4,313.9 -266.1,197.8 h 326.4 l 98.9,305.9 96.7,-305.9"
         style="fill:#ffffff;fill-opacity:1;fill-rule:nonzero;stroke:none" />
      <path
         id="path18"
         d="m 13562.7,29002.7 h 327.5 l -263.8,-197.8 102.4,-313.9 -262.7,193.3 -262.7,-193.3 103.5,313.9 -266.1,197.8 h 326.3 l 99,305.9 96.6,-305.9"
         style="fill:#ffffff;fill-opacity:1;fill-rule:nonzero;stroke:none" />
      <path
         id="path19"
         d="m 12476.2,27897.3 h 327.5 l -263.7,-197.9 102.3,-313.8 -262.7,193.3 -262.7,-193.3 103.5,313.8 -266.1,197.9 h 326.4 l 98.9,305.9 96.6,-305.9"
         style="fill:#ffffff;fill-opacity:1;fill-rule:nonzero;stroke:none" />
      <path
         id="path20"
         d="m 11389.8,26791.9 h 327.5 l -263.8,-197.8 102.3,-313.9 -262.7,193.3 -262.6,-193.3 103.5,313.9 -266.2,197.8 h 326.4 l 98.9,305.9 96.7,-305.9"
         style="fill:#ffffff;fill-opacity:1;fill-rule:nonzero;stroke:none" />
      <path
         id="path21"
         d="m 10303.4,25686.5 h 327.4 l -263.8,-197.9 102.4,-313.8 -262.7,193.3 -262.69,-193.3 103.49,313.8 -266.11,197.9 h 326.41 l 98.9,305.9 96.7,-305.9"
         style="fill:#ffffff;fill-opacity:1;fill-rule:nonzero;stroke:none" />
      <path
         id="path22"
         d="m 9216.9,24581.1 h 327.48 l -263.82,-197.9 102.33,-313.8 -262.67,193.3 -262.67,-193.3 103.46,313.8 -266.05,197.9 h 326.36 l 98.9,305.9 96.68,-305.9"
         style="fill:#ffffff;fill-opacity:1;fill-rule:nonzero;stroke:none" />
      <path
         id="path23"
         d="m 8130.43,23475.7 h 327.47 l -263.81,-197.9 102.32,-313.8 -262.65,193.3 -262.65,-193.3 103.46,313.8 -266.08,197.9 h 326.33 l 98.94,305.9 96.67,-305.9"
         style="fill:#ffffff;fill-opacity:1;fill-rule:nonzero;stroke:none" />
      <path
         id="path24"
         d="m 10303.3,23475.7 h 327.5 l -263.8,-197.9 102.3,-313.8 -262.7,193.3 -262.64,-193.3 103.44,313.8 -266.01,197.9 h 326.31 l 98.9,305.9 96.7,-305.9"
         style="fill:#ffffff;fill-opacity:1;fill-rule:nonzero;stroke:none" />
      <path
         id="path25"
         d="m 12476.4,23475.7 h 327.4 l -263.8,-197.9 102.3,-313.8 -262.6,193.3 -262.7,-193.3 103.5,313.8 -266.1,197.9 h 326.4 l 98.9,305.9 96.7,-305.9"
         style="fill:#ffffff;fill-opacity:1;fill-rule:nonzero;stroke:none" />
      <path
         id="path26"
         d="m 14649.2,23475.7 h 327.5 l -263.8,-197.9 102.3,-313.8 -262.7,193.3 -262.6,-193.3 103.4,313.8 -266,197.9 h 326.3 l 98.9,305.9 96.7,-305.9"
         style="fill:#ffffff;fill-opacity:1;fill-rule:nonzero;stroke:none" />
      <path
         id="path27"
         d="m 16822.1,23475.7 h 327.5 l -263.8,-197.9 102.3,-313.8 -262.7,193.3 -262.6,-193.3 103.4,313.8 -266,197.9 h 326.3 l 98.9,305.9 96.7,-305.9"
         style="fill:#ffffff;fill-opacity:1;fill-rule:nonzero;stroke:none" />
      <path
         id="path28"
         d="m 11389.8,31213.5 h 327.5 l -263.8,-197.9 102.3,-313.8 -262.6,193.3 -262.7,-193.3 103.5,313.8 -266.1,197.9 h 326.3 l 99,305.9 96.6,-305.9"
         style="fill:#ffffff;fill-opacity:1;fill-rule:nonzero;stroke:none" />
      <path
         id="path29"
         d="m 10303.4,30108.1 h 327.4 l -263.8,-197.9 102.4,-313.9 -262.7,193.4 -262.69,-193.4 103.49,313.9 -266.11,197.9 h 326.41 l 98.9,305.8 96.7,-305.8"
         style="fill:#ffffff;fill-opacity:1;fill-rule:nonzero;stroke:none" />
      <path
         id="path30"
         d="m 9216.95,29002.7 h 327.48 l -263.81,-197.8 102.33,-313.9 -262.68,193.3 -262.67,-193.3 103.47,313.9 -266.05,197.8 h 326.36 l 98.89,305.9 96.68,-305.9"
         style="fill:#ffffff;fill-opacity:1;fill-rule:nonzero;stroke:none" />
      <path
         id="path31"
         d="m 8130.43,27897.3 h 327.47 l -263.81,-197.9 102.38,-313.8 -262.69,193.3 -262.67,-193.3 103.46,313.8 -266.06,197.9 h 326.34 l 98.93,305.8 96.65,-305.8"
         style="fill:#ffffff;fill-opacity:1;fill-rule:nonzero;stroke:none" />
      <path
         id="path32"
         d="m 7044.02,26791.9 h 327.47 l -263.78,-197.8 102.33,-313.9 -262.64,193.3 -262.67,-193.3 103.47,313.9 -266.07,197.8 h 326.34 l 98.93,305.9 96.62,-305.9"
         style="fill:#ffffff;fill-opacity:1;fill-rule:nonzero;stroke:none" />
      <path
         id="path33"
         d="m 9216.84,31213.5 h 327.48 l -263.82,-197.8 102.39,-313.9 -262.67,193.3 -262.67,-193.3 103.46,313.9 -266.08,197.8 h 326.33 l 98.96,305.9 96.62,-305.9"
         style="fill:#ffffff;fill-opacity:1;fill-rule:nonzero;stroke:none" />
      <path
         id="path34"
         d="m 8130.43,30108.1 h 327.47 l -263.81,-197.8 102.32,-313.9 -262.65,193.3 -262.65,-193.3 103.46,313.9 -266.08,197.8 h 326.33 l 98.94,305.9 96.67,-305.9"
         style="fill:#ffffff;fill-opacity:1;fill-rule:nonzero;stroke:none" />
      <path
         id="path35"
         d="m 7043.96,29002.7 h 327.48 l -263.78,-197.8 102.33,-313.9 -262.67,193.3 -262.65,-193.3 103.47,313.9 -204.85,152.3 c 1.41,16.9 2.45,31.8 3.46,45.5 h 261.63 l 98.94,305.9 96.64,-305.9"
         style="fill:#ffffff;fill-opacity:1;fill-rule:nonzero;stroke:none" />
      <path
         id="path36"
         d="m 13562.8,31213.5 h 327.4 l -263.8,-197.8 102.4,-313.9 -262.7,193.3 -262.6,-193.3 103.4,313.9 -266.1,197.8 h 326.4 l 98.9,305.9 96.7,-305.9"
         style="fill:#ffffff;fill-opacity:1;fill-rule:nonzero;stroke:none" />
      <path
         id="path37"
         d="m 12476.3,30108.1 h 327.5 l -263.8,-197.8 102.3,-313.9 -262.6,193.4 -262.7,-193.4 103.5,313.9 -266.1,197.8 h 326.3 l 99,305.9 96.6,-305.9"
         style="fill:#ffffff;fill-opacity:1;fill-rule:nonzero;stroke:none" />
      <path
         id="path38"
         d="m 11389.8,29002.7 h 327.5 l -263.8,-197.8 102.3,-313.9 -262.6,193.3 -262.7,-193.3 103.5,313.9 -266.1,197.8 h 326.3 l 99,305.9 96.6,-305.9"
         style="fill:#ffffff;fill-opacity:1;fill-rule:nonzero;stroke:none" />
      <path
         id="path39"
         d="m 10303.4,27897.3 h 327.4 l -263.8,-197.9 102.4,-313.8 -262.7,193.3 -262.63,-193.3 103.43,313.8 -266.06,197.9 h 326.36 l 98.9,305.9 96.7,-305.9"
         style="fill:#ffffff;fill-opacity:1;fill-rule:nonzero;stroke:none" />
      <path
         id="path40"
         d="m 9216.95,26791.9 h 327.43 l -263.76,-197.8 102.33,-313.9 -262.68,193.3 -262.67,-193.3 103.47,313.9 -266.11,197.8 h 326.36 l 98.95,305.9 96.68,-305.9"
         style="fill:#ffffff;fill-opacity:1;fill-rule:nonzero;stroke:none" />
      <path
         id="path41"
         d="m 8130.46,25686.5 h 327.5 l -263.81,-197.9 102.32,-313.8 -262.67,193.3 -262.66,-193.3 103.47,313.8 -266.07,197.9 h 326.34 l 98.92,305.9 96.66,-305.9"
         style="fill:#ffffff;fill-opacity:1;fill-rule:nonzero;stroke:none" />
      <path
         id="path42"
         d="m 7043.99,24581.1 h 327.48 l -263.81,-197.9 102.36,-313.8 -262.68,193.3 -262.67,-193.3 103.47,313.8 -197.01,146.5 c -7.6,14.5 -14.53,31.2 -20.59,51.4 h 277.87 l 98.93,305.9 96.65,-305.9"
         style="fill:#ffffff;fill-opacity:1;fill-rule:nonzero;stroke:none" />
      <path
         id="path43"
         d="m 11389.8,24581.1 h 327.5 l -263.8,-197.8 102.3,-313.9 -262.7,193.3 -262.6,-193.3 103.5,313.9 -266.2,197.8 h 326.4 l 98.9,305.9 96.7,-305.9"
         style="fill:#ffffff;fill-opacity:1;fill-rule:nonzero;stroke:none" />
      <path
         id="path44"
         d="m 12476.3,25686.6 h 327.5 l -263.8,-197.9 102.3,-313.8 -262.7,193.3 -262.6,-193.3 103.5,313.8 -266.1,197.9 h 326.3 l 98.9,305.8 96.7,-305.8"
         style="fill:#ffffff;fill-opacity:1;fill-rule:nonzero;stroke:none" />
      <path
         id="path45"
         d="m 13562.7,26791.9 h 327.5 l -263.8,-197.8 102.3,-313.9 -262.7,193.3 -262.6,-193.3 103.4,313.9 -266,197.8 h 326.3 l 98.9,305.9 96.7,-305.9"
         style="fill:#ffffff;fill-opacity:1;fill-rule:nonzero;stroke:none" />
      <path
         id="path46"
         d="m 14649.2,27897.3 h 327.4 l -263.7,-197.8 102.3,-313.9 -262.7,193.4 -262.6,-193.4 103.4,313.9 -266.1,197.8 h 326.4 l 98.9,305.9 96.7,-305.9"
         style="fill:#ffffff;fill-opacity:1;fill-rule:nonzero;stroke:none" />
      <path
         id="path47"
         d="m 15735.6,29002.7 h 327.5 l -263.9,-197.9 102.4,-313.8 -262.7,193.3 -262.6,-193.3 103.4,313.8 -266,197.9 h 326.3 l 98.9,305.9 96.7,-305.9"
         style="fill:#ffffff;fill-opacity:1;fill-rule:nonzero;stroke:none" />
      <path
         id="path48"
         d="m 13562.8,24581.1 h 327.4 l -263.8,-197.9 102.4,-313.8 -262.7,193.3 -262.6,-193.3 103.4,313.8 -266.1,197.9 h 326.4 l 98.9,305.9 96.7,-305.9"
         style="fill:#ffffff;fill-opacity:1;fill-rule:nonzero;stroke:none" />
      <path
         id="path49"
         d="m 14649.2,25686.5 h 327.5 l -263.8,-197.9 102.3,-313.8 -262.7,193.3 -262.6,-193.3 103.4,313.8 -266,197.9 h 326.3 l 98.9,305.9 96.7,-305.9"
         style="fill:#ffffff;fill-opacity:1;fill-rule:nonzero;stroke:none" />
      <path
         id="path50"
         d="m 15735.6,26791.9 h 327.5 l -263.7,-197.8 102.3,-313.9 -262.7,193.3 -262.7,-193.3 103.5,313.9 -266.1,197.8 h 326.3 l 99,305.9 96.6,-305.9"
         style="fill:#ffffff;fill-opacity:1;fill-rule:nonzero;stroke:none" />
      <path
         id="path51"
         d="m 15735.6,24581.1 h 327.5 l -263.7,-197.9 102.3,-313.8 -262.7,193.3 -262.7,-193.3 103.5,313.8 -266.1,197.9 h 326.3 l 99,305.9 96.6,-305.9"
         style="fill:#ffffff;fill-opacity:1;fill-rule:nonzero;stroke:none" />
      <path
         id="path52"
         d="m 16822.1,30108.1 h 327.5 l -263.8,-197.8 102.3,-313.9 -262.7,193.4 -262.6,-193.4 103.4,313.9 -266,197.8 h 326.3 l 98.9,305.9 96.7,-305.9"
         style="fill:#ffffff;fill-opacity:1;fill-rule:nonzero;stroke:none" />
      <path
         id="path53"
         d="m 16822.1,27897.3 h 327.5 l -263.8,-197.9 102.3,-313.8 -262.7,193.3 -262.6,-193.3 103.5,313.8 -266.1,197.9 h 326.3 l 98.9,305.9 96.7,-305.9"
         style="fill:#ffffff;fill-opacity:1;fill-rule:nonzero;stroke:none" />
      <path
         id="path54"
         d="m 16822.1,25686.5 h 327.5 l -263.8,-197.9 102.3,-313.8 -262.7,193.3 -262.6,-193.3 103.4,313.8 -266,197.9 h 326.3 l 98.9,305.9 96.7,-305.9"
         style="fill:#ffffff;fill-opacity:1;fill-rule:nonzero;stroke:none" />
    </g>
  </g>
</svg>