<svg width="141" height="67" viewBox="0 0 141 67" fill="none" xmlns="http://www.w3.org/2000/svg">
<path d="M51.3436 34.6756C50.2122 34.8058 49.0827 34.9659 47.9476 35.0503C47.539 35.0807 47.4853 35.3813 47.3892 35.5936C46.6595 37.2046 45.9666 38.8316 45.2629 40.4531C45.0752 40.3957 44.8869 40.3389 44.6985 40.2822C45.2524 38.9953 45.8059 37.7088 46.3601 36.4223C46.4089 36.3091 46.4662 36.1996 46.5126 36.0857C46.8238 35.3197 46.8234 35.3024 46.019 35.2799C45.6966 35.2708 45.6021 35.0422 45.4803 34.8495C45.2481 34.4816 45.1296 34.5507 44.9748 34.9068C44.3416 36.3649 43.6912 37.8155 43.0471 39.2689C42.8486 39.2275 42.6503 39.1861 42.4518 39.145C42.9964 37.8954 43.4897 36.6199 44.1028 35.4038C44.5839 34.45 44.7631 33.7182 43.9655 32.7349C42.0497 30.3726 40.2501 27.9111 38.5213 25.4101C37.84 24.4243 37.1429 24.2566 36.0131 24.4109C32.9033 24.8358 29.7721 25.1084 26.6494 25.4434C26.4637 25.4633 26.2756 25.5415 26.0962 25.5226C24.5683 25.3615 23.8823 26.1823 23.3499 27.5002C22.1595 30.445 20.8249 33.333 19.5291 36.2358C19.3796 36.5707 19.4237 36.7957 19.6322 37.0719C20.7231 38.5169 21.7986 39.973 22.879 41.4249C22.7371 41.5605 22.6409 41.7572 22.4071 41.7693C21.4578 40.5137 20.5022 39.2627 19.5617 38.001C19.1007 37.3827 19.1089 37.3713 18.7849 38.0304C18.6469 38.3111 18.4303 38.395 18.128 38.3839C17.9788 38.3783 17.7605 38.316 17.6828 38.4967C17.6057 38.6761 17.8102 38.7752 17.9021 38.9008C18.8814 40.2404 19.864 41.5775 20.8453 42.9149C20.6912 43.0303 20.5371 43.1461 20.3833 43.2622C19.3118 41.8348 18.2277 40.4162 17.1773 38.9741C16.9251 38.6281 16.6801 38.513 16.2474 38.5626C15.4436 38.6545 14.646 38.8313 13.8297 38.7967C13.4629 38.7882 13.3322 38.6131 13.4468 38.2652C13.621 38.2485 13.7951 38.2319 13.9693 38.2156C14.104 38.3219 14.2275 38.3232 14.3362 38.1784C15.4294 38.045 16.5207 37.895 17.6162 37.7858C18.071 37.7404 18.2844 37.5219 18.4606 37.1189C20.0961 33.3777 21.7449 29.6424 23.4207 25.9188C23.5675 25.5921 23.5353 25.4055 23.3469 25.1528C20.788 21.7263 18.2383 18.293 15.6728 14.8714C15.4508 14.5753 15.3751 14.3359 15.5332 13.9821C17.0225 10.6479 18.4981 7.30754 19.9746 3.96781C20.2901 3.2546 20.593 2.53585 20.9032 1.82035C20.9892 1.62208 21.1166 1.49522 21.3593 1.47011C24.3193 1.16454 27.279 0.854732 30.2377 0.537097C31.7471 0.375019 33.2563 0.207397 34.7615 0.0120548C35.1174 -0.0342533 35.3424 0.0489056 35.5422 0.330341C37.2183 2.69369 38.9672 5.00453 40.721 7.31145C41.6486 8.53177 42.5545 9.76839 43.4719 10.9962C43.655 11.2411 43.624 11.4697 43.5015 11.741C42.1633 14.709 40.8326 17.6802 39.5099 20.655C39.0956 21.5867 38.7229 22.537 38.308 23.4684C38.1647 23.7903 38.1947 24.0336 38.4071 24.317C40.5978 27.2363 42.7771 30.1639 44.959 33.0897C45.1661 33.3673 45.3913 33.635 45.5672 33.9311C45.8991 34.4911 46.3196 34.6548 46.999 34.556C48.4376 34.3466 49.8944 34.2582 51.3436 34.1203C51.3436 34.3058 51.3436 34.4914 51.3436 34.6773V34.6756ZM24.5238 25.0941C25.1952 25.0057 25.6681 24.9353 26.1429 24.8828C29.4306 24.5192 32.7139 24.1053 36.0092 23.8281C37.1044 23.7362 37.8463 23.4466 38.1347 22.3551C38.1713 22.2174 38.2335 22.0854 38.2915 21.9543C38.9843 20.3893 39.6801 18.8249 40.3726 17.2599C41.1728 15.4516 41.9697 13.6416 42.7715 11.834C42.9108 11.5196 42.8733 11.2421 42.6668 10.9665C40.1981 7.66952 37.7294 4.37284 35.2719 1.06768C35.048 0.766681 34.8161 0.647324 34.4342 0.694284C33.2161 0.84397 31.9935 0.956805 30.7738 1.09247C28.1065 1.38923 25.4455 1.776 22.77 1.95015C21.6942 2.01994 21.3172 2.47486 20.9444 3.34624C19.4346 6.87642 17.8487 10.375 16.2892 13.8843C16.167 14.1595 16.119 14.4018 16.3281 14.6816C18.8145 18.0067 21.2911 21.3389 23.7677 24.6714C24.0098 24.9969 24.3022 25.1668 24.5231 25.0944L24.5238 25.0941Z" fill="white"/>
<path d="M96.6125 39.9187C97.3527 38.7988 98.0765 37.6679 98.8411 36.5643C99.15 36.1188 99.2396 35.7024 99.1932 35.1477C99.0469 33.4049 98.7891 31.6762 98.6136 29.9377C98.3716 27.5456 98.0943 25.1572 97.8391 22.7664C97.8026 22.4227 97.5312 22.2668 97.3267 22.0532C96.2957 20.9764 95.104 20.0633 94.1089 18.9506C94.2324 18.811 94.3559 18.6714 94.4793 18.5315C95.5446 19.5239 96.6174 20.5081 97.6702 21.5129C97.9889 21.8171 98.23 21.8576 98.6103 21.5781C101.935 19.1329 105.287 16.7236 108.598 14.2611C109.102 13.8864 109.451 13.9173 109.978 14.1486C113.929 15.8825 117.894 17.5881 121.863 19.2832C122.184 19.4205 122.306 19.5979 122.339 19.9156C122.554 22.0059 122.768 24.0967 123.003 26.1851C123.265 28.5171 123.54 30.8482 123.836 33.176C123.87 33.4424 123.778 33.5393 123.599 33.6691C119.967 36.3086 116.337 38.9498 112.713 41.6008C112.454 41.7906 112.239 41.7736 111.97 41.6566C108.431 40.1186 104.889 38.5865 101.347 37.0531C100.952 36.8819 100.546 36.7296 100.162 36.5363C99.8261 36.3673 99.6482 36.4805 99.4576 36.7665C98.6772 37.9379 97.8757 39.0959 97.0821 40.2585C96.8242 40.2813 96.7139 40.1049 96.6115 39.9177L96.6125 39.9187ZM123.139 32.8169C123.027 31.8337 122.908 30.7901 122.789 29.7466C122.436 26.6371 122.075 23.5282 121.739 20.4168C121.698 20.0382 121.554 19.8471 121.208 19.698C117.382 18.0479 113.561 16.3844 109.741 14.7206C109.39 14.5676 109.123 14.6645 108.826 14.8807C105.492 17.3115 102.145 19.7274 98.8118 22.1602C98.6021 22.3131 98.3172 22.4664 98.4167 22.8476C98.7509 24.1289 98.7321 25.4579 98.9136 26.7617C99.3045 29.5728 99.5679 32.4021 99.8415 35.2279C99.8824 35.6482 100.045 35.8195 100.394 35.9701C103.954 37.5084 107.521 39.0313 111.057 40.6221C111.957 41.0272 112.67 41.0568 113.361 40.3156C113.523 40.1408 113.761 40.0358 113.96 39.892C116.91 37.7533 119.861 35.6147 122.809 33.4721C123.007 33.3283 123.234 33.1838 123.14 32.8169H123.139Z" fill="white"/>
<path d="M79.4357 53.9671C79.4568 53.4779 79.4779 52.9887 79.4989 52.4999C79.6386 52.3926 79.6293 52.2781 79.5161 52.1581C79.538 51.6668 79.2929 51.4713 78.7808 51.5718C78.6066 51.606 78.4679 51.56 78.3165 51.4641C77.8222 51.1514 77.6585 51.3412 77.6309 51.877C77.5509 53.4358 77.433 54.9927 77.3302 56.5496C77.1422 56.5414 76.9545 56.5339 76.7665 56.5264C76.8472 54.8397 76.9137 53.1524 77.0184 51.4674C77.0444 51.0503 76.9189 50.8383 76.5317 50.673C73.4933 49.3747 70.4898 47.9917 67.4179 46.7776C66.1139 46.2623 65.2831 45.5113 64.7967 44.2257C64.3956 43.1659 63.8217 42.1699 63.3245 41.1459C63.4493 40.9369 63.6528 40.9832 63.8438 40.9884L63.8391 41.0161C63.8296 41.14 63.8612 41.2372 64.0028 41.2627L64.1009 41.4818C64.149 41.7271 64.1243 42.0088 64.4306 42.1246C64.4441 42.1614 64.4576 42.1983 64.4711 42.2351C64.5359 42.4699 64.4997 42.7572 64.8059 42.8671C64.8606 42.9875 64.9153 43.1078 64.9696 43.2285C64.9548 43.4052 64.9525 43.5751 65.1853 43.6172L65.2001 43.6541C65.2673 43.9123 65.2442 44.216 65.5564 44.3519L65.7201 44.7133C65.7056 44.8946 65.7056 45.0678 65.9506 45.0965C67.4251 46.4472 69.3989 46.8187 71.1336 47.6555C72.9892 48.5507 74.9139 49.3056 76.8076 50.1228C77.2038 50.2937 77.6025 50.46 77.9905 50.6479C78.4238 50.8576 78.8252 50.8579 79.3027 50.7121C80.7246 50.2781 82.1692 49.9171 83.6045 49.5274C83.8522 49.6226 83.895 49.8042 83.8222 50.0345C82.7774 50.3576 81.7414 50.7164 80.6827 50.9854C80.2817 51.0875 80.2161 51.2574 80.1944 51.6063C80.091 53.2682 79.9619 54.9284 79.8417 56.589C79.6418 56.6412 79.4433 56.6298 79.2447 56.5812C79.2381 56.0943 79.2098 55.6061 79.3218 55.1251C79.5898 54.7615 79.4522 54.3584 79.4357 53.9671Z" fill="white"/>
<path d="M116.172 52.6888C115.569 54.0693 114.951 55.4432 114.376 56.8347C114.25 57.1403 114.076 57.2371 113.788 57.2678C110.029 57.6679 106.271 58.0681 102.514 58.4764C101.813 58.5527 101.116 58.6635 100.419 58.7646C100.211 58.7946 100.02 58.8468 99.8661 58.6238C98.9066 57.2306 97.8937 55.8756 96.8495 54.5434C96.8192 54.5046 96.8429 54.4241 96.8413 54.3634C96.8554 54.1377 97.0181 54.1103 97.1962 54.1032C98.1966 55.1259 98.9734 56.3207 99.8042 57.4706C100.142 57.9383 100.474 58.1356 101.072 58.0521C102.613 57.8368 104.164 57.6865 105.712 57.512C108.189 57.2329 110.664 56.9426 113.144 56.6876C113.63 56.6374 113.844 56.4091 114.022 55.994C114.535 54.8017 115.09 53.6274 115.628 52.4465C115.853 52.4315 116.013 52.5587 116.171 52.6885L116.172 52.6888Z" fill="white"/>
<path d="M76.706 11.8558C77.3024 11.8489 77.8977 11.8633 78.4878 11.9601C78.7664 12.1392 79.0671 12.0599 79.3634 12.0332C79.5218 12.0404 79.6805 12.0479 79.8389 12.055C79.8919 12.2419 79.8791 12.4271 79.8251 12.6111C79.2831 12.645 78.745 12.6042 78.2086 12.5289C77.9307 12.3427 77.6287 12.4213 77.331 12.4509C76.817 12.4389 76.2944 12.4803 75.7903 12.404C74.7563 12.2478 73.8675 12.5096 73.0779 13.1632C72.6482 13.2695 72.3261 13.5209 72.0864 13.8832C70.3968 15.1296 68.7102 16.3803 67.0163 17.6208C65.9533 18.3989 64.8914 19.1796 63.8034 19.9225C63.3842 20.2088 63.2397 20.6106 63.1303 21.0417C62.8024 22.3358 62.4951 23.635 62.18 24.9319C61.9814 24.9685 61.7829 24.9906 61.585 24.9277C61.9663 23.2896 62.3516 21.6525 62.7227 20.0125C62.7638 19.8306 62.9143 19.8058 63.0197 19.7288C66.6281 17.0899 70.2427 14.4601 73.8491 11.8186C74.0213 11.6927 74.1837 11.6748 74.3694 11.6807C75.0767 11.7038 75.7853 11.7077 76.4851 11.8346C76.5486 11.9468 76.6227 11.9513 76.7067 11.8558H76.706Z" fill="white"/>
<path d="M117.91 44.6116C117.916 43.5283 118.577 42.8509 119.624 42.8555C120.648 42.8601 121.316 43.5674 121.314 44.6432C121.312 45.7113 120.634 46.4056 119.596 46.4023C118.566 46.399 117.904 45.6966 117.91 44.6116ZM120.911 44.6697C120.926 43.9007 120.372 43.268 119.662 43.2429C118.896 43.2158 118.325 43.7973 118.313 44.6145C118.302 45.4125 118.828 45.9891 119.582 46.0048C120.336 46.0204 120.896 45.4579 120.911 44.6697Z" fill="white"/>
<path d="M5.33627 38.0316C6.36959 38.0348 7.02521 38.7291 7.02356 39.818C7.02191 40.8985 6.3551 41.583 5.30894 41.5784C4.27891 41.5738 3.61342 40.8684 3.61967 39.7877C3.6256 38.7099 4.29209 38.028 5.3366 38.0313L5.33627 38.0316ZM5.33462 38.4187C4.58022 38.4138 4.01746 39.0125 4.02207 39.8151C4.02668 40.6053 4.55717 41.1698 5.30565 41.1809C6.05808 41.1916 6.60141 40.6418 6.62084 39.8497C6.64026 39.0455 6.08146 38.4236 5.33462 38.4187Z" fill="white"/>
<path d="M65.8206 28.4405C65.4465 28.4405 65.0725 28.4379 64.6984 28.4411C64.0451 28.4464 63.7372 28.0087 63.9502 27.3734C64.2094 26.6009 64.4748 26.4933 65.2114 26.8712C65.9444 27.2476 66.6718 27.635 67.4094 28.0028C67.5352 28.0658 67.6324 28.1176 67.6123 28.2621C67.5869 28.4424 67.4269 28.3955 67.3172 28.3971C66.8184 28.4049 66.3195 28.4007 65.8206 28.4007C65.8206 28.4141 65.8206 28.4274 65.8206 28.4408V28.4405Z" fill="white"/>
<path d="M89.7606 13.0967C89.7567 14.1957 89.1083 14.861 88.0496 14.8518C87.0394 14.8434 86.3561 14.1148 86.3633 13.0533C86.3703 11.9941 87.0549 11.3014 88.0915 11.3047C89.1238 11.308 89.7646 11.9957 89.761 13.0964L89.7606 13.0967ZM89.3655 13.0752C89.3602 12.2768 88.8324 11.7003 88.0994 11.6921C87.3453 11.6836 86.7618 12.2863 86.7568 13.0791C86.7519 13.8709 87.345 14.4735 88.1092 14.454C88.8669 14.4347 89.3708 13.8816 89.3655 13.0752Z" fill="white"/>
<path d="M25.0439 49.2543C25.0492 48.1478 25.6903 47.4841 26.7464 47.4923C27.7593 47.5001 28.4436 48.2224 28.4416 49.2826C28.4396 50.3324 27.7448 51.0407 26.7187 51.0397C25.6821 51.0384 25.0387 50.3526 25.0443 49.2543H25.0439ZM25.4394 49.2507C25.4282 50.0832 25.9097 50.6308 26.673 50.652C27.43 50.6732 28.0382 50.0738 28.0487 49.2966C28.0593 48.5159 27.4623 47.8859 26.7154 47.8901C25.9541 47.8944 25.451 48.4311 25.4398 49.2507H25.4394Z" fill="white"/>
<path d="M42.0981 47.825C42.0905 48.9152 41.4392 49.5681 40.372 49.5553C39.3699 49.5436 38.6956 48.8105 38.7054 47.7438C38.715 46.6927 39.4121 45.9994 40.45 46.0079C41.4827 46.0164 42.1057 46.7035 42.0981 47.825ZM41.7069 47.8221C41.7181 46.9781 41.2005 46.4084 40.42 46.4054C39.6847 46.4028 39.1174 46.98 39.0973 47.7513C39.0769 48.5366 39.6564 49.1624 40.4092 49.1676C41.1633 49.1728 41.6967 48.6197 41.7069 47.8221Z" fill="white"/>
<path d="M51.3435 34.6766C51.3435 34.491 51.3435 34.3055 51.3435 34.1196C51.9201 33.8378 52.5593 33.9634 53.1658 33.8603C54.4095 33.6493 55.6744 33.56 56.9306 33.4217C57.1627 33.3963 57.4091 33.3614 57.4538 33.6885C57.4973 34.0051 57.2694 34.0677 57.0304 34.0925C55.135 34.2895 53.2392 34.4822 51.3435 34.6759V34.6766Z" fill="white"/>
<path d="M83.8226 50.0335C83.8954 49.8033 83.8526 49.6217 83.605 49.5264C84.0963 49.202 84.6867 49.1667 85.2287 48.9949C86.4665 48.6022 87.7182 48.252 88.9698 47.9044C89.1773 47.8466 89.471 47.6669 89.603 48.0289C89.7288 48.374 89.4641 48.4336 89.2171 48.5051C87.4221 49.0252 85.6476 49.6161 83.823 50.0335H83.8226Z" fill="white"/>
<path d="M131.597 43.1957C131.575 42.3775 131.88 41.8003 132.59 41.51C133.216 41.254 133.84 41.2589 134.407 41.7181C134.546 41.8306 134.597 41.9809 134.698 42.1065C134.797 42.2291 134.784 42.3432 134.668 42.4238C134.521 42.5265 134.468 42.3925 134.385 42.2956C133.855 41.6835 133.21 41.5749 132.575 41.9783C132.039 42.3181 131.862 43.0786 132.117 43.7403C132.304 44.2275 132.66 44.4607 133.147 44.4953C133.644 44.5308 134.096 44.4131 134.377 43.9419C134.437 43.8408 134.4 43.591 134.632 43.7005C134.885 43.8199 134.747 43.9904 134.657 44.159C134.344 44.7444 133.738 45.0203 132.968 44.913C132.281 44.8175 131.741 44.2787 131.622 43.5603C131.598 43.4188 131.601 43.273 131.597 43.1951V43.1957Z" fill="white"/>
<path d="M116.172 52.6893C116.013 52.5595 115.853 52.4326 115.628 52.4473C116.25 50.7688 117.054 49.1682 117.762 47.5262C117.861 47.2957 118.057 47.2327 118.274 47.3169C118.581 47.4359 118.416 47.6479 118.338 47.8253C117.617 49.4474 116.894 51.0682 116.172 52.6889V52.6893Z" fill="white"/>
<path d="M61.5846 24.9297C61.7825 24.9926 61.981 24.9701 62.1796 24.9339C61.8411 26.3264 61.5049 27.7193 61.1631 29.1105C61.0705 29.4874 60.9629 29.8608 60.8598 30.2352C60.8071 30.426 60.7202 30.6125 60.4798 30.5238C60.3056 30.4596 60.19 30.3409 60.2539 30.093C60.6968 28.3718 61.0547 26.6294 61.5846 24.93V24.9297Z" fill="white"/>
<path d="M135.352 43.1225C135.352 42.6281 135.351 42.1334 135.353 41.639C135.353 41.5183 135.341 41.3889 135.522 41.3729C135.741 41.3536 135.751 41.4929 135.749 41.6468C135.749 41.6674 135.746 41.6886 135.75 41.7085C135.812 42.0835 135.551 42.6874 135.872 42.7944C136.396 42.9692 137.023 42.873 137.604 42.8371C137.924 42.8172 137.729 42.5091 137.788 42.3382C137.896 42.0235 137.548 41.4335 138.016 41.4254C138.407 41.4185 138.169 42.0059 138.187 42.3183C138.229 43.0576 138.202 43.8011 138.199 44.543C138.198 44.7015 138.238 44.9132 137.989 44.9079C137.742 44.9027 137.797 44.6898 137.788 44.5332C137.786 44.5127 137.79 44.4918 137.787 44.4716C137.734 44.0738 137.984 43.4398 137.674 43.323C137.163 43.1313 136.531 43.2503 135.95 43.2503C135.684 43.2503 135.756 43.4665 135.752 43.6149C135.744 43.9652 135.75 44.3154 135.748 44.6656C135.748 44.7964 135.729 44.9154 135.553 44.9138C135.384 44.9125 135.352 44.8042 135.352 44.6683C135.352 44.153 135.352 43.6381 135.352 43.1228L135.352 43.1225Z" fill="white"/>
<path d="M96.6127 39.918C96.7147 40.1055 96.8254 40.2816 97.0832 40.2588C96.097 41.7387 95.1085 43.2169 94.1278 44.7004C93.9935 44.9036 93.8255 45.0171 93.6138 44.8909C93.3866 44.7555 93.4508 44.5458 93.5812 44.359C94.6089 42.8902 95.5214 41.3444 96.6127 39.918Z" fill="white"/>
<path d="M94.4798 18.5301C94.3563 18.67 94.2328 18.8096 94.1093 18.9491C92.8886 17.8211 91.664 16.6977 90.4528 15.5602C90.3043 15.4209 90.0972 15.2311 90.3672 14.9914C90.6083 14.7775 90.7541 14.9823 90.8905 15.1108C92.0914 16.2457 93.2844 17.389 94.4801 18.5301H94.4798Z" fill="white"/>
<path d="M76.7666 56.5273C76.9546 56.5348 77.1426 56.5423 77.3303 56.5505C77.2355 58.1922 77.2016 59.8371 77.002 61.4712C76.98 61.6516 76.9523 61.7918 76.7205 61.7889C76.545 61.7866 76.4324 61.7266 76.4366 61.5456C76.4762 59.8684 76.5417 58.1928 76.7666 56.5277V56.5273Z" fill="white"/>
<path d="M79.8289 56.9349C79.8796 58.4412 79.5687 59.9257 79.5483 61.4287C79.5454 61.6518 79.5496 61.9929 79.172 61.9401C78.8466 61.8948 78.8578 61.6123 78.8789 61.355C78.9984 59.88 79.1156 58.4044 79.2339 56.9297C79.4321 56.9316 79.6303 56.9333 79.8289 56.9349Z" fill="white"/>
<path d="M63.8442 40.9886C63.6532 40.9834 63.4494 40.9371 63.3249 41.1461C62.6462 40.1026 62.201 38.939 61.6054 37.8527C61.3897 37.4597 61.2237 37.0403 61.013 36.6444C60.9158 36.4615 60.8299 36.3099 61.0719 36.1892C61.3027 36.0744 61.4694 36.1533 61.5807 36.3734C61.8668 36.9389 62.1684 37.4972 62.4365 38.0712C62.8932 39.0499 63.4751 39.9692 63.8442 40.9889V40.9886Z" fill="white"/>
<path d="M20.3833 43.2614C20.5371 43.1456 20.6909 43.0295 20.8453 42.9141C21.8006 44.1729 22.7582 45.4287 23.7068 46.6914C23.8188 46.8405 24.0164 47.0071 23.7562 47.2135C23.5 47.4167 23.3334 47.2755 23.1892 47.0802C22.2514 45.809 21.3182 44.5345 20.3836 43.261L20.3833 43.2614Z" fill="white"/>
<path d="M44.6985 40.2812C44.8869 40.338 45.0752 40.3947 45.2629 40.4521C44.6669 41.7882 44.0716 43.1233 43.4762 44.4588C43.4182 44.5889 43.3688 44.7229 43.302 44.8485C43.1986 45.0425 43.1265 45.2864 42.8048 45.1335C42.5038 44.9903 42.6569 44.7806 42.731 44.6156C43.3784 43.167 43.9576 41.6884 44.6985 40.2816V40.2812Z" fill="white"/>
<path d="M97.1961 54.1038C97.018 54.111 96.8553 54.1384 96.8412 54.3641C96.0782 53.6711 95.5984 52.7596 94.9593 51.9707C94.5098 51.416 94.1209 50.8133 93.6902 50.243C93.539 50.0427 93.6039 49.893 93.76 49.7743C93.9233 49.6504 94.0728 49.7362 94.1828 49.8839C95.1819 51.2295 96.1809 52.5753 97.1754 53.9241C97.2067 53.9665 97.1902 54.0432 97.1961 54.1035V54.1038Z" fill="white"/>
<path d="M80.1873 12.0628C81.7787 12.1541 83.3708 12.2386 84.9617 12.3443C85.1721 12.3583 85.5027 12.3045 85.4681 12.7072C85.4368 13.0702 85.1536 12.9919 84.9534 12.9707C83.3712 12.8028 81.7698 12.885 80.1958 12.6192C80.1932 12.4336 80.1902 12.2481 80.1873 12.0625V12.0628Z" fill="white"/>
<path d="M22.407 41.7702C22.6411 41.7581 22.7369 41.5614 22.8789 41.4258C23.7917 42.6507 24.6962 43.8811 25.6228 45.0946C25.8 45.3264 25.9979 45.5811 25.742 45.7758C25.4638 45.9875 25.2797 45.6969 25.1171 45.4689C24.229 44.2251 23.2272 43.0625 22.407 41.7698V41.7702Z" fill="white"/>
<path d="M42.8258 39.711C42.2508 41.0539 41.6851 42.4008 41.0924 43.7359C40.9976 43.9498 40.8833 44.3187 40.5237 44.137C40.2224 43.985 40.3973 43.699 40.4941 43.4877C41.1033 42.1595 41.6044 40.7826 42.3147 39.5C42.485 39.5708 42.6555 39.6409 42.8261 39.711H42.8258Z" fill="white"/>
<path d="M12.9904 38.901C11.4315 39.0908 9.87199 39.2767 8.31411 39.474C8.0543 39.507 7.8857 39.3967 7.86397 39.1759C7.84223 38.9558 7.98646 38.8133 8.2466 38.799C9.79559 38.7129 11.3212 38.3786 12.8768 38.3672C12.9143 38.5452 12.9522 38.7233 12.9904 38.9014V38.901Z" fill="white"/>
<path d="M3.0694 39.7958C3.0694 40.2697 3.07237 40.7435 3.06743 41.217C3.06611 41.3498 3.11847 41.5324 2.89488 41.5441C2.66931 41.5562 2.70488 41.3794 2.6973 41.2405C2.69632 41.22 2.69895 41.1991 2.69665 41.1789C2.65384 40.7582 2.8906 40.0919 2.58106 39.9667C2.08021 39.7642 1.43941 39.9002 0.857552 39.8959C0.603339 39.894 0.63067 40.0831 0.628694 40.2439C0.624743 40.5736 0.629353 40.903 0.625401 41.2327C0.623755 41.3723 0.652074 41.5503 0.429473 41.5412C0.257253 41.5343 0.263839 41.3873 0.263839 41.264C0.263181 40.2752 0.263181 39.2864 0.264827 38.2977C0.264827 38.1718 0.273389 38.0394 0.453182 38.0472C0.631658 38.055 0.610913 38.1946 0.627048 38.3146C0.680722 38.7082 0.426839 39.3217 0.764033 39.4531C1.25204 39.6432 1.86716 39.5095 2.42794 39.5238C2.66009 39.5297 2.70257 39.4061 2.69763 39.215C2.69072 38.9473 2.68677 38.6789 2.7006 38.4118C2.70817 38.2693 2.61729 38.0345 2.89488 38.0511C3.15634 38.0664 3.06084 38.2941 3.06479 38.4363C3.07698 38.8892 3.0694 39.3425 3.0694 39.7958Z" fill="white"/>
<path d="M126.365 43.2766C127.663 43.1367 128.959 42.9916 130.258 42.8628C130.487 42.84 130.814 42.7607 130.839 43.1322C130.865 43.5124 130.518 43.4449 130.296 43.469C129 43.6099 127.703 43.7355 126.405 43.8663C126.392 43.6696 126.378 43.4733 126.365 43.2766H126.365Z" fill="white"/>
<path d="M126.365 43.2734C126.379 43.4701 126.392 43.6664 126.406 43.863C125.131 44.0225 123.856 44.183 122.581 44.3402C122.364 44.3669 122.146 44.3591 122.102 44.0812C122.051 43.761 122.297 43.6954 122.527 43.6703C123.806 43.5307 125.086 43.4045 126.366 43.2738L126.365 43.2734Z" fill="white"/>
<path d="M65.8515 29.7237C66.3069 29.7237 66.7626 29.7259 67.2181 29.7227C67.4364 29.7211 67.5865 29.7902 67.5757 30.0358C67.5664 30.2458 67.4779 30.3886 67.2391 30.3906C66.328 30.3977 65.4165 30.403 64.5053 30.4153C64.2169 30.4193 64.1606 30.2412 64.1573 30.0162C64.1533 29.7416 64.3542 29.7498 64.5468 29.7501C64.9818 29.7504 65.4168 29.7501 65.8518 29.7501C65.8518 29.7413 65.8518 29.7325 65.8518 29.7237H65.8515Z" fill="white"/>
<path d="M139.215 44.7914C139.245 44.5725 139.4 44.5217 139.502 44.4264C139.66 44.2794 139.714 44.1225 139.553 43.9471C139.393 43.7726 139.238 43.7993 139.074 43.9542C138.95 44.072 138.798 44.3257 138.631 44.1127C138.463 43.8991 138.7 43.7093 138.866 43.571C139.159 43.3261 139.469 43.3376 139.774 43.5629C140.059 43.7732 140.198 44.0742 140.006 44.3642C139.827 44.6332 139.952 44.7297 140.102 44.9169C140.41 45.3011 140.257 45.8819 139.817 46.1317C139.423 46.3557 138.837 46.1865 138.632 45.7899C138.586 45.7006 138.511 45.5998 138.6 45.5127C138.7 45.4152 138.855 45.4155 138.933 45.5189C139.19 45.8591 139.507 46.0241 139.768 45.6063C140.096 45.0797 139.568 44.9733 139.215 44.792L139.215 44.7914Z" fill="white"/>
<path d="M65.6754 24.9023C65.9741 25.067 66.2751 25.2415 66.5833 25.4019C67.1276 25.685 67.6752 25.9609 68.2235 26.2365C68.4708 26.3607 68.4329 26.5505 68.3463 26.7455C68.2492 26.965 68.0937 26.8942 67.938 26.8127C67.1381 26.394 66.3347 25.9811 65.5394 25.5539C65.4166 25.488 65.2058 25.443 65.3142 25.1998C65.3869 25.0364 65.4782 24.9209 65.6751 24.9023H65.6754Z" fill="white"/>
<path d="M76.4719 66.3725C75.8923 65.8158 75.9826 65.1417 76.1897 64.4862C76.3869 63.8614 76.8733 63.5121 77.5335 63.4593C78.2385 63.4032 78.8553 63.5682 79.1892 64.273C78.7855 64.3734 79.2024 64.6522 79.0693 64.8117C78.4496 63.9133 77.982 63.685 77.2928 63.9452C76.515 64.2387 76.2934 64.8949 76.598 66.0014C76.5568 66.0004 76.516 65.9988 76.4748 65.9975C76.4564 65.9818 76.4376 65.9658 76.4192 65.9502C76.435 65.9684 76.4511 65.987 76.4669 66.0053L76.4716 66.3725H76.4719Z" fill="white"/>
<path d="M65.8121 32.3277C65.4393 32.3277 65.0663 32.3251 64.6935 32.3286C64.434 32.3309 64.3119 32.2015 64.3115 31.9533C64.3112 31.6598 64.5401 31.7159 64.7142 31.7107C65.4594 31.6895 66.2046 31.664 66.9498 31.6673C67.1441 31.6683 67.4447 31.6066 67.422 31.9813C67.4019 32.314 67.1615 32.299 66.9304 32.3003C66.5576 32.3026 66.1849 32.3009 65.8121 32.3009C65.8121 32.3097 65.8121 32.3189 65.8121 32.328V32.3277Z" fill="white"/>
<path d="M66.2994 23.6603C66.4775 23.5468 66.4305 23.1568 66.7805 23.328C67.5346 23.6971 68.2814 24.0806 69.0253 24.469C69.2555 24.5894 69.1514 24.8036 69.0862 24.9595C69.0157 25.1281 68.8346 25.0857 68.7075 25.0215C67.959 24.6435 67.2145 24.2571 66.4726 23.8664C66.4074 23.8321 66.3695 23.7464 66.2991 23.6603H66.2994Z" fill="white"/>
<path d="M69.918 22.9161C69.8495 23.1317 69.8775 23.4177 69.5353 23.2468C68.8886 22.924 68.2435 22.5985 67.5978 22.2737C67.4114 22.1801 67.3837 22.0278 67.4687 21.8592C67.5326 21.7327 67.6268 21.5791 67.798 21.6661C68.478 22.0108 69.151 22.3689 69.8212 22.7322C69.8778 22.7629 69.8939 22.8675 69.918 22.9165V22.9161Z" fill="white"/>
<path d="M68.9484 20.0537C69.4308 20.3188 70.0279 20.6358 70.6123 20.9747C70.7905 21.0777 70.637 21.2395 70.5998 21.3624C70.5425 21.5528 70.3963 21.5333 70.2498 21.4563C69.7055 21.1697 69.1658 20.8739 68.6145 20.6006C68.4367 20.5122 68.4021 20.4111 68.5009 20.2657C68.576 20.1545 68.6251 19.9882 68.9484 20.054V20.0537Z" fill="white"/>
<path d="M65.8682 35.5253C66.1566 35.5253 66.4454 35.5306 66.7339 35.5237C66.9572 35.5185 67.0852 35.5892 67.0796 35.8364C67.0747 36.0504 67.02 36.1864 66.7672 36.1834C66.1685 36.1766 65.5695 36.1818 64.9705 36.1815C64.7255 36.1815 64.6485 36.0259 64.6541 35.8192C64.66 35.6016 64.825 35.5619 65.0008 35.5589C65.2899 35.5544 65.5791 35.5576 65.8682 35.5576V35.5253Z" fill="white"/>
<path d="M91.1231 46.1758C91.726 46.77 92.0724 47.5458 92.5858 48.2036C92.6895 48.3366 92.706 48.5871 92.9747 48.4266C93.028 48.7231 92.7145 49.0231 92.9839 49.3172C92.4416 49.0126 92.3052 48.3979 91.9295 47.9645C91.5591 47.5373 91.3947 46.9477 90.8702 46.6398C90.7618 46.3822 91.0638 46.3437 91.1231 46.1758Z" fill="white"/>
<path d="M71.0663 19.7032C70.6181 19.4629 70.0725 19.1795 69.5384 18.8759C69.4356 18.8175 69.4906 18.6779 69.5614 18.6036C69.652 18.508 69.7053 18.297 69.8867 18.3838C70.3892 18.6238 70.8828 18.8834 71.3718 19.1491C71.5078 19.2232 71.4697 19.3621 71.4025 19.4759C71.3462 19.5715 71.3705 19.745 71.0659 19.7032H71.0663Z" fill="white"/>
<path d="M65.8664 38.0678C65.6188 38.0678 65.3708 38.0694 65.1232 38.0675C64.9033 38.0658 64.8525 37.9295 64.8535 37.7413C64.8542 37.5538 64.9612 37.4896 65.1265 37.487C65.6218 37.4788 66.1174 37.4798 66.6123 37.4651C66.8444 37.4583 66.8859 37.5767 66.88 37.77C66.8744 37.9546 66.8484 38.0887 66.6093 38.0746C66.3623 38.06 66.1141 38.0714 65.8664 38.0714V38.0681V38.0678Z" fill="white"/>
<path d="M65.9592 39.3918C66.1644 39.5059 66.6824 39.0817 66.7202 39.6824C66.7591 40.2958 66.2111 39.9596 65.9335 40.0655C65.8967 40.0796 65.8492 40.0799 65.8101 40.0717C65.5216 40.0134 65.0494 40.2651 65.0234 39.7404C64.9947 39.1632 65.5012 39.4815 65.7666 39.3934C65.8038 39.381 65.8492 39.3918 65.9592 39.3918Z" fill="white"/>
<path d="M60.7089 35.2093C60.1596 34.6327 59.7879 33.9315 59.3305 33.2904C59.1826 33.083 59.0911 32.8244 58.827 32.7155C58.6228 32.464 59.0687 32.4063 58.9864 32.1914C59.5719 32.7774 59.9288 33.5236 60.4093 34.1836C60.54 34.3633 60.6361 34.5675 60.8357 34.6885C60.7935 34.8619 60.7511 35.0358 60.7089 35.2093Z" fill="white"/>
<path d="M91.123 46.1745C91.0637 46.3424 90.7614 46.3812 90.8701 46.6385C90.8737 47.4212 90.8803 48.2039 90.8783 48.9869C90.878 49.1379 90.9356 49.3642 90.6817 49.3577C90.4387 49.3515 90.4898 49.132 90.4894 48.9764C90.4861 48.0698 90.4838 47.1632 90.4917 46.2567C90.4931 46.1096 90.4045 45.8917 90.6379 45.8428C90.8922 45.7897 91.0927 45.8764 91.1233 46.1745H91.123Z" fill="white"/>
<path d="M72.1916 17.5687C72.0872 17.7471 72.1264 18.0941 71.755 17.8906C71.4303 17.7126 71.097 17.5505 70.77 17.3767C70.615 17.2945 70.4767 17.1842 70.6057 16.9941C70.7141 16.8347 70.8076 16.6478 71.0835 16.8272C71.3727 17.015 71.7095 17.1301 72.0197 17.2876C72.1323 17.3447 72.2005 17.4481 72.1916 17.5687Z" fill="white"/>
<path d="M60.709 35.2083C60.7511 35.0348 60.7936 34.861 60.8358 34.6875C60.8377 33.8882 60.8377 33.0893 60.844 32.29C60.8453 32.138 60.788 31.9221 61.0366 31.9143C61.2902 31.9064 61.2428 32.1233 61.2434 32.2759C61.2474 33.2187 61.2474 34.1612 61.2428 35.104C61.2421 35.2351 61.2935 35.4131 61.0775 35.4405C60.8967 35.4634 60.7455 35.4203 60.7093 35.2087L60.709 35.2083Z" fill="white"/>
<path d="M58.9864 32.188C59.069 32.4032 58.6228 32.4609 58.827 32.7121C58.8276 33.4947 58.8316 34.2771 58.827 35.0597C58.826 35.2101 58.8872 35.4315 58.6297 35.4315C58.366 35.4315 58.4414 35.2045 58.4404 35.0597C58.4332 34.1329 58.4345 33.2061 58.4391 32.2796C58.4397 32.1466 58.3808 31.9649 58.5774 31.916C58.7977 31.8612 58.933 31.975 58.9867 32.1877L58.9864 32.188Z" fill="white"/>
<path d="M92.9842 49.3171C92.7145 49.023 93.0283 48.7229 92.975 48.4265C92.9704 47.6686 92.9635 46.9111 92.9641 46.1532C92.9641 46.0217 92.922 45.8437 93.1459 45.8362C93.3658 45.8287 93.3504 45.9944 93.3507 46.1365C93.3523 47.0992 93.3491 48.0622 93.3537 49.0249C93.355 49.2887 93.2697 49.4202 92.9842 49.3171Z" fill="white"/>
<path d="M72.0864 13.8841C72.3265 13.5218 72.6482 13.2704 73.0779 13.1641C72.9729 13.3777 73.047 13.4797 73.2676 13.5733C73.4507 13.651 73.7523 13.681 73.7009 13.9927C73.6799 14.1212 73.6486 14.3283 73.4965 14.3407C73.2241 14.3632 72.8596 14.2291 72.7987 14.0469C72.6215 13.5179 72.3611 13.7602 72.0864 13.8841Z" fill="white"/>
<path d="M65.9266 41.3579C66.0701 41.3579 66.2144 41.3513 66.3573 41.3598C66.4817 41.3673 66.6115 41.3895 66.6148 41.5542C66.6177 41.698 66.6151 41.8885 66.4524 41.9106C66.1106 41.9576 65.7603 41.9745 65.4155 41.9569C65.2061 41.9462 65.2117 41.7407 65.2067 41.5744C65.2008 41.3637 65.3454 41.3592 65.4952 41.3582C65.6388 41.3572 65.7827 41.3582 65.9262 41.3582L65.9266 41.3579Z" fill="white"/>
<path d="M64.7195 33.6198C65.469 33.6188 66.2181 33.6178 66.9672 33.6172C67.1065 33.9055 67.1467 34.1152 66.6933 34.0982C66.1374 34.0773 65.5789 34.0806 65.0231 34.1067C64.5828 34.1272 64.6006 33.9162 64.7192 33.6201L64.7195 33.6198Z" fill="white"/>
<path d="M72.9727 15.7408C72.8617 15.9414 72.8647 16.2434 72.6022 16.1139C72.2476 15.9388 71.7948 15.869 71.6186 15.4613C71.5923 15.4004 71.7322 14.9891 72.0075 15.1189C72.3533 15.2823 72.7728 15.3831 72.9727 15.7408Z" fill="white"/>
<path d="M65.5567 44.3516C65.2446 44.2156 65.2676 43.912 65.2004 43.6537C65.4253 43.4864 65.5202 43.1137 65.9278 43.2347C66.1366 43.2966 66.4712 43.1225 66.4564 43.5477C66.4448 43.8755 66.2446 43.9626 65.9529 43.9345C65.64 43.9045 65.4006 43.9449 65.5564 44.3516H65.5567Z" fill="white"/>
<path d="M64.7194 33.6206C64.6009 33.9167 64.5834 34.1277 65.0233 34.1072C65.5792 34.0811 66.1373 34.0778 66.6935 34.0987C67.1469 34.1156 67.1064 33.9059 66.9675 33.6177C67.2882 33.5179 67.2434 33.7517 67.2493 33.9268C67.2553 34.1088 67.1911 34.2598 66.9797 34.2643C66.2384 34.2803 65.4969 34.296 64.7553 34.2917C64.5182 34.2904 64.4734 34.0837 64.4619 33.8932C64.4517 33.7227 64.4504 33.5413 64.7194 33.6206Z" fill="white"/>
<path d="M79.0693 64.8122C79.2023 64.6527 78.7855 64.3739 79.1892 64.2734C79.2257 64.2999 79.2389 64.3351 79.229 64.3788C79.2228 64.5353 79.1799 64.7072 79.3966 64.7701C79.4868 65.0538 79.47 65.3395 79.4131 65.6262C79.1757 65.6894 79.2251 65.8717 79.2389 66.039C79.2129 66.1072 79.1869 66.1753 79.1608 66.2435C78.9596 66.2784 78.8599 66.4033 78.8381 66.598L78.8204 66.6094C78.6504 66.596 78.4486 66.8602 78.3123 66.5523C78.3505 66.5275 78.3883 66.5024 78.4265 66.4776C78.6017 66.5041 78.71 66.4424 78.7232 66.2562C79.0499 65.8244 79.1203 65.3327 79.0693 64.8122Z" fill="white"/>
<path d="M12.9903 38.9012C12.9521 38.7231 12.9142 38.5451 12.8767 38.367C13.043 38.2023 13.2393 38.2033 13.4464 38.2643C13.3318 38.6123 13.4622 38.7877 13.8293 38.7959C13.5662 38.9615 13.2834 38.9713 12.99 38.9009L12.9903 38.9012Z" fill="white"/>
<path d="M78.0945 66.9602C77.8459 67.0088 77.598 67.0108 77.3503 66.9534C77.2957 66.6902 77.0991 66.7434 76.9176 66.7632C76.8844 66.7326 76.8511 66.7016 76.8179 66.671C76.8877 66.6008 76.9575 66.5311 77.0273 66.4609C77.3665 66.6318 77.732 66.6224 78.0975 66.6149C78.0965 66.73 78.0955 66.8451 78.0942 66.9599L78.0945 66.9602Z" fill="white"/>
<path d="M42.8258 39.7087C42.6552 39.6386 42.485 39.5682 42.3144 39.4977C42.2979 39.3559 42.319 39.229 42.4517 39.1445C42.6503 39.1859 42.8485 39.227 43.0471 39.2685C43.0984 39.4768 42.862 39.5437 42.8258 39.7087Z" fill="white"/>
<path d="M79.4358 53.9688C79.4526 54.3601 79.5903 54.7628 79.3219 55.1268C79.2333 54.7286 79.2455 54.3402 79.4358 53.9688Z" fill="white"/>
<path d="M80.1873 12.0635C80.1902 12.2491 80.1935 12.4346 80.1958 12.6202C80.0704 12.6785 79.9469 12.672 79.8247 12.6107C79.8787 12.4265 79.8916 12.2412 79.8385 12.0547C79.9548 12.0576 80.0707 12.0609 80.1869 12.0638L80.1873 12.0635Z" fill="white"/>
<path d="M79.8289 56.9359C79.6307 56.9342 79.4324 56.9326 79.2339 56.9306C79.2375 56.8142 79.2411 56.6981 79.2451 56.582C79.4433 56.6303 79.6422 56.642 79.8421 56.5899C79.8378 56.7053 79.8335 56.8207 79.8289 56.9362V56.9359Z" fill="white"/>
<path d="M77.3311 12.4521C77.6287 12.4225 77.9307 12.3439 78.2086 12.5301C77.9037 12.6413 77.6123 12.6015 77.3311 12.4521Z" fill="white"/>
<path d="M79.3634 12.0323C79.067 12.0591 78.7664 12.1386 78.4878 11.9593C78.7914 11.8484 79.0832 11.8712 79.3634 12.0323Z" fill="white"/>
<path d="M78.0945 66.9617C78.0955 66.8466 78.0965 66.7314 78.0978 66.6167C78.1692 66.5948 78.241 66.573 78.3125 66.5508C78.4488 66.8586 78.6506 66.5942 78.8206 66.6079C78.6375 66.844 78.3941 66.9594 78.0945 66.9617Z" fill="white"/>
<path d="M64.8066 42.8664C64.5003 42.7568 64.5366 42.4695 64.4717 42.2344C64.6297 42.4209 64.7654 42.6192 64.8066 42.8664Z" fill="white"/>
<path d="M64.4312 42.1271C64.1249 42.0114 64.1496 41.7296 64.1016 41.4844C64.2339 41.6875 64.4019 41.8725 64.4312 42.1271Z" fill="white"/>
<path d="M77.0274 66.4631C76.9576 66.5332 76.8878 66.603 76.818 66.6731C76.6968 66.647 76.5724 66.6249 76.5635 66.4644C76.5951 66.3617 76.6264 66.259 76.6576 66.1562C76.8259 66.2055 76.9461 66.3118 77.0278 66.4634L77.0274 66.4631Z" fill="white"/>
<path d="M78.8381 66.5967C78.8599 66.402 78.96 66.2771 79.1608 66.2422C79.1012 66.4033 79.0413 66.5637 78.8381 66.5967Z" fill="white"/>
<path d="M65.9512 45.098C65.7062 45.0693 65.7062 44.8965 65.7207 44.7148C65.8369 44.8192 65.9377 44.933 65.9512 45.098Z" fill="white"/>
<path d="M65.1859 43.6192C64.9531 43.5771 64.9554 43.4069 64.9702 43.2305C65.0825 43.3381 65.1984 43.4437 65.1859 43.6192Z" fill="white"/>
<path d="M79.5165 52.1602C79.6298 52.2802 79.639 52.3946 79.4994 52.5019C79.4378 52.3845 79.4131 52.2691 79.5165 52.1602Z" fill="white"/>
<path d="M14.3361 38.1778C14.2274 38.3229 14.1036 38.3212 13.9692 38.2149C14.0835 38.1256 14.2047 38.1031 14.3361 38.1778Z" fill="white"/>
<path d="M79.3966 64.7702C79.1799 64.7073 79.2227 64.5354 79.229 64.3789C79.3406 64.4859 79.4542 64.5922 79.3966 64.7702Z" fill="white"/>
<path d="M79.2389 66.0379C79.225 65.8706 79.1756 65.6886 79.4131 65.625C79.4799 65.8141 79.3515 65.9227 79.2389 66.0379Z" fill="white"/>
<path d="M76.9172 66.7642C77.099 66.7443 77.2953 66.6912 77.3499 66.9543C77.1695 66.9716 77.0338 66.8891 76.9172 66.7642Z" fill="white"/>
<path d="M64.0034 41.2622C63.8619 41.2364 63.8299 41.1395 63.8398 41.0156C63.9185 41.0822 64.0314 41.1265 64.0034 41.2622Z" fill="white"/>
<path d="M76.706 11.8559C76.622 11.9515 76.5479 11.9469 76.4844 11.8347C76.5683 11.7382 76.6391 11.776 76.706 11.8559Z" fill="white"/>
<path d="M76.6573 66.1552C76.626 66.258 76.5947 66.3607 76.5631 66.4634C76.5325 66.4328 76.5022 66.4021 76.4719 66.3711L76.4673 66.0039L76.4752 65.9961C76.5163 65.9977 76.5572 65.999 76.5983 66.0003C76.6181 66.0522 76.6379 66.1037 76.6573 66.1556V66.1552Z" fill="white"/>
<path d="M76.4672 66.0052C76.4514 65.9866 76.4352 65.9678 76.4194 65.9492C76.4379 65.9651 76.4566 65.9813 76.4751 65.9972L76.4672 66.0052Z" fill="white"/>
<path d="M78.4265 66.4753C78.494 66.3602 78.5898 66.2823 78.7232 66.2539C78.7097 66.4401 78.6017 66.5018 78.4265 66.4753Z" fill="white"/>
<path d="M23.4772 4.37884C23.2079 4.42808 23.0465 4.34721 22.9859 4.14338C22.9059 3.87467 23.1446 3.81825 23.3106 3.79379C24.0094 3.69106 24.7117 3.60954 25.4141 3.53257C28.0791 3.24103 30.7447 2.95927 33.4087 2.65892C33.6757 2.62891 33.898 2.64815 33.9326 2.92274C33.9708 3.22733 33.6869 3.26712 33.4633 3.29223C32.4307 3.40767 31.396 3.50746 30.3627 3.6203C28.0491 3.87271 25.7362 4.12936 23.4772 4.37851V4.37884Z" fill="white"/>
<path d="M25.2189 22.5113C25.2133 22.675 25.2107 22.7973 25.0473 22.8358C24.8234 22.8886 24.6999 22.7585 24.5843 22.6049C24.0789 21.9347 23.5698 21.2672 23.0676 20.5947C21.6283 18.6674 20.1899 16.7388 18.7552 14.8082C18.6067 14.6086 18.2768 14.3881 18.5725 14.1354C18.9008 13.8549 19.0809 14.2055 19.2482 14.4282C21.1828 17.0026 23.1147 19.5789 25.0434 22.1578C25.1277 22.2706 25.1711 22.4135 25.2189 22.5116V22.5113Z" fill="white"/>
<path d="M40.597 12.0558C40.5348 12.2335 40.4699 12.4723 40.3701 12.6956C39.4271 14.8089 38.479 16.9201 37.5307 19.0311C37.1803 19.8108 36.8243 20.5879 36.4753 21.3683C36.3989 21.5392 36.3459 21.7587 36.095 21.6589C35.8533 21.5627 35.8536 21.3409 35.9385 21.1348C36.25 20.3799 36.5602 19.6243 36.8899 18.8771C37.719 16.999 38.5571 15.1249 39.3945 13.2504C39.6088 12.7703 39.842 12.2981 40.0507 11.8158C40.1284 11.6361 40.2585 11.6341 40.4051 11.6609C40.5941 11.6955 40.598 11.8478 40.5967 12.0558H40.597Z" fill="white"/>
<path d="M120.685 32.1013C120.691 32.104 120.805 32.1219 120.866 32.1881C120.955 32.2853 120.952 32.4229 120.861 32.5269C120.767 32.6345 120.663 32.7379 120.547 32.8217C117.903 34.7357 115.255 36.6441 112.615 38.5636C112.388 38.7293 112.199 38.864 111.993 38.5819C111.779 38.2887 112.09 38.1687 112.237 38.0617C114.907 36.1151 117.588 34.1826 120.265 32.2448C120.365 32.1721 120.449 32.0769 120.685 32.1017L120.685 32.1013Z" fill="white"/>
<path d="M109.949 16.8659C110.279 16.9986 110.663 17.1434 111.04 17.3065C113.669 18.4459 116.297 19.5893 118.924 20.732C119.057 20.7894 119.181 20.8725 119.319 20.9094C119.591 20.9824 119.727 21.1432 119.609 21.4024C119.49 21.6659 119.258 21.5544 119.071 21.4748C118.008 21.0245 116.948 20.5689 115.889 20.1127C113.94 19.2739 111.993 18.4342 110.045 17.5928C109.913 17.5354 109.776 17.4764 109.662 17.3912C109.536 17.2964 109.508 17.162 109.58 17.0061C109.647 16.8616 109.762 16.8574 109.949 16.8659Z" fill="white"/>
<path d="M102.225 34.0138C102.206 34.1074 102.149 34.2845 101.918 34.2936C101.668 34.3038 101.624 34.1215 101.601 33.9222C101.493 32.9843 101.377 32.0477 101.27 31.1098C101.015 28.8668 100.753 26.6244 100.524 24.3791C100.494 24.0892 100.206 23.5789 100.734 23.5159C101.222 23.4582 101.14 24.0087 101.173 24.3048C101.389 26.2028 101.521 28.1109 101.772 30.004C101.945 31.3068 102.035 32.6178 102.225 34.0138Z" fill="white"/>
</svg>
