<svg width="94" height="92" viewBox="0 0 94 92" fill="none" xmlns="http://www.w3.org/2000/svg">
<path d="M70.3019 2.77678C70.7903 2.63372 71.2702 2.457 71.7671 2.3476C74.257 1.79499 76.7498 1.25921 79.2397 0.72062C80.3831 0.473768 81.5264 0.215696 82.6782 0.00531059C82.8871 -0.0339613 83.2146 0.055803 83.3529 0.20728C86.7293 3.89884 90.0915 7.60161 93.4284 11.3268C93.6063 11.526 93.6796 11.9664 93.595 12.2301C92.3218 16.2218 91.0147 20.2051 89.7161 24.1884C89.4648 24.9598 89.2362 25.7396 88.9482 26.4942C88.8748 26.6849 88.6292 26.8981 88.4288 26.9402C85.521 27.5658 82.6076 28.1633 79.6942 28.772C77.6532 29.1983 75.6177 29.6472 73.571 30.0539C73.3536 30.096 73.0092 30.0034 72.8652 29.8435C69.6216 26.2838 66.392 22.7157 63.1793 19.1279C62.8067 18.7128 62.4595 18.6651 61.9485 18.7745C58.7443 19.4645 55.5317 20.1237 52.3219 20.7942C50.947 21.0803 49.5665 21.3468 48.203 21.6722C47.9828 21.7255 47.7231 21.9948 47.6469 22.2192C46.5346 25.4731 45.4477 28.7383 44.3552 32.0007C44.3467 32.0231 44.3495 32.0512 44.3354 32.068C44.1802 32.2559 44.0249 32.4411 43.8696 32.6262C43.8555 32.3738 43.768 32.1017 43.8357 31.8744C44.1124 30.9403 44.4455 30.0203 44.7419 29.0918C45.3348 27.2319 45.9333 25.3721 46.4838 23.4983C46.5515 23.2711 46.4273 22.8924 46.2579 22.7017C43.8103 19.947 41.3345 17.2204 38.8784 14.4714C38.6582 14.2217 38.5453 13.8795 38.3816 13.5794C38.9321 13.3185 39.0676 13.8402 39.3047 14.0983C41.7072 16.7043 44.0955 19.3271 46.4894 21.9415C46.5826 22.0424 46.704 22.121 46.8959 22.2809C47.0258 21.4422 47.4549 20.9456 48.4853 20.9905C47.6299 20.034 46.8988 19.2093 46.1619 18.3902C44.3382 16.3649 42.5089 14.3452 40.6965 12.3058C40.5553 12.1487 40.5525 11.871 40.4876 11.6494C40.6993 11.7308 40.9732 11.756 41.1087 11.9047C43.5873 14.6004 46.0603 17.3018 48.5079 20.0256C48.9822 20.5529 49.3774 20.7857 50.1679 20.609C54.0072 19.7478 57.8692 18.9792 61.7255 18.1994C62.3465 18.0732 62.6373 17.7843 62.8321 17.1503C63.5322 14.8922 64.3368 12.6649 65.0934 10.4236C65.4406 9.39129 65.754 8.34778 66.1125 7.3183C66.1746 7.13877 66.3863 7.00973 66.5275 6.85545C66.5557 7.05742 66.6573 7.27903 66.6037 7.45575C66.1153 9.05748 65.6043 10.6508 65.0905 12.2441C64.4949 14.0983 63.8682 15.9441 63.3148 17.8123C63.2443 18.0564 63.4645 18.4659 63.6677 18.6959C66.0617 21.3608 68.4782 24.0032 70.8863 26.6541C71.592 27.4311 72.3035 28.2025 72.9866 28.9992C73.2887 29.3498 73.5936 29.4031 74.0368 29.3077C78.2968 28.3989 82.5624 27.5181 86.8281 26.626C87.1951 26.5503 87.5762 26.4858 87.9121 26.3315C88.1323 26.2305 88.3779 26.0089 88.4513 25.7873C89.5298 22.5698 90.5799 19.3411 91.6386 16.118C92.0451 14.8781 92.4262 13.6298 92.8694 12.404C93.0671 11.8598 92.7537 11.5653 92.4601 11.2427C90.8171 9.43337 89.1628 7.62967 87.5169 5.82035C86.1251 4.28875 84.7334 2.75715 83.3557 1.21432C82.9831 0.796359 82.6189 0.672933 82.0261 0.801969C79.3526 1.38824 76.6594 1.89878 73.9775 2.44578C73.06 2.63372 72.1538 2.86374 71.2363 3.04327C70.9484 3.09937 70.6407 3.05169 70.3443 3.05169C70.3301 2.95912 70.3132 2.86655 70.2991 2.77398L70.3019 2.77678Z" fill="white"/>
<path d="M56.9291 56.8517C56.8106 57.048 56.7202 57.264 56.5706 57.4323C54.2303 60.0636 51.89 62.6948 49.5327 65.312C49.2278 65.6514 49.0782 65.9151 49.2419 66.4088C50.2159 69.2981 51.1419 72.2014 52.0819 75.1019C52.5647 76.5858 53.0728 78.0613 53.5132 79.5564C53.6713 80.0894 53.9762 80.3082 54.4759 80.412C59.0831 81.377 63.6875 82.356 68.2976 83.3013C68.5008 83.3434 68.8311 83.1807 68.9864 83.0096C71.9647 79.7668 74.929 76.5101 77.8875 73.2505C78.9575 72.0723 78.9208 72.0723 78.2743 70.1817C77.4189 67.6795 76.6002 65.1661 75.7759 62.6527C75.327 61.2838 74.8697 59.9149 74.4688 58.532C74.2966 57.9401 73.9493 57.6876 73.3706 57.5698C71.6965 57.2304 70.0281 56.8461 68.3569 56.487C66.344 56.055 64.3284 55.6314 62.3155 55.1882C62.132 55.149 61.9796 54.9778 61.813 54.8684L61.9005 54.6328C62.5273 54.7254 63.1596 54.7927 63.7807 54.9161C66.3497 55.4323 68.9158 55.9624 71.482 56.4926C72.4221 56.6862 73.3678 56.8685 74.2938 57.1069C74.5168 57.163 74.7906 57.3987 74.8584 57.6119C75.9396 60.8995 76.987 64.1955 78.0569 67.4859C78.5284 68.939 79.0478 70.3752 79.4967 71.8339C79.5672 72.0611 79.4797 72.4398 79.3188 72.6165C76.0921 76.1987 72.8229 79.7472 69.616 83.349C69.0711 83.9605 68.6335 84.0699 67.8403 83.8932C63.2217 82.8609 58.5891 81.9043 53.9536 80.9478C53.725 80.9001 53.406 81.0263 53.1999 81.1694C50.2413 83.2508 47.294 85.3518 44.3411 87.4417C44.0842 87.624 43.8047 87.7727 43.5365 87.9382C43.4716 87.8793 43.4067 87.8176 43.3418 87.7587C43.4744 87.5735 43.5704 87.3407 43.7455 87.2145C46.6814 85.0601 49.6231 82.917 52.5732 80.7795C52.9514 80.5046 53.087 80.2802 52.9119 79.764C51.4693 75.4862 50.0635 71.1915 48.6773 66.8941C48.4797 66.2825 48.1918 66.0974 47.5425 66.0974C43.8584 66.0974 40.1715 66.0441 36.4874 66.002C36.2361 65.9992 35.9877 65.9179 35.7393 65.873C35.7393 65.7944 35.7421 65.7187 35.7449 65.6402C35.9933 65.5981 36.2418 65.5252 36.493 65.5223C40.2025 65.4803 43.912 65.4326 47.6215 65.4242C48.2623 65.4242 48.7169 65.239 49.1431 64.765C51.4298 62.2403 53.7419 59.741 56.054 57.236C56.246 57.0256 56.4831 56.8573 56.6976 56.6665C56.7739 56.7254 56.8473 56.7872 56.9235 56.8461L56.9291 56.8517Z" fill="white"/>
<path d="M32.103 69.1897C32.0324 69.5376 31.9901 69.8966 31.8828 70.2332C31.0613 72.8168 30.2285 75.3975 29.3928 77.9754C29.2093 78.5477 29.0343 79.1227 28.8 79.6753C28.5939 80.1606 28.6843 80.4748 29.119 80.789C32.0296 82.89 34.9289 85.0079 37.8197 87.1342C38.0455 87.2997 38.181 87.583 38.3589 87.8102C38.2826 87.8747 38.2093 87.9421 38.133 88.0066C36.9304 87.1426 35.7334 86.2702 34.5252 85.4118C32.4926 83.9672 30.46 82.5253 28.4161 81.1003C28.2467 80.9825 27.9728 80.904 27.7781 80.946C24.7517 81.5828 21.7339 82.2476 18.7104 82.8956C16.8782 83.2883 15.0432 83.667 13.2026 84.0177C12.9852 84.0597 12.6465 83.9419 12.4968 83.7764C10.0408 81.0751 7.60166 78.3569 5.17383 75.6303C5.03832 75.476 5.03832 75.2039 4.97339 74.9879C5.18229 75.0833 5.45049 75.1226 5.59446 75.2797C7.91784 77.7875 10.2356 80.3065 12.5335 82.8395C12.8808 83.221 13.1574 83.3809 13.722 83.2575C18.1627 82.2869 22.6119 81.3584 27.0638 80.4411C27.7075 80.3093 28.0378 80.0372 28.2439 79.3752C28.975 77.0329 29.8078 74.7187 30.5926 72.3932C30.9116 71.4479 31.2081 70.4913 31.5355 69.5488C31.5948 69.3749 31.7642 69.2402 31.88 69.0859C31.9562 69.1196 32.0296 69.1533 32.1058 69.1869L32.103 69.1897Z" fill="white"/>
<path d="M30.5531 63.3807C30.0789 62.8842 29.5933 62.3961 29.1303 61.8912C27.0046 59.577 24.8873 57.2515 22.7474 54.9485C22.5949 54.7858 22.2477 54.6764 22.0275 54.7213C17.968 55.56 13.914 56.424 9.86014 57.2824C9.47055 57.3637 9.08097 57.4928 8.68857 57.504C7.71461 57.532 7.39278 58.1379 7.13024 58.9514C6.24662 61.6864 5.30654 64.4018 4.38905 67.1228C4.24225 67.5632 4.12368 68.0148 3.94583 68.4412C3.89219 68.573 3.69458 68.646 3.56189 68.747C3.51672 68.5702 3.38969 68.3683 3.43486 68.2196C3.83008 66.9292 4.25637 65.6501 4.67136 64.3681C5.17951 62.8057 5.69048 61.2404 6.19298 59.678C6.3906 59.0608 6.5628 58.4325 6.76889 57.8181C6.90157 57.4226 7.08225 57.1309 7.59887 57.0299C10.5151 56.4605 13.4228 55.8349 16.3306 55.2206C18.1176 54.8447 19.9102 54.4885 21.6859 54.0621C22.386 53.8938 22.8208 53.933 23.3544 54.5558C25.6834 57.2768 28.1056 59.9164 30.4854 62.5925C30.6407 62.7664 30.7225 63.002 30.8383 63.2096C30.7423 63.2685 30.6491 63.3246 30.5531 63.3835V63.3807Z" fill="white"/>
<path d="M25.548 39.5586C26.6236 39.2977 27.5157 39.0509 28.4162 38.8685C31.1179 38.3187 33.8224 37.7914 36.524 37.2556C37.5093 37.0592 38.4945 36.8573 39.4826 36.6833C39.6238 36.6581 39.7903 36.7703 39.9456 36.818C39.8129 36.9358 39.6943 37.1237 39.5447 37.1574C36.3547 37.8755 33.1561 38.5628 29.9689 39.2977C29.7261 39.3538 29.4805 39.682 29.3676 39.9401C29.1022 40.5432 28.7522 40.6863 28.1311 40.4366C27.3547 40.1224 26.5445 39.8924 25.5452 39.5586H25.548Z" fill="white"/>
<path d="M82.1022 3.17077C82.3817 3.39799 82.5398 3.49617 82.6584 3.62801C85.1088 6.32094 87.562 9.01106 89.9955 11.718C90.1451 11.8863 90.148 12.1837 90.2185 12.4221C89.9673 12.3351 89.6342 12.3239 89.4761 12.1528C87.0567 9.5216 84.6599 6.86794 82.2603 4.21709C82.1361 4.07964 81.9583 3.94499 81.9244 3.7851C81.8933 3.63082 82.0147 3.44568 82.1051 3.16797L82.1022 3.17077Z" fill="white"/>
<path d="M52.0563 66.3906C52.158 66.5702 52.2907 66.7413 52.3556 66.932C52.875 68.4496 53.3917 69.9672 53.8913 71.4904C54.5152 73.3894 55.1222 75.2941 55.7348 77.196C55.7715 77.3082 55.8449 77.4204 55.8336 77.527C55.8138 77.7121 55.7433 77.8917 55.6924 78.074C55.5287 77.9534 55.269 77.8664 55.2125 77.7093C54.8088 76.5705 54.4418 75.4204 54.0692 74.2703C53.2928 71.8831 52.5165 69.4987 51.7571 67.1059C51.6922 66.904 51.7684 66.6599 51.7797 66.4355L52.0563 66.3906Z" fill="white"/>
<path d="M74.6128 27.0066C74.5309 26.9168 74.4067 26.7822 74.2825 26.6475C74.4293 26.5241 74.5591 26.3221 74.7229 26.2856C76.0695 25.9827 77.4217 25.7106 78.7739 25.4301C81.0183 24.9616 83.2598 24.4904 85.5041 24.0191C85.665 23.9854 85.8372 23.9125 85.984 23.9462C86.128 23.9798 86.2466 24.1229 86.3793 24.2183C86.2494 24.3389 86.1365 24.5352 85.9869 24.5717C84.3213 24.9476 82.65 25.301 80.9788 25.6545C78.9659 26.0837 76.9503 26.5101 74.9374 26.9392C74.8697 26.9533 74.7991 26.9673 74.6128 27.0094V27.0066Z" fill="white"/>
<path d="M76.2726 71.7523C76.0948 71.9795 76.0073 72.1113 75.9 72.2291C73.4524 74.9389 71.0048 77.6487 68.5403 80.3416C68.3822 80.5127 68.0829 80.5548 67.8486 80.6558C67.9107 80.3977 67.8882 80.0667 68.0434 79.8956C70.4543 77.2195 72.8906 74.5658 75.3213 71.9093C75.4455 71.7747 75.5753 71.5952 75.7334 71.5559C75.8689 71.5222 76.0496 71.6625 76.2698 71.7495L76.2726 71.7523Z" fill="white"/>
<path d="M61.2172 57.4056C61.4995 57.4056 61.7931 57.3579 62.0641 57.414C63.7833 57.7703 65.4941 58.1546 67.2134 58.5165C68.7237 58.8334 70.2425 59.1196 71.7528 59.445C71.9222 59.4814 72.0549 59.6974 72.2045 59.8293C72.021 59.9134 71.8178 60.0986 71.6568 60.0677C70.3949 59.818 69.1415 59.5207 67.8852 59.2458C66.1942 58.8783 64.4976 58.5249 62.8066 58.1518C62.2561 58.0312 61.714 57.8741 61.1692 57.7338C61.1861 57.6244 61.2002 57.515 61.2172 57.4056Z" fill="white"/>
<path d="M65.9459 17.6179C65.9007 17.4159 65.7652 17.1831 65.8216 17.012C66.2169 15.7552 66.646 14.507 67.0723 13.2587C67.6256 11.6401 68.1845 10.0216 68.7407 8.40299C68.7717 8.31603 68.7463 8.19261 68.8 8.1337C68.927 7.99344 69.0851 7.88124 69.2291 7.75781C69.2686 7.93734 69.3787 8.13931 69.3335 8.29359C69.0766 9.16038 68.7774 10.0159 68.5036 10.8771C67.8655 12.8856 67.2388 14.8969 66.5923 16.9025C66.5076 17.1634 66.3524 17.3991 66.2282 17.6459C66.1322 17.6375 66.039 17.6291 65.943 17.6207L65.9459 17.6179Z" fill="white"/>
<path d="M39.8355 85.6427C39.6548 85.5698 39.4515 85.5277 39.2991 85.4183C36.8148 83.6483 34.3305 81.8754 31.8603 80.083C31.6966 79.9652 31.6514 79.6903 31.5498 79.4883C31.7728 79.5135 32.0495 79.463 32.2076 79.578C34.2486 81.0451 36.27 82.5375 38.2969 84.0242C38.7486 84.3552 39.2144 84.6694 39.652 85.0172C39.796 85.1322 39.8694 85.3286 39.9766 85.4885C39.9286 85.539 39.8806 85.5923 39.8327 85.6427H39.8355Z" fill="white"/>
<path d="M66.327 1.84766C67.0892 2.93885 67.8514 4.03005 68.6137 5.12125C68.6871 5.10722 68.7605 5.0932 68.8339 5.07917V1.94023L69.0625 1.94864V5.9151C67.9361 4.96977 67.5014 3.62611 66.3976 2.68078V5.75801C66.3157 5.75521 66.2367 5.7524 66.1548 5.74679V1.9823C66.2141 1.93742 66.2705 1.89254 66.3298 1.84766H66.327Z" fill="white"/>
<path d="M57.9257 53.3131V56.4352C57.8523 56.4352 57.7789 56.4352 57.7026 56.4352V52.5781C58.4028 52.8699 58.5778 53.5908 58.9758 54.0957C59.388 54.6175 59.7381 55.1869 60.1164 55.7339C60.1926 55.7199 60.2716 55.7059 60.3478 55.6918V52.6258L60.5906 52.6342V56.4268C60.5313 56.4604 60.4749 56.4969 60.4156 56.5306C59.6562 55.4422 58.8968 54.3538 58.1374 53.2654C58.0668 53.2822 57.9962 53.2962 57.9285 53.3131H57.9257Z" fill="white"/>
<path d="M31.8124 64.038C32.5718 65.1264 33.3312 66.2176 34.0906 67.3059C34.164 67.2863 34.2346 67.2695 34.308 67.2498V64.1333C34.3814 64.1333 34.452 64.1361 34.5254 64.1389V68.1278C33.4441 67.1236 32.9614 65.822 32.0749 64.8515C32.0044 64.8599 31.9366 64.8711 31.866 64.8795V67.9427C31.787 67.9371 31.708 67.9343 31.6289 67.9287V64.1333C31.6882 64.0997 31.7503 64.0688 31.8096 64.0352L31.8124 64.038Z" fill="white"/>
<path d="M42.1955 91.9996C41.8201 91.4694 41.4418 90.9393 41.0691 90.4063C40.688 89.8621 40.3097 89.3123 39.9314 88.7653L39.7225 88.8046V91.8566C39.6491 91.8566 39.5729 91.8509 39.4995 91.8481V88.0893C39.5616 88.0556 39.6209 88.0219 39.683 87.9883C40.4283 89.0823 41.1764 90.1763 41.9217 91.2675C41.9894 91.2591 42.0544 91.2535 42.1221 91.245V88.0837C42.2068 88.0837 42.2915 88.0893 42.3762 88.0893V91.8566C42.3169 91.9014 42.2576 91.9491 42.2012 91.994L42.1955 91.9996Z" fill="white"/>
<path d="M41.3599 38.5225V34.5195C42.4354 35.6135 42.9944 36.8927 44.0418 37.8969V34.7636C44.118 34.7636 44.1914 34.7636 44.2676 34.7636V38.6627C43.1638 37.7146 42.7234 36.3709 41.597 35.4564V38.5281C41.518 38.5281 41.4389 38.5225 41.3627 38.5197L41.3599 38.5225Z" fill="white"/>
<path d="M48.0138 36.3682C48.0477 35.7454 48.0731 35.2321 48.1013 34.7188L48.3017 34.7272V38.5225L48.1013 38.5393C48.0731 37.9699 48.0477 37.4005 48.0166 36.7216C47.3334 36.7216 46.6615 36.6964 45.9925 36.7441C45.8598 36.7525 45.6622 37.0274 45.6424 37.1985C45.5916 37.6249 45.6255 38.0597 45.6255 38.4917C45.5577 38.4917 45.4928 38.4917 45.425 38.4917V34.7749C45.4674 34.7692 45.5097 34.7608 45.5521 34.7552C45.5747 35.0638 45.6424 35.378 45.6142 35.6809C45.5634 36.2447 45.792 36.4243 46.3397 36.3822C46.8733 36.3401 47.4097 36.3738 48.0138 36.3738V36.3682Z" fill="white"/>
<path d="M38.8727 10.1566C38.8812 11.2899 38.1218 12.1006 37.0349 12.1174C35.9763 12.1342 35.1322 11.2983 35.1124 10.2183C35.0926 9.09906 35.9339 8.20703 37.0067 8.20703C38.0597 8.20703 38.8642 9.04577 38.8727 10.1566ZM37.0038 8.5717C36.0666 8.5717 35.4681 9.19444 35.4681 10.1762C35.4681 11.1412 36.0892 11.7976 37.001 11.7976C37.9326 11.7976 38.5481 11.1552 38.5481 10.1847C38.5481 9.21969 37.9298 8.5745 37.0038 8.5745V8.5717Z" fill="white"/>
<path d="M4.33546 72.5505C4.34957 73.6725 3.58453 74.5169 2.53435 74.5393C1.49264 74.5617 0.654191 73.7286 0.628784 72.6402C0.603376 71.4761 1.37407 70.6345 2.47224 70.6289C3.55065 70.6233 4.31852 71.4172 4.33264 72.5505H4.33546ZM4.01081 72.5757C4.00798 71.6079 3.3728 70.9403 2.46377 70.9515C1.55192 70.9627 0.947789 71.6276 0.956259 72.6094C0.964728 73.5575 1.55192 74.169 2.46659 74.1746C3.42079 74.1802 4.01363 73.5659 4.01081 72.5757Z" fill="white"/>
<path d="M28.2496 42.0604C28.2496 42.5457 28.0915 42.7168 27.6482 42.5682C26.8126 42.2877 25.9685 42.0268 25.1273 41.7575C24.6614 41.6088 24.7264 41.3395 24.9607 40.9805C26.073 41.3451 27.1627 41.7042 28.2467 42.0604H28.2496Z" fill="white"/>
<path d="M27.1034 44.6789C26.2875 44.4124 25.466 44.1627 24.6586 43.8682C24.5287 43.8205 24.4751 43.5765 24.3848 43.425C24.5316 43.3633 24.7009 43.2174 24.8223 43.2511C25.5817 43.4587 26.344 43.6803 27.0751 43.9636C27.2248 44.0225 27.2586 44.3703 27.349 44.5863C27.2671 44.6172 27.1852 44.648 27.1034 44.6789Z" fill="white"/>
<path d="M26.4231 46.0642C26.5219 46.6337 26.234 46.6814 25.8162 46.5579C25.5056 46.4654 25.1951 46.37 24.8874 46.269C24.5797 46.1652 24.2776 46.053 23.9276 45.9296C23.9163 45.5172 23.9897 45.2451 24.5147 45.4303C25.1499 45.6519 25.7879 45.8566 26.4203 46.067L26.4231 46.0642Z" fill="white"/>
<path d="M25.6495 48.3527C25.497 48.4508 25.3192 48.6556 25.1978 48.6248C24.6812 48.5013 24.1758 48.3246 23.6818 48.1283C23.5886 48.0918 23.5152 47.873 23.5265 47.7468C23.535 47.6598 23.7298 47.5055 23.8004 47.5251C24.3565 47.6822 24.9014 47.873 25.449 48.0553C25.5394 48.0862 25.6297 48.1086 25.7229 48.1367C25.7003 48.2096 25.6749 48.2797 25.6523 48.3527H25.6495Z" fill="white"/>
<path d="M24.7687 50.3432C24.5739 50.4386 24.3509 50.6434 24.19 50.6041C23.8004 50.5059 23.4418 50.2928 23.072 50.1273C23.1991 49.9926 23.3459 49.7261 23.4503 49.7429C23.8766 49.8075 24.2888 49.9589 24.7066 50.0796C24.7263 50.1693 24.7461 50.2563 24.7659 50.3461L24.7687 50.3432Z" fill="white"/>
<path d="M23.9133 52.0857C23.7552 52.3774 23.6705 52.5317 23.5237 52.801C23.2075 52.5934 22.9196 52.4167 22.6542 52.2119C22.626 52.1895 22.7248 51.923 22.7502 51.9258C23.1144 51.9595 23.4785 52.0212 23.9161 52.0857H23.9133Z" fill="white"/>
</svg>
