<svg width="97" height="78" viewBox="0 0 97 78" fill="none" xmlns="http://www.w3.org/2000/svg">
<g clip-path="url(#clip0_1855_726)">
<path d="M0.679584 48.7136C0.602513 46.5553 0.532902 44.397 0.438428 42.2412C0.423512 41.8778 0.550305 41.6998 0.853613 41.5144C3.9936 39.5959 7.12116 37.6601 10.2512 35.7268C10.8802 35.3387 11.5142 34.953 12.1307 34.5451C12.3744 34.3844 12.5733 34.414 12.8144 34.5352C16.4417 36.3548 20.069 38.1694 23.6987 39.984C23.9921 40.1324 24.3352 40.2164 24.5838 40.4167C25.1755 40.8938 25.6404 40.6961 26.1699 40.2931C29.2229 37.9716 32.3405 35.7268 35.3289 33.3262C36.2711 32.5697 37.0617 32.723 38.0089 32.9801C40.9898 33.7885 43.9781 34.5772 46.9615 35.3782C47.1629 35.4326 47.5059 35.4153 47.3916 35.7491C47.2946 36.0309 46.9938 35.8924 46.7949 35.8356C43.9185 35.0173 40.955 34.5179 38.1108 33.6204C36.7534 33.1927 35.9429 33.6402 34.9733 34.3893C32.082 36.6193 29.1433 38.7875 26.2047 40.9581C25.8418 41.2251 25.7025 41.5416 25.6951 41.9421C25.6006 46.0757 25.5161 50.2068 25.4166 54.3405C25.4067 54.7014 25.5882 54.9066 25.8318 55.1093C28.5044 57.3467 31.172 59.5866 33.8446 61.8265C34.3319 62.2344 34.8416 62.6176 35.299 63.0527C35.5974 63.337 35.9106 63.3445 36.2661 63.2728C39.5652 62.6102 42.8618 61.9476 46.1609 61.2826C46.9689 61.1194 47.7744 60.9315 48.5874 60.7857C48.8708 60.7362 49.0125 60.5928 49.1319 60.358C51.0512 56.6619 52.973 52.9684 54.8972 49.2748C55.0489 48.9856 55.0911 48.7334 54.937 48.4095C54.3751 47.2228 53.8182 46.0312 53.321 44.8173C52.6746 43.24 51.9661 41.6948 51.255 40.1472C51.1705 39.9643 50.9791 39.675 51.255 39.5464C51.5683 39.4006 51.5956 39.7615 51.6802 39.9395C53.0127 42.8024 54.3354 45.6727 55.6679 48.5331C55.8047 48.8249 55.6978 49.0399 55.5735 49.2822C53.5572 53.1563 51.5385 57.0303 49.5346 60.9118C49.4029 61.1664 49.2512 61.2776 48.9877 61.3296C47.225 61.6757 45.4673 62.0366 43.7071 62.3877C41.2583 62.8747 38.807 63.3642 36.3531 63.829C35.9255 63.9106 35.7341 64.1356 35.5824 64.5089C34.2648 67.7401 32.9297 70.9664 31.6046 74.1952C31.3262 74.8751 31.0452 75.555 30.8091 76.2497C30.6947 76.5859 30.5232 76.6897 30.1801 76.6601C28.2633 76.5019 26.3415 76.3955 24.4296 76.1978C23.0921 76.0593 21.7471 76.0198 20.412 75.8863C20.2131 75.8665 19.875 75.9876 19.9024 75.6267C19.9272 75.288 20.2554 75.4091 20.4543 75.4215C23.5073 75.6094 26.5578 75.8022 29.6083 76.0148C30.0359 76.0445 30.2646 75.9678 30.4436 75.5303C31.9701 71.765 33.5189 68.0096 35.0827 64.2592C35.2468 63.8686 35.115 63.656 34.8366 63.4236C32.5866 61.5422 30.3442 59.6558 28.0967 57.7695C27.234 57.0451 26.3614 56.3306 25.5086 55.5939C25.1854 55.3145 24.9244 55.27 24.5341 55.5148C21.0634 57.6805 17.5803 59.8264 14.0997 61.9724C13.7815 62.1677 13.7144 62.3531 13.8238 62.7635C14.3086 64.6053 14.7188 66.4645 15.1564 68.3187C15.4149 69.4139 15.6809 70.5091 15.932 71.6068C15.9743 71.7971 16.2229 72.0839 15.8674 72.1704C15.482 72.2644 15.5467 71.8614 15.4945 71.6636C15.0917 70.1407 14.7113 68.6129 14.3235 67.085C13.9754 65.7203 13.6 64.3606 13.2868 62.9885C13.1699 62.4816 12.9213 62.1652 12.4688 61.9279C9.35868 60.2962 6.2535 58.6472 3.1508 57.0031C2.54916 56.6842 1.96492 56.3331 1.34835 56.0463C0.97792 55.8733 0.856099 55.6508 0.848641 55.2453C0.806377 53.0673 0.729306 50.8867 0.664667 48.7087C0.672125 48.7087 0.679584 48.7087 0.687042 48.7087L0.679584 48.7136ZM24.7876 48.0041C25.0537 45.9521 25.0735 43.8952 25.1133 41.8407C25.1208 41.4946 25.0313 41.2746 24.6981 41.1089C20.7775 39.1781 16.8618 37.2349 12.9511 35.2892C12.623 35.126 12.3495 35.126 12.0288 35.3238C8.64019 37.4228 5.25656 39.5267 1.8431 41.5861C1.21162 41.9668 1.00278 42.3747 1.0351 43.104C1.20167 46.9237 1.33095 50.7458 1.41299 54.5704C1.42791 55.2849 1.70387 55.6236 2.30552 55.9178C3.6356 56.568 4.93585 57.2775 6.24356 57.9747C8.40401 59.1218 10.562 60.2714 12.7125 61.4359C13.1326 61.6633 13.4832 61.6905 13.9058 61.4285C17.3392 59.285 20.775 57.1465 24.2307 55.0352C24.6683 54.7682 24.7976 54.4542 24.7926 53.9869C24.7802 51.9918 24.7876 49.9992 24.7876 48.0041Z" fill="white"/>
<path d="M35.177 19.8121C34.2945 19.9926 33.4119 20.178 32.5268 20.3535C32.3926 20.3807 32.2011 20.3931 32.1837 20.1929C32.0719 18.8529 30.8934 18.8628 30.0233 18.5537C27.6565 17.7156 25.2648 16.9443 22.8831 16.1458C22.6295 16.0617 22.3436 16.0296 22.1223 15.8961C21.0981 15.278 20.3845 15.6933 19.589 16.4251C17.523 18.3238 15.3725 20.136 13.2543 21.9803C13.1623 22.0619 13.0653 22.141 12.9634 22.2053C12.8292 22.2893 12.6701 22.3066 12.5706 22.1781C12.4289 21.9927 12.5408 21.8344 12.6899 21.7009C13.3189 21.1447 13.9454 20.5884 14.5794 20.0371C16.3296 18.5167 18.0724 16.9863 19.8376 15.4857C20.2528 15.1321 20.3522 14.7736 20.2428 14.2569C19.6735 11.5894 19.1265 8.91685 18.5771 6.24433C18.5075 5.90316 18.4603 5.55457 18.4105 5.20846C18.3882 5.04776 18.3509 4.86481 18.5821 4.81289C18.8083 4.76345 18.9227 4.86728 18.9674 5.08979C19.1937 6.21714 19.4323 7.33955 19.6561 8.4669C20.0489 10.4373 20.4343 12.4126 20.8246 14.383C20.8942 14.7316 21.0956 14.9418 21.4536 15.0629C24.8322 16.1878 28.196 17.3646 31.5871 18.4499C32.8003 18.8381 33.9887 19.2831 35.182 19.8121H35.177Z" fill="white"/>
<path d="M68.6156 48.6513C68.3247 48.6859 68.3148 48.9579 68.1855 49.126C68.0487 49.3015 67.8921 49.5364 67.641 49.3584C67.4322 49.21 67.5515 48.995 67.6659 48.812C68.7921 47.0122 69.9183 45.2124 71.0445 43.4101C71.7183 42.3322 72.3895 41.2543 73.0608 40.1764C73.1254 40.0726 73.1851 39.9613 73.2622 39.8649C73.3616 39.7388 73.466 39.5534 73.6575 39.6869C73.8141 39.7957 73.7843 39.986 73.6972 40.1368C73.4586 40.5448 73.2124 40.9477 72.9638 41.3482C71.686 43.42 70.4081 45.4918 69.1227 47.561C68.9512 47.8379 68.9338 48.0951 69.0929 48.3645C69.2471 48.6291 69.4186 48.8837 69.5827 49.1408C69.8644 49.5825 70.1421 49.5834 70.4155 49.1433C72.0315 46.5524 73.645 43.9614 75.261 41.3705C75.3828 41.1752 75.4649 40.8315 75.7831 41.0343C76.0566 41.2073 75.8154 41.4521 75.7085 41.6251C74.2989 43.9342 72.8793 46.2384 71.4597 48.5425C71.1713 49.0098 70.8854 49.482 70.5747 49.9344C70.2788 50.3646 70.4354 50.7552 70.6418 51.1409C71.7929 53.2868 72.9539 55.4278 74.0975 57.5787C74.2342 57.8383 74.6072 58.2066 74.1994 58.4168C73.8787 58.5824 73.8041 58.0904 73.6774 57.8654C72.4691 55.7047 71.2658 53.539 70.0874 51.3609C69.8611 50.9431 69.5006 50.9431 69.1451 50.9209C68.72 50.8937 68.5783 50.7255 68.6131 50.2978C68.6554 49.7539 68.623 49.2051 68.623 48.6513H68.6156Z" fill="white"/>
<path d="M32.7234 64.9187C32.4276 65.6752 32.1118 66.5133 31.7712 67.344C30.9508 69.3416 30.1204 71.3342 29.2876 73.3269C29.1956 73.5494 29.1682 73.9301 28.768 73.7274C28.4348 73.5568 28.6611 73.3318 28.7531 73.1093C29.6878 70.8299 30.6102 68.5455 31.54 66.2611C31.7538 65.7345 31.9825 65.2129 32.1939 64.6838C32.2635 64.5132 32.353 64.3847 32.5544 64.4316C32.7682 64.4836 32.7508 64.6591 32.7259 64.9162L32.7234 64.9187Z" fill="white"/>
<path d="M82.7072 61.0909C84.0572 61.1502 85.3574 61.2021 86.6552 61.2664C86.864 61.2763 87.1673 61.217 87.1474 61.568C87.1275 61.9042 86.8342 61.8424 86.6229 61.835C84.0646 61.7608 81.5064 61.6793 78.9481 61.5977C78.7194 61.5903 78.4236 61.5828 78.4584 61.2788C78.4882 61.0019 78.7865 61.0983 78.9755 61.0983C80.236 61.0909 81.4964 61.0933 82.7072 61.0933V61.0909Z" fill="white"/>
<path d="M94.4441 61.9699C94.4441 62.4422 94.4466 62.9144 94.4441 63.3866C94.4441 63.5028 94.4615 63.656 94.29 63.6733C94.0687 63.6981 94.0911 63.5225 94.0787 63.3816C94.0762 63.3421 94.0812 63.3 94.0762 63.258C94.0215 62.8624 94.2751 62.2394 93.937 62.1133C93.4298 61.923 92.8033 62.0367 92.2265 62.0466C91.9903 62.0515 92.0276 62.2666 92.0251 62.4248C92.0202 62.7537 92.0251 63.0825 92.0202 63.4088C92.0202 63.5299 92.0177 63.6659 91.8436 63.6758C91.6646 63.6857 91.6547 63.5497 91.6547 63.4261C91.6522 62.4422 91.6522 61.4557 91.6547 60.4718C91.6547 60.3506 91.6472 60.2097 91.8213 60.1998C91.9878 60.1899 92.0202 60.3061 92.0226 60.4421C92.0226 60.4841 92.0177 60.5261 92.0251 60.5657C92.0873 60.9143 91.8262 61.4755 92.1668 61.5793C92.6939 61.74 93.3105 61.6708 93.8823 61.6189C94.1906 61.5917 94.024 61.2505 94.0812 61.0552C94.1632 60.7734 93.8549 60.2591 94.295 60.2468C94.5958 60.2369 94.4143 60.766 94.4466 61.0503C94.4789 61.3544 94.4541 61.6659 94.4541 61.9724H94.4516L94.4441 61.9699Z" fill="white"/>
<path d="M6.60654 24.3115C6.60654 24.8034 6.60654 25.2954 6.60654 25.7874C6.60654 25.9061 6.62643 26.0519 6.4524 26.0717C6.2361 26.094 6.23859 25.9333 6.2361 25.7849C6.2361 25.7429 6.23859 25.7033 6.2361 25.6613C6.1839 25.2633 6.43251 24.6353 6.11428 24.5142C5.6096 24.3238 4.98061 24.4425 4.40631 24.445C4.16267 24.445 4.1925 24.6502 4.18753 24.8084C4.18007 25.1372 4.18504 25.4635 4.18007 25.7923C4.18007 25.9135 4.17758 26.0569 4.01101 26.0692C3.84196 26.0816 3.81461 25.9481 3.81461 25.822C3.81212 24.838 3.81212 23.8541 3.81461 22.8701C3.81461 22.7515 3.81212 22.6105 3.98615 22.5982C4.16267 22.5883 4.17013 22.7218 4.18007 22.8454C4.18504 22.9072 4.1751 22.969 4.18504 23.0308C4.23725 23.3621 4.01599 23.9085 4.31929 23.9901C4.87619 24.1359 5.50518 24.0865 6.09439 24.0222C6.36041 23.9925 6.18887 23.6341 6.2361 23.4313C6.30323 23.1569 6.08694 22.6353 6.40019 22.6451C6.83029 22.66 6.54936 23.1668 6.59659 23.4511C6.64383 23.7305 6.60654 24.0247 6.60654 24.3115Z" fill="white"/>
<path d="M14.2788 2.012C14.2788 2.46442 14.2788 2.91437 14.2788 3.3668C14.2788 3.50525 14.2987 3.68572 14.0849 3.6783C13.8661 3.67089 13.9282 3.48052 13.9133 3.35196C13.9034 3.27038 13.9233 3.18632 13.9084 3.10721C13.8387 2.76357 14.1271 2.22956 13.7443 2.101C13.1948 1.91311 12.5609 1.99716 11.9692 2.07628C11.7827 2.101 11.8324 2.30372 11.83 2.4397C11.82 2.78829 11.825 3.13688 11.82 3.48547C11.82 3.59672 11.7753 3.68572 11.6435 3.68572C11.5142 3.68572 11.462 3.60166 11.462 3.48794C11.4595 2.46195 11.457 1.43596 11.457 0.40997C11.457 0.293774 11.5142 0.209717 11.636 0.207244C11.7603 0.2023 11.815 0.283885 11.8225 0.400081C11.8225 0.44211 11.8225 0.484138 11.8275 0.523694C11.8921 0.889589 11.6261 1.47057 11.9866 1.58677C12.5087 1.75735 13.1302 1.68566 13.702 1.63127C14.0575 1.59913 13.8537 1.23076 13.9158 1.01567C13.9929 0.74867 13.7318 0.244328 14.0998 0.246801C14.4628 0.246801 14.244 0.751143 14.2763 1.02804C14.3161 1.3519 14.2863 1.68319 14.2838 2.012H14.2788Z" fill="white"/>
<path d="M16.5485 74.4773C16.3671 75.486 16.5983 76.428 16.3869 77.3897C16.0762 77.1696 16.1905 76.9224 16.1856 76.7197C16.1707 75.9607 16.1731 75.1992 16.1856 74.4403C16.1881 74.2796 16.0762 74.0348 16.3273 73.973C16.5535 73.9186 16.6206 74.1485 16.7226 74.2993C17.185 74.9767 17.6524 75.6492 18.1074 76.334C18.1993 76.4725 18.2789 76.6084 18.5623 76.7543C18.5623 76.0052 18.5499 75.3229 18.5698 74.6455C18.5772 74.423 18.438 74.02 18.7165 74.015C19.0123 74.0101 18.8606 74.4106 18.8681 74.6232C18.8905 75.4044 18.8805 76.1832 18.8731 76.9644C18.8731 77.0955 18.9402 77.2759 18.7513 77.3353C18.5797 77.3872 18.5002 77.2463 18.4181 77.1227C17.9383 76.4106 17.4585 75.6986 16.9712 74.9916C16.8618 74.8333 16.7275 74.69 16.551 74.4773H16.5485Z" fill="white"/>
<path d="M15.2805 73.9908V77.3283C14.9648 76.9649 15.0742 76.557 15.0717 76.1713C15.0717 75.798 14.935 75.6496 14.562 75.6694C14.0673 75.6941 13.4806 75.5334 13.1027 75.7485C12.6502 76.0056 12.9908 76.646 12.9038 77.1132C12.8914 77.1874 12.8665 77.2591 12.8466 77.3258C12.5881 77.3407 12.603 77.175 12.603 77.0391C12.6005 76.1367 12.598 75.2318 12.603 74.3295C12.603 74.196 12.5582 73.9908 12.7646 73.9932C12.9759 73.9982 12.8963 74.2108 12.9038 74.3344C12.9535 75.0579 13.3356 75.4197 14.0499 75.4197C14.1319 75.4197 14.2165 75.4098 14.2985 75.4197C14.8778 75.5063 15.1537 75.2986 15.0667 74.6855C15.0344 74.458 15.0618 74.2207 15.0618 73.9883C15.1339 73.9883 15.206 73.9908 15.2805 73.9932V73.9908Z" fill="white"/>
<path d="M50.7552 37.744C50.9541 36.7303 50.713 35.776 50.9144 34.8242C51.2425 34.9899 51.1331 35.2223 51.1356 35.4077C51.1481 36.1667 51.1505 36.9256 51.1356 37.6846C51.1331 37.87 51.2649 38.1469 51.0039 38.2236C50.7254 38.3052 50.6334 38.0085 50.5116 37.8354C50.0815 37.2124 49.6763 36.5746 49.2486 35.9491C49.1368 35.7859 49.0522 35.5881 48.7738 35.4769C48.5749 36.3867 48.8011 37.3064 48.6371 38.1989C48.381 38.1593 48.4456 37.9788 48.4456 37.8602C48.4382 36.9973 48.4382 36.137 48.4456 35.2742C48.4456 35.1407 48.3835 34.9552 48.5476 34.8885C48.7465 34.8069 48.831 34.9899 48.9205 35.1234C49.4252 35.87 49.9274 36.6191 50.4345 37.3657C50.5091 37.477 50.6061 37.5709 50.7552 37.744Z" fill="white"/>
<path d="M8.69732 24.4701C8.67246 23.5356 9.01058 23.0065 9.71415 22.7074C10.3307 22.4453 11.0343 22.564 11.4917 23.0213C11.5763 23.1079 11.6459 23.2117 11.713 23.3106C11.7801 23.4095 11.7702 23.5158 11.6782 23.585C11.5141 23.7062 11.4967 23.543 11.4246 23.449C10.9547 22.8532 10.1094 22.7642 9.50532 23.234C9.01555 23.6147 8.89621 24.7346 9.29151 25.2662C9.66691 25.7705 10.5843 25.8892 11.1487 25.4961C11.2456 25.4293 11.3103 25.3131 11.3923 25.2241C11.4818 25.1252 11.442 24.8162 11.7006 24.9942C11.8895 25.1252 11.7205 25.3082 11.6509 25.4318C11.3674 25.9337 10.6216 26.2081 9.97022 26.0746C9.27659 25.9337 8.83157 25.454 8.7197 24.7272C8.69732 24.5863 8.69732 24.4404 8.69981 24.4726L8.69732 24.4701Z" fill="white"/>
<path d="M17.9333 3.69657C17.1477 3.68915 16.643 3.301 16.3546 2.47774C16.1309 1.8399 16.3944 0.967188 16.9414 0.532069C17.4634 0.116729 18.3659 0.0598668 18.9228 0.430706C19.072 0.529597 19.1888 0.68535 19.3007 0.831213C19.3678 0.920215 19.4698 1.05124 19.3181 1.15014C19.1515 1.25891 19.1267 1.07102 19.0521 0.994383C18.525 0.452957 17.5132 0.403512 17.0433 0.895492C16.4988 1.46659 16.5461 2.59641 17.1353 3.06614C17.727 3.53834 18.5996 3.39742 19.0894 2.74227C19.1615 2.64586 19.1689 2.48763 19.3405 2.58405C19.5021 2.67552 19.3977 2.78677 19.3504 2.89555C19.1242 3.40731 18.6021 3.70398 17.9358 3.69904L17.9333 3.69657Z" fill="white"/>
<path d="M74.8958 37.8793C74.8958 36.8805 75.5596 36.1636 76.5043 36.1487C77.4689 36.1314 78.1949 36.8805 78.1874 37.8793C78.1799 38.841 77.4565 39.5926 76.5391 39.5926C75.6192 39.5926 74.8982 38.8435 74.8982 37.8793H74.8958ZM77.8717 37.8447C77.8642 36.9942 77.2998 36.4133 76.4993 36.4306C75.6863 36.4479 75.1941 37.0116 75.2065 37.9115C75.2189 38.7644 75.7162 39.2737 76.5366 39.2737C77.367 39.2737 77.8766 38.7248 77.8692 37.8472L77.8717 37.8447Z" fill="white"/>
<path d="M74.1497 61.576C74.1497 60.5772 74.816 59.8627 75.7607 59.8479C76.7253 59.833 77.4513 60.5821 77.4389 61.5834C77.4289 62.5451 76.7054 63.2942 75.7856 63.2942C74.8657 63.2942 74.1472 62.5402 74.1472 61.5785L74.1497 61.576ZM77.1281 61.571C77.1281 60.7206 76.5712 60.1248 75.7806 60.1322C74.9627 60.1396 74.4605 60.6934 74.463 61.5883C74.4679 62.4462 74.9602 62.9679 75.7682 62.9753C76.606 62.9827 77.1256 62.4462 77.1256 61.5735L77.1281 61.571Z" fill="white"/>
<path d="M88.2959 61.9396C88.2984 62.6714 88.5768 63.1041 89.1511 63.2821C89.7329 63.4601 90.3047 63.2598 90.6503 62.7382C90.7199 62.6343 90.7522 62.486 90.9063 62.5626C91.0978 62.6591 90.9809 62.8099 90.9262 62.9335C90.5583 63.7518 89.2033 63.9644 88.4625 63.3216C87.9155 62.847 87.7365 61.6257 88.1194 60.9829C88.5445 60.2709 89.4619 59.9964 90.2898 60.3154C90.4738 60.3846 90.6055 60.4909 90.7373 60.6244C90.8815 60.7703 91.1052 60.9581 90.9088 61.1213C90.6751 61.3142 90.6727 60.9483 90.5459 60.8568C90.0785 60.5206 89.5812 60.4563 89.0343 60.6639C88.4277 60.8939 88.2909 61.3735 88.2909 61.9421L88.2959 61.9396Z" fill="white"/>
<path d="M54.6087 34.9067V38.2666C54.2706 37.9501 54.3999 37.6089 54.4123 37.3246C54.4372 36.8178 54.3203 36.5459 53.7361 36.6151C53.2886 36.6695 52.7267 36.489 52.406 36.7016C52.0405 36.9414 52.3215 37.5397 52.2593 37.9773C52.2444 38.0762 52.2593 38.185 52.0206 38.2394C51.9063 37.1021 51.9734 35.9847 52.0505 34.8672C52.3612 35.1194 52.2668 35.4383 52.2519 35.7201C52.2295 36.1528 52.3289 36.3827 52.8237 36.3258C53.311 36.269 53.8977 36.5063 54.2706 36.2245C54.6336 35.9525 54.2706 35.332 54.6062 34.9067H54.6087Z" fill="white"/>
<path d="M33.1958 22.2002C32.8925 22.2224 32.7334 22.1829 32.7035 21.9307C32.6762 21.6934 32.8353 21.6588 32.9994 21.6242C33.8248 21.4536 34.6527 21.2805 35.4805 21.1223C35.6322 21.0926 35.8261 21.0753 35.8659 21.3127C35.8982 21.503 35.8336 21.6316 35.6347 21.6761C34.7894 21.8566 33.9441 22.0395 33.1958 22.2002Z" fill="white"/>
<path d="M15.3701 2.22369C15.7331 2.23606 16.0439 2.66129 15.8574 3.16563C15.7704 3.39555 15.7704 3.53399 15.932 3.70211C16.3447 4.12981 16.1234 4.51548 15.7704 4.79979C15.4124 5.08905 14.9922 5.07174 14.6665 4.70338C14.582 4.60696 14.3508 4.48334 14.5373 4.31029C14.6839 4.17431 14.7859 4.34242 14.8878 4.43884C15.0469 4.59212 15.2433 4.67371 15.4522 4.58223C15.5964 4.52043 15.7356 4.41907 15.7629 4.2287C15.7928 4.01856 15.7157 3.82572 15.5442 3.75897C15.1712 3.61311 14.9773 3.50433 15.4447 3.20518C15.6088 3.09888 15.5889 2.86648 15.4596 2.70331C15.3403 2.55003 15.1812 2.56981 15.0171 2.64892C14.8505 2.73051 14.8083 3.04696 14.5273 2.90851C14.4204 2.85659 14.4627 2.75029 14.5074 2.69837C14.6765 2.50553 14.7759 2.21875 15.1041 2.21875C15.1464 2.21875 15.1861 2.21875 15.3701 2.21875V2.22369Z" fill="white"/>
<path d="M7.6035 27.3927C7.3524 27.4175 7.16096 27.2914 7.01428 27.1183C6.91981 27.0095 6.75075 26.8439 6.93473 26.7005C7.07644 26.5892 7.1734 26.7376 7.27284 26.8513C7.50157 27.1158 7.7999 27.1257 7.99879 26.8562C8.18277 26.6065 8.17779 26.2728 7.83719 26.1319C7.47173 25.9811 7.48416 25.8401 7.76261 25.6325C7.93913 25.5014 8.02365 25.3482 7.86206 25.1751C7.693 24.9922 7.48168 24.9229 7.2803 25.1553C7.18831 25.2616 7.07892 25.4248 6.93473 25.2913C6.78059 25.1479 6.92727 24.96 7.02671 24.871C7.30516 24.6188 7.64328 24.5101 7.97642 24.7721C8.24243 24.9823 8.48608 25.2542 8.20017 25.5979C7.99133 25.85 8.18525 25.944 8.30956 26.0973C8.52834 26.3667 8.53083 26.6807 8.36674 26.9626C8.20763 27.2394 7.95653 27.4199 7.60598 27.3927H7.6035Z" fill="white"/>
<path d="M95.6498 64.9809C95.4236 65.0056 95.2421 64.8944 95.0805 64.7732C94.9537 64.6768 94.812 64.4889 94.9064 64.3554C95.0556 64.1403 95.1799 64.3604 95.2918 64.4593C95.5603 64.7015 95.8537 64.6842 96.0376 64.4073C96.2117 64.1453 96.1669 63.8313 95.8139 63.7052C95.5056 63.594 95.4136 63.5025 95.7269 63.2775C95.9407 63.1242 96.0053 62.9042 95.8039 62.699C95.5876 62.4814 95.3987 62.5902 95.2446 62.8004C95.1675 62.9042 95.0631 62.9981 94.9388 62.9042C94.8045 62.8004 94.9164 62.6817 94.9711 62.5803C95.1575 62.2367 95.4658 62.1254 95.8089 62.2565C96.1669 62.3924 96.4106 62.6916 96.2514 63.0797C96.1346 63.369 96.1247 63.5371 96.3633 63.7646C96.5697 63.9623 96.5299 64.2565 96.4006 64.5112C96.2465 64.8128 95.9805 64.9488 95.6548 64.9809H95.6498Z" fill="white"/>
<path d="M66.7511 49.1582C66.7511 48.728 66.7461 48.2954 66.7511 47.8652C66.7536 47.6649 66.8133 47.4795 67.0569 47.4845C67.3055 47.4894 67.3428 47.6872 67.3329 47.8825C67.3005 48.6835 67.2633 49.4821 67.2235 50.2831C67.216 50.4388 67.2409 50.6366 66.9898 50.6341C66.7486 50.6341 66.6765 50.4907 66.679 50.2707C66.6865 49.8999 66.679 49.5315 66.679 49.1607C66.7014 49.1607 66.7238 49.1607 66.7486 49.1607L66.7511 49.1582Z" fill="white"/>
<path d="M33.6582 24.0667C33.4717 24.0914 33.335 24.0222 33.3002 23.7849C33.2678 23.5549 33.4145 23.5055 33.5836 23.4709C34.2673 23.3275 34.9509 23.1866 35.6321 23.0358C35.8087 22.9962 35.9131 23.0506 35.9578 23.2162C36.015 23.4239 35.9578 23.5994 35.7366 23.6489C35.0554 23.7972 34.3692 23.9258 33.6557 24.0692L33.6582 24.0667Z" fill="white"/>
<path d="M63.4098 48.9407C63.4098 49.2275 63.4173 49.5142 63.4073 49.7986C63.3999 49.9766 63.3278 50.1298 63.1115 50.1076C62.9399 50.0903 62.7634 50.0235 62.7734 49.8208C62.8007 49.2497 62.8405 48.6786 62.8977 48.11C62.9151 47.9369 63.0369 47.8084 63.2407 47.8306C63.4769 47.8554 63.4521 48.0408 63.4545 48.2015C63.4545 48.4462 63.4545 48.6935 63.4545 48.9382C63.4396 48.9382 63.4247 48.9382 63.4098 48.9382V48.9407Z" fill="white"/>
<path d="M65.3289 48.953C65.3289 49.3213 65.3289 49.6897 65.3289 50.0581C65.3289 50.2435 65.2867 50.372 65.0579 50.3671C64.8466 50.3621 64.7621 50.2583 64.7671 50.063C64.782 49.3658 64.8019 48.6711 64.8143 47.9739C64.8193 47.7663 64.9237 47.6773 65.1226 47.6797C65.3687 47.6847 65.3538 47.8652 65.3563 48.0283C65.3612 48.3349 65.3563 48.6439 65.3563 48.9505C65.3463 48.9505 65.3364 48.9505 65.3264 48.9505L65.3289 48.953Z" fill="white"/>
<path d="M34.4014 25.887C34.0633 25.9414 33.9191 25.8351 33.8594 25.6397C33.7675 25.3431 34.0335 25.3579 34.1901 25.3233C34.7122 25.2046 35.2368 25.1107 35.7613 25.0069C35.9528 24.9698 36.087 25.0242 36.1119 25.2392C36.1318 25.3999 36.0945 25.5211 35.913 25.5582C35.371 25.6744 34.829 25.793 34.4039 25.887H34.4014Z" fill="white"/>
<path d="M61.473 48.8863C61.473 49.1113 61.478 49.3388 61.473 49.5637C61.4681 49.7541 61.3885 49.8802 61.1722 49.8555C60.9907 49.8357 60.8565 49.7665 60.8615 49.5514C60.8689 49.183 60.8813 48.8122 60.8714 48.4438C60.8664 48.1966 60.9659 48.0458 61.2145 48.0285C61.5402 48.0087 61.4929 48.2559 61.4979 48.4537C61.5029 48.5971 61.4979 48.7405 61.4979 48.8839C61.4905 48.8839 61.4805 48.8839 61.473 48.8839V48.8863Z" fill="white"/>
<path d="M34.8439 27.7501C34.6177 27.7946 34.4983 27.7007 34.4511 27.4782C34.3989 27.2334 34.5729 27.2111 34.7345 27.1765C35.1149 27.0925 35.4953 27.0158 35.8756 26.9367C36.0323 26.9046 36.2088 26.8156 36.2685 27.0628C36.3182 27.2655 36.2734 27.4337 36.0447 27.488C35.6469 27.582 35.2467 27.6636 34.8464 27.7501H34.8439Z" fill="white"/>
<path d="M59.5712 48.8955C59.5712 49.0562 59.5736 49.2194 59.5712 49.3801C59.5662 49.5234 59.4841 49.6026 59.3424 49.61C59.2231 49.6149 59.0963 49.6372 59.0043 49.5284C58.8875 49.3899 58.9422 48.3195 59.0913 48.2428C59.2927 48.139 59.5363 48.0524 59.5861 48.4134C59.6084 48.5716 59.5886 48.7373 59.5886 48.898H59.5687L59.5712 48.8955Z" fill="white"/>
<path d="M36.0001 28.8726C36.2263 28.8603 36.4053 28.8232 36.4178 29.0753C36.4277 29.2558 36.3979 29.414 36.1841 29.4338C35.831 29.4635 35.4904 29.7527 35.1299 29.5129C35.0429 29.4561 34.9509 29.2311 34.9783 29.2064C35.2791 28.9221 35.6844 28.9369 36.0001 28.8726Z" fill="white"/>
<path d="M36.0692 31.429C35.714 31.5154 35.5898 31.3524 35.6047 31.1622C35.6395 30.7201 36.0716 30.8881 36.3175 30.7769C36.4964 30.6954 36.633 30.8411 36.6156 31.0437C36.5833 31.4561 36.2157 31.3697 36.0692 31.429Z" fill="white"/>
<path d="M56.9681 49.0257C57.0028 48.6948 56.9532 48.4033 57.3158 48.391C57.584 48.3811 57.6114 48.5935 57.5791 48.7738C57.5393 48.9813 57.6908 49.3221 57.3059 49.3419C57.06 49.3542 56.9482 49.1788 56.9681 49.0257Z" fill="white"/>
<path d="M22.8833 42.5865C22.8037 42.9054 22.5452 42.8288 22.3164 42.7175C21.3767 42.2577 20.4469 41.778 19.5121 41.3133C17.3665 40.2477 15.221 39.1846 13.073 38.1216C13.0009 38.0845 12.9313 38.0375 12.8592 38.0029C12.6578 37.9114 12.4639 37.7903 12.6031 37.5431C12.7373 37.3082 12.9611 37.3997 13.1476 37.4936C13.8288 37.8298 14.505 38.1784 15.1862 38.5171C17.6301 39.736 20.0739 40.9548 22.5203 42.1711C22.6869 42.2552 22.8808 42.2972 22.8808 42.5889L22.8833 42.5865Z" fill="white"/>
<path d="M13.585 59.3449C13.4184 59.3598 13.3115 59.3054 13.2693 59.1719C13.2096 58.9815 13.3215 58.8678 13.4731 58.7714C14.1668 58.3338 14.8505 57.8814 15.5491 57.4512C17.6648 56.1483 19.7854 54.8479 21.9086 53.5574C22.1 53.4412 22.3412 53.1569 22.55 53.4461C22.7762 53.7576 22.4605 53.9134 22.2343 54.0543C19.4747 55.7651 16.7175 57.4784 13.9554 59.1842C13.8361 59.2584 13.6944 59.3004 13.5825 59.3474L13.585 59.3449Z" fill="white"/>
<path d="M3.89916 48.7456C3.89916 50.3451 3.89916 51.9447 3.89916 53.5443C3.89916 53.7618 3.97374 54.0461 3.64557 54.0758C3.26768 54.1104 3.30248 53.7964 3.29503 53.5591C3.18564 50.3402 3.07873 47.1188 2.97929 43.9C2.97183 43.6626 2.93951 43.3486 3.29254 43.3363C3.67541 43.3239 3.60082 43.6577 3.60082 43.8826C3.60828 45.502 3.60579 47.1238 3.60579 48.7431C3.70524 48.7431 3.8022 48.7431 3.90164 48.7431L3.89916 48.7456Z" fill="white"/>
</g>
<defs>
<clipPath id="clip0_1855_726">
<rect width="96.0693" height="77.2063" fill="white" transform="translate(0.435791 0.183594)"/>
</clipPath>
</defs>
</svg>
